<svg xmlns="http://www.w3.org/2000/svg" width="18" height="20" viewBox="0 0 18 20">
    <path d="M15 2H14V1C14 0.448 13.552 0 13 0C12.448 0 12 0.448 12 1V2H6V1C6 0.448 5.552 0 5 0C4.448 0 4 0.448 4 1V2H3C1.343 2 0 3.343 0 5V17C0 18.657 1.343 20 3 20H15C16.657 20 18 18.657 18 17V5C18 3.343 16.657 2 15 2ZM5 15C4.448 15 4 14.552 4 14C4 13.448 4.448 13 5 13C5.552 13 6 13.448 6 14C6 14.552 5.552 15 5 15ZM13 15H9C8.448 15 8 14.552 8 14C8 13.448 8.448 13 9 13H13C13.552 13 14 13.448 14 14C14 14.552 13.552 15 13 15ZM16 9H2V5C2 4.448 2.448 4 3 4H4V5C4 5.552 4.448 6 5 6C5.552 6 6 5.552 6 5V4H12V5C12 5.552 12.448 6 13 6C13.552 6 14 5.552 14 5V4H15C15.552 4 16 4.448 16 5V9Z"/>
</svg>