<?xml version="1.0" encoding="UTF-8"?>
<svg width="40px" height="40px" viewBox="0 0 40 40" version="1.1" xmlns="http://www.w3.org/2000/svg" xmlns:xlink="http://www.w3.org/1999/xlink">
    <title>Category Icon/category-pryamoi</title>
    <g id="Category-Icon/category-pryamoi" stroke="none" stroke-width="1" fill="none" fill-rule="evenodd">
        <g id="category-pryamoi" transform="translate(3.000000, 3.000000)" fill="#000000" fill-rule="nonzero">
            <path d="M11.651959,20.3225806 C11.609796,20.3225806 11.5816873,20.3486854 11.5816873,20.3878426 L11.5957416,22.5153832 C11.5957416,22.5545404 11.6238503,22.5806452 11.6660133,22.5806452 C11.7081764,22.5806452 11.7362851,22.5545404 11.7362851,22.5153832 L11.7222307,20.3878426 C11.7222307,20.3617378 11.694122,20.3225806 11.651959,20.3225806 Z" id="Path"></path>
            <path d="M22.9493088,12.4193548 C22.794711,12.4193548 22.6682219,12.6663306 22.6682219,12.983871 C22.6682219,13.3014113 22.794711,13.5483871 22.9493088,13.5483871 C23.1039065,13.5483871 23.2303956,13.3014113 23.2303956,12.983871 C23.2303956,12.6663306 23.1039065,12.4193548 22.9493088,12.4193548 Z" id="Path"></path>
            <path d="M25.2073733,13.5483871 C25.0527755,13.5483871 24.9262864,13.7953629 24.9262864,14.1129032 C24.9262864,14.4304435 25.0527755,14.6774194 25.2073733,14.6774194 C25.361971,14.6774194 25.4884601,14.4304435 25.4884601,14.1129032 C25.4884601,13.7953629 25.361971,13.5483871 25.2073733,13.5483871 Z" id="Path"></path>
            <path d="M28.59447,14.6774194 C28.4398723,14.6774194 28.3133832,14.9243952 28.3133832,15.2419355 C28.3133832,15.5594758 28.4398723,15.8064516 28.59447,15.8064516 C28.7490678,15.8064516 28.8755569,15.5594758 28.8755569,15.2419355 C28.8755569,14.9420363 28.7490678,14.6774194 28.59447,14.6774194 Z" id="Path"></path>
            <path d="M12.7880184,6.77419355 C12.9426162,6.77419355 13.0691053,6.52721774 13.0691053,6.20967742 C13.0691053,5.8921371 12.9426162,5.64516129 12.7880184,5.64516129 C12.6334207,5.64516129 12.5069316,5.8921371 12.5069316,6.20967742 C12.5069316,6.52721774 12.6334207,6.77419355 12.7880184,6.77419355 Z" id="Path"></path>
            <path d="M15.0460829,9.03225806 C15.2006807,9.03225806 15.3271698,8.78528998 15.3271698,8.46775958 C15.3271698,8.1501939 15.2006807,7.90322581 15.0460829,7.90322581 C14.8914852,7.90322581 14.7649961,8.1501939 14.7649961,8.46775958 C14.7649961,8.78528998 14.8914852,9.03225806 15.0460829,9.03225806 Z" id="Path"></path>
            <path d="M18.4331797,10.1612903 C18.5877775,10.1612903 18.7142666,9.91431452 18.7142666,9.59677419 C18.7142666,9.27923387 18.5877775,9.03225806 18.4331797,9.03225806 C18.2785819,9.03225806 18.1520929,9.27923387 18.1520929,9.59677419 C18.1520929,9.91431452 18.2785819,10.1612903 18.4331797,10.1612903 Z" id="Path"></path>
            <path d="M33.6617247,17.2890132 L33.6617247,12.6344295 C33.6617247,11.8725185 33.5207718,11.013637 32.5200067,10.4595199 C31.3782887,9.8222852 25.4159835,6.46983513 24.993125,6.22048244 C24.5843617,5.97112974 23.9641692,5.79104168 23.4285484,5.86030631 C23.2735003,5.32004213 22.9352135,4.91830723 22.3995927,4.61354282 C21.2578747,3.97630814 15.2955695,0.623899633 14.872711,0.374546934 C14.3511854,0.0559295959 13.5195637,-0.15186432 12.8993712,0.139047162 C12.3496551,0.402252789 11.9549871,0.610046705 11.6589862,0.831693549 C11.4052711,1.01178161 10.9824125,1.30269309 10.9824125,2.27239803 L10.9824125,4.77977795 C10.460887,4.77977795 9.9534568,4.97371894 9.64336055,5.153807 C9.19231145,5.41701263 2.59571849,9.1711976 1.52447689,9.75302057 C0.509616436,10.3071377 0.368663594,11.193725 0.368663594,11.969489 L0.368663594,17.7877186 C0.368663594,18.7712765 0.819712686,19.2145702 1.21438064,19.5054817 C1.3412382,19.6024522 1.45400047,19.6578639 1.65133445,19.7686873 C1.73590615,19.8102461 1.84866843,19.8795107 1.97552598,19.9487754 L1.97552598,21.6111267 C1.97552598,21.9713028 2.41247979,22.2483614 3.00448173,22.2483614 C3.59648366,22.2483614 4.03343747,21.9713028 4.03343747,21.6111267 L4.03343747,20.2950986 L21.0323501,29.9644421 C21.173303,30.5324122 21.5115898,30.8510295 21.8075907,31.0726763 C21.9344483,31.1696468 22.0472106,31.2250585 22.2445445,31.335882 C22.2868304,31.3635878 22.3432115,31.3912937 22.3854974,31.4189995 L22.3854974,33.1921743 C22.3854974,33.5662033 22.8365465,33.8709677 23.4144531,33.8709677 C23.9923598,33.8709677 24.4434089,33.5800563 24.4434089,33.1921743 L24.4434089,31.7791757 C24.5561711,31.7376169 24.6830287,31.6822052 24.8098863,31.6129405 C25.4723646,31.2527644 28.5874224,29.4934426 30.8426679,28.2051203 L30.8426679,28.3852084 C30.8426679,28.7592374 31.293717,29.0640018 31.8716236,29.0640018 C32.4495303,29.0640018 32.9005793,28.7730903 32.9005793,28.3852084 L32.9005793,27.0276214 C32.9146746,27.0137685 32.9428652,26.9999156 32.9569605,26.9860627 C34.2396313,26.2380046 34.2396313,25.199035 34.2396313,24.7003296 L34.2396313,18.6327472 C34.1973455,17.8292774 33.9154398,17.4829542 33.6617247,17.2890132 Z M24.7676004,6.56680563 C25.2327448,6.84386418 31.3360028,10.2794318 32.3226727,10.819696 C33.083818,11.2352838 33.2529614,11.8448127 33.2529614,12.6344295 L33.2529614,16.9981018 C32.985151,16.8318666 32.6609595,16.6656315 32.2521963,16.4716905 C31.8998142,16.3054554 31.4910509,16.3054554 31.096383,16.3885729 L31.096383,13.881193 C31.096383,13.1331349 30.9695254,12.3712239 30.053332,11.8725185 C29.0384715,11.3184014 22.8224512,7.78586327 22.3995927,7.53651057 C22.216354,7.42568715 21.9908294,7.32871665 21.7653049,7.27330494 C21.8498766,7.14862859 21.9626389,7.07936395 22.0472106,7.01009932 C22.315021,6.81615833 22.6955936,6.60836441 23.2171192,6.35901171 C23.654073,6.13736487 24.3447419,6.3036 24.7676004,6.56680563 Z M12.9134665,21.3756269 C12.9134665,21.6942443 12.9134665,21.9158911 12.9134665,22.0682733 C12.9134665,22.2483614 12.9134665,22.3591848 12.9134665,22.4977141 C12.3637504,22.6085375 11.8845107,22.3868907 11.4475569,22.137538 C11.2925088,22.0544204 10.3904106,21.5418621 9.26278787,20.8907745 C7.34582923,19.7963932 4.75229696,18.3279828 3.99115161,17.8985421 C3.31457798,17.5106601 3.18772042,17.0812193 3.13133928,16.6656315 C3.117244,16.5409552 3.117244,16.4301317 3.117244,16.2223378 C3.117244,16.0561027 3.13133928,15.8483088 3.117244,15.5158385 C3.117244,15.3080446 3.15952985,15.1141036 3.25819684,14.9340155 C3.39914968,15.0725448 3.56829309,15.1972212 3.76562707,15.3080446 C4.51267713,15.7374853 7.12030469,17.2058957 9.05135861,18.286424 C10.1789813,18.9236587 11.0810795,19.436217 11.2361277,19.5193346 C11.6448909,19.7548344 12.0818447,19.9487754 12.5610844,19.9487754 C12.8852759,19.9487754 13.237658,19.8656578 13.6041354,19.644011 C14.6049006,19.062188 19.2140585,16.4439847 19.6932981,16.194632 C19.932918,16.0699556 20.1866331,15.8621617 20.383967,15.6543678 C20.5108246,15.80675 20.5531105,15.9591322 20.581301,16.0838085 C20.3980623,16.1392202 20.2148236,16.2223378 20.0174897,16.3193083 C18.6502471,17.0673664 14.8163298,19.256129 13.9001364,19.8102461 C13.237658,20.1981281 12.8993712,20.7245393 12.9134665,21.3756269 Z M3.30048269,19.9210695 C3.24410156,19.7409815 3.21591099,19.5331875 3.21591099,19.3115407 L3.21591099,17.8292774 C3.34276854,17.9678067 3.51191195,18.0924831 3.70924593,18.2171594 L3.70924593,19.8102461 C3.58238837,19.8656578 3.44143553,19.9072166 3.30048269,19.9210695 Z M11.4052711,8.72790391 L11.4052711,2.2585451 C11.4052711,1.96763362 11.4475569,1.75983971 11.503938,1.6074575 C11.7294626,1.66286921 11.9549871,1.74598678 12.1382258,1.8568102 C12.5610844,2.1061629 18.7911999,5.63865947 19.7919651,6.19277658 C20.5672057,6.62221734 20.7363491,7.23174616 20.7363491,8.02136304 L20.7363491,14.5045748 C20.7363491,14.7123687 20.7081586,14.9063097 20.6658727,15.0725448 C20.5249199,15.0586919 20.3698718,15.0171331 20.2007284,14.9478685 C20.1584425,14.9201626 20.1302519,14.9063097 20.0879661,14.8786038 C20.0879661,14.8786038 12.8288948,10.7504314 12.4201315,10.5149316 C12.3355598,10.4595199 12.2227975,10.4041082 12.09594,10.3486965 C11.4193663,9.78072642 11.4052711,9.12963882 11.4052711,8.72790391 Z M21.4693039,15.9729851 C21.3283511,15.9591322 21.173303,15.9591322 21.0041595,15.986838 C20.975969,15.8483088 20.9336831,15.6820736 20.8209209,15.5019856 L20.8350161,15.5019856 C20.975969,15.5019856 21.1028265,15.4881326 21.2296841,15.4465739 C21.2860652,15.6266619 21.3565417,15.7928971 21.4693039,15.9729851 Z M11.8845107,10.7088726 C11.9831777,10.7919901 12.1100353,10.8751077 12.2368928,10.9443723 C13.632326,11.775548 18.9039622,14.7262216 19.7778698,15.2110741 C19.8624415,15.2526329 19.932918,15.2941917 20.0174897,15.3218975 C20.1161566,15.3773092 20.1866331,15.4465739 20.2571095,15.5019856 C20.0738708,15.7097795 19.8483462,15.8898675 19.6228217,16.0145439 C19.143582,16.2638966 14.5344241,18.8820999 13.533659,19.4639229 C12.7302278,19.9349224 12.09594,19.7548344 11.3629852,19.3392466 C11.2079371,19.256129 10.3058389,18.7435707 9.17821617,18.106336 C7.24716225,17.0258076 4.63953468,15.5573973 3.89248462,15.1279565 C3.69515065,15.0171331 3.54010252,14.8924568 3.39914968,14.7539275 C3.52600724,14.5876923 3.70924593,14.4353101 3.93477048,14.2967809 C4.85096394,13.7426638 8.68488123,11.5539012 10.0380285,10.819696 C10.8696503,10.3902552 11.4616522,10.5149316 11.8845107,10.7088726 Z M9.84069452,10.4733728 C8.47345196,11.2214309 4.63953468,13.4101935 3.72334122,13.9643106 C3.52600724,14.075134 3.37095911,14.1998104 3.23000627,14.3383396 L3.23000627,13.507164 C3.23000627,12.6621354 3.39914968,12.0110478 4.23077144,11.5539012 C5.00601207,11.1244604 8.85402464,8.94955076 10.9965078,7.73045156 L10.9965078,8.72790391 C10.9965078,9.04652125 10.9965078,9.58678543 11.3488899,10.1409025 C10.9260314,10.0854908 10.4186012,10.1547555 9.84069452,10.4733728 Z M13.3222297,22.0682733 C13.3222297,21.9020382 13.336325,21.6942443 13.3222297,21.361774 C13.3222297,21.1539801 13.3645156,20.9600391 13.4631825,20.779951 C13.6041354,20.9184803 13.7732788,21.0431567 13.9706128,21.1539801 C14.7176628,21.5834208 17.3252904,23.0518312 19.2563443,24.1323595 L20.9477784,25.0882116 L20.9477784,27.5817386 L19.4677736,26.73671 C17.5508149,25.6423287 14.9431874,24.1600654 14.1961373,23.7306246 C13.5195637,23.3427427 13.3927061,22.9133019 13.336325,22.4977141 C13.3222297,22.3868907 13.3222297,22.2760672 13.3222297,22.0682733 Z M20.9477784,23.5366837 L20.9477784,24.8527118 L19.3691066,23.9661244 C17.4380527,22.8855961 14.8445204,21.4171857 14.083375,20.987745 C13.8860411,20.8769215 13.7309929,20.7522452 13.5900401,20.6137159 C13.7168977,20.4474808 13.9001364,20.2950986 14.1256609,20.1565693 C15.0418544,19.6024522 18.8757716,17.4275425 20.2289189,16.6794844 C20.975969,16.2777495 21.5256851,16.3470142 21.9485436,16.4993964 C22.0613059,16.5963669 22.2022587,16.6933374 22.3573068,16.7903079 C22.9493088,17.136631 24.3870277,17.9539538 26.2194147,18.9929234 C24.4293136,20.0041871 22.6251172,21.0293037 22.1035917,21.3202152 C21.0887313,21.8743323 20.9477784,22.7609197 20.9477784,23.5366837 Z M26.7409402,18.7020119 L25.3877929,17.9262479 C23.9923598,17.136631 22.7942606,16.4578376 22.6251172,16.3608671 C22.5123549,16.2916025 22.3714021,16.2084849 22.1881634,16.1392202 C21.5397803,15.5851031 21.5397803,14.9478685 21.5397803,14.5461336 L21.5397803,8.10452217 C21.5397803,7.81356912 21.5820662,7.60577521 21.6384473,7.453393 C21.8639719,7.50880471 22.0894964,7.59192228 22.2727351,7.7027457 C22.6955936,7.9520984 28.9257092,11.4846365 29.9264744,12.0387536 C30.701715,12.4681944 30.8708584,13.0777232 30.8708584,13.8673401 L30.8708584,16.4301317 C30.6312386,16.4993964 30.4198093,16.5963669 30.2365706,16.7071903 C30.0251414,16.8318666 28.4464696,17.7323069 26.7409402,18.7020119 Z M11.9127013,1.16416381 C12.1805117,0.970222826 12.5610844,0.76242891 13.0826099,0.513076211 C13.5195637,0.305282295 14.2102326,0.471517428 14.6471864,0.734723055 C15.1123308,1.02563454 21.2155888,4.44730769 22.2022587,4.98757187 C22.6392125,5.22307164 22.9070229,5.5555419 23.0338805,5.98498266 C22.4841644,6.24818829 22.0894964,6.45598221 21.7934955,6.66377612 C21.5397803,6.84386418 21.1169218,7.13477567 21.1169218,8.10452217 L21.1169218,14.5599865 C21.1169218,14.6846628 21.1169218,14.8647509 21.1451124,15.044839 C21.0605407,15.0725448 20.975969,15.0725448 20.8913973,15.0863977 C20.9336831,14.9063097 20.9618737,14.7262216 20.9618737,14.5184277 L20.9618737,8.03525753 C20.9618737,7.28715787 20.8350161,6.52524685 19.9188227,6.02654145 C18.9039622,5.47242434 12.6879419,1.93992777 12.2650834,1.69057507 C12.0818447,1.57975165 11.8563202,1.48278115 11.6307956,1.42736944 C11.7153673,1.30269309 11.8140343,1.21957553 11.9127013,1.16416381 Z M1.46809576,19.1730114 C1.11571365,18.9236587 0.791522118,18.5773355 0.791522118,17.7877186 L0.791522118,11.969489 C0.791522118,11.1660192 0.946570243,10.5426374 1.73590615,10.1131967 C2.80714775,9.51752079 9.43193128,5.77718875 9.86888509,5.50013019 C10.1366955,5.33389506 10.5736493,5.18151286 10.9824125,5.18151286 L10.9824125,7.48109886 C8.85402464,8.68634513 4.90734508,10.9305194 4.11800917,11.3599602 C3.14543457,11.9002244 3.00448173,12.7036942 3.00448173,13.4933111 L3.00448173,14.5738394 C2.80714775,14.850898 2.70848076,15.1695153 2.70848076,15.5296914 C2.70848076,15.8483088 2.70848076,16.0699556 2.70848076,16.2223378 C2.70848076,16.4301317 2.70848076,16.5548081 2.72257604,16.7071903 C2.75076661,16.9703959 2.82124303,17.2751603 3.01857701,17.5799247 L3.01857701,19.3115407 C3.01857701,19.5331875 3.04676758,19.7409815 3.08905343,19.9349224 C2.87762417,19.9210695 2.68029019,19.8656578 2.4970515,19.7686873 C2.20105053,19.6024522 2.00371655,19.4916288 1.86276371,19.4085112 C1.67952502,19.2976878 1.58085803,19.2422761 1.46809576,19.1730114 Z M3.00448173,21.8327735 C2.60981377,21.8327735 2.39838451,21.6665384 2.39838451,21.6111267 L2.39838451,20.1842751 C2.63800434,20.2950986 2.87762417,20.3643632 3.13133928,20.3643632 C3.28638741,20.3643632 3.44143553,20.3366574 3.59648366,20.3089515 L3.59648366,21.6249796 C3.59648366,21.6665384 3.3850544,21.8327735 3.00448173,21.8327735 Z M4.14619974,19.8795107 L4.14619974,18.4665121 C5.17515548,19.0483351 7.3740198,20.2950986 9.05135861,21.2509506 C10.1789813,21.9020382 11.0810795,22.4145965 11.2361277,22.4977141 C11.6307956,22.7193609 12.09594,22.9410078 12.6174655,22.9410078 C12.7302278,22.9410078 12.8570853,22.9271548 12.9698476,22.9133019 C13.0685146,23.3150368 13.3222297,23.7444776 13.9706128,24.1185066 C14.7176628,24.5479474 17.3252904,26.0302106 19.242249,27.1245919 L20.9336831,28.0942969 L20.9336831,29.3826192 C20.9336831,29.410325 20.9336831,29.4380309 20.9336831,29.4657367 L4.14619974,19.8795107 Z M22.0472106,30.7402061 C21.6948285,30.4908534 21.3706369,30.1445302 21.3706369,29.3549133 L21.3706369,23.5366837 C21.3706369,22.7332138 21.5256851,22.1098321 22.315021,21.6803913 C23.3862626,21.0847154 30.0110461,17.344425 30.4479999,17.0673664 C30.7440009,16.8872783 31.1809547,16.7487491 31.5615274,16.7487491 C31.744766,16.7487491 31.9139095,16.7764549 32.0548623,16.8457196 C32.5904831,17.0950723 32.9710558,17.3167191 33.2670567,17.5106601 C33.4080096,17.6076306 33.577153,17.7323069 33.67582,18.0093655 C33.379819,18.0647772 33.0697228,18.1756006 32.8160076,18.3279828 C32.3649585,18.5911885 25.7683656,22.3453319 24.697124,22.9271548 C23.7245494,23.467419 23.5835965,24.2708888 23.5835965,25.0605057 L23.5835965,30.8787354 C23.5835965,31.1003822 23.6117871,31.3081761 23.654073,31.5021171 C23.4426437,31.4882642 23.2453097,31.4328525 23.062071,31.322029 C22.7660701,31.1557939 22.5687361,31.0449705 22.4277832,30.9618529 C22.2586398,30.8648824 22.1599728,30.8094707 22.0472106,30.7402061 Z M24.0064551,33.1921743 C24.0064551,33.2891448 23.7668352,33.4553799 23.4003578,33.4553799 C23.0338805,33.4553799 22.7942606,33.3029977 22.7942606,33.1921743 L22.7942606,31.6544993 C22.8083559,31.6683522 22.8365465,31.6822052 22.8506418,31.6822052 C23.1184522,31.8345874 23.4003578,31.9177049 23.7104541,31.9177049 C23.8091211,31.9177049 23.8936928,31.903852 23.9923598,31.8899991 L23.9923598,33.1921743 L24.0064551,33.1921743 Z M32.435435,28.3852084 C32.435435,28.4821789 32.1958151,28.648414 31.8293378,28.648414 C31.4628604,28.648414 31.2232405,28.4960318 31.2232405,28.3852084 L31.2232405,27.9696205 C31.6883849,27.7064149 32.0971482,27.4709151 32.4213397,27.2769741 L32.4213397,28.3852084 L32.435435,28.3852084 Z M33.774487,24.7141825 C33.774487,25.199035 33.774487,26.0025048 32.7032454,26.6397395 C31.3219075,27.4570622 25.4864599,30.7679119 24.5843617,31.2527644 C24.3447419,31.3912937 24.1051221,31.4605583 23.8795975,31.4882642 C23.8232164,31.3081761 23.7950258,31.1003822 23.7950258,30.8787354 L23.7950258,25.0605057 C23.7950258,24.2154771 23.9641692,23.5643895 24.795791,23.1072429 C25.8670326,22.511567 32.4777208,18.7712765 32.9287699,18.494218 C33.1542945,18.3556887 33.4502954,18.2448653 33.7322011,18.2033065 C33.7603917,18.3279828 33.774487,18.4665121 33.774487,18.6466002 L33.774487,24.7141825 Z" id="Shape"></path>
            <path d="M22.8789833,23.7096774 C22.9095724,23.7096774 22.9248669,23.6973515 22.9401615,23.6850255 C22.955456,23.6603737 22.955456,23.6233958 22.9095724,23.598744 L20.8142203,22.588017 C20.7836312,22.5756911 20.7377476,22.5756911 20.7071585,22.6126689 C20.6765694,22.6496467 20.6918639,22.6742986 20.7377476,22.6989505 L22.8330997,23.7096774 C22.8483942,23.7096774 22.8636888,23.7096774 22.8789833,23.7096774 Z" id="Path"></path>
            <path d="M19.65255,6.77419355 C19.6693031,6.77419355 19.6860562,6.77419355 19.6860562,6.75960512 L21.7801979,5.78218028 C21.8137042,5.76759185 21.8304573,5.72382655 21.8137042,5.68006126 C21.796951,5.6508844 21.7466916,5.63629597 21.6964322,5.6508844 L19.6022906,6.62830924 C19.5687843,6.64289767 19.5520312,6.68666297 19.5687843,6.73042826 C19.6022906,6.75960512 19.6357968,6.77419355 19.65255,6.77419355 Z" id="Path"></path>
            <path d="M30.9428726,12.4193548 C30.9596257,12.4193548 30.9763788,12.4193548 30.9763788,12.4047664 L33.0705205,11.4273416 C33.1040267,11.4127531 33.1207799,11.3689878 33.1040267,11.3252226 C33.0872736,11.2960457 33.0370142,11.2814573 32.9867548,11.2960457 L30.8926132,12.2734705 C30.8591069,12.288059 30.8423538,12.3318243 30.8591069,12.3755895 C30.87586,12.4047664 30.9093663,12.4193548 30.9428726,12.4193548 Z" id="Path"></path>
            <path d="M2.55570878,12.4193548 C2.58659967,12.4193548 2.60204511,12.4070289 2.61749056,12.394703 C2.632936,12.3700511 2.632936,12.3330733 2.58659967,12.3084214 L0.486019257,11.2976944 C0.455128368,11.2853685 0.408792036,11.2853685 0.377901147,11.3223463 C0.362455703,11.3469982 0.362455703,11.383976 0.408792036,11.4086279 L2.52481789,12.4070289 C2.54026334,12.4070289 2.54026334,12.4193548 2.55570878,12.4193548 Z" id="Path"></path>
        </g>
    </g>
</svg>