<?xml version="1.0" encoding="UTF-8"?>
<svg width="40px" height="40px" viewBox="0 0 40 40" version="1.1" xmlns="http://www.w3.org/2000/svg" xmlns:xlink="http://www.w3.org/1999/xlink">
    <title>Category Icon/category-ottomanka</title>
    <g id="Category-Icon/category-ottomanka" stroke="none" stroke-width="1" fill="none" fill-rule="evenodd">
        <g id="category-ottomanka" transform="translate(0.000000, 1.148603)" fill="#000000" fill-rule="nonzero">
            <path d="M27.9154079,29.7285801 C27.9516616,29.7285801 27.9758308,29.7044109 27.9758308,29.6681571 L27.9637462,27.6983686 C27.9637462,27.6621148 27.939577,27.6379456 27.9033233,27.6379456 C27.8670695,27.6379456 27.8429003,27.6621148 27.8429003,27.6983686 L27.8549849,29.6681571 C27.8549849,29.6923263 27.8791541,29.7285801 27.9154079,29.7285801 Z" id="Path"></path>
            <path d="M10.2839396,17.5110574 C10.2476858,17.5110574 10.2235166,17.5352266 10.2235166,17.5714804 L10.2356012,19.5412689 C10.2356012,19.5775227 10.2597704,19.6016918 10.2960242,19.6016918 C10.3322779,19.6016918 10.3564471,19.5775227 10.3564471,19.5412689 L10.3443625,17.5714804 C10.3443625,17.5352266 10.3201934,17.5110574 10.2839396,17.5110574 Z" id="Path"></path>
            <path d="M18.6344411,35.1908157 C18.6706949,35.1908157 18.694864,35.1666465 18.694864,35.1303927 L18.6827795,33.1606042 C18.6827795,33.1243505 18.6586103,33.1001813 18.6223565,33.1001813 C18.5861027,33.1001813 18.5619335,33.1243505 18.5619335,33.1606042 L18.5740181,35.1303927 C18.5740181,35.1666465 18.6102719,35.1908157 18.6344411,35.1908157 Z" id="Path"></path>
            <path d="M30.8760121,27.1183082 C30.9001813,27.1183082 30.9122659,27.1062236 30.9243505,27.094139 C30.936435,27.0699698 30.936435,27.033716 30.9001813,27.0095468 L29.2445921,26.0186103 C29.220423,26.0065257 29.1841692,26.0065257 29.16,26.0427795 C29.1358308,26.0790332 29.1479154,26.1032024 29.1841692,26.1273716 L30.8397583,27.1183082 C30.8518429,27.1183082 30.8639275,27.1183082 30.8760121,27.1183082 Z" id="Path"></path>
            <path d="M2.32033837,10.5382115 C2.34450755,10.5382115 2.35659215,10.526139 2.36867674,10.5140544 C2.38076133,10.4898852 2.38076133,10.4536314 2.34450755,10.4294622 L0.701005438,9.43852568 C0.676836254,9.42644109 0.640582477,9.42644109 0.616413293,9.46269486 C0.604328701,9.48686405 0.604328701,9.52311782 0.640582477,9.54728701 L2.29616918,10.526139 C2.30825378,10.526139 2.30825378,10.5382115 2.32033837,10.5382115 Z" id="Path"></path>
            <path d="M35.1297885,16.0609063 C35.1418731,16.0609063 35.1539577,16.0609063 35.1539577,16.0488218 L36.6645317,15.2391541 C36.6887009,15.2270695 36.7007855,15.1908157 36.6887009,15.1545619 C36.6766163,15.1303927 36.6403625,15.1183082 36.6041088,15.1303927 L35.0935347,15.9400604 C35.0693656,15.952145 35.057281,15.9883988 35.0693656,16.0246526 C35.0935347,16.0488218 35.1177039,16.0609063 35.1297885,16.0609063 Z" id="Path"></path>
            <path d="M26.247855,10.8282417 C26.2599396,10.8282417 26.2720242,10.8282417 26.2720242,10.8161571 L27.7825982,10.0064894 C27.8067674,9.99440483 27.818852,9.95815106 27.8067674,9.92189728 C27.7946828,9.8977281 27.758429,9.8856435 27.7221752,9.8977281 L26.2236858,10.7194804 C26.1995166,10.731565 26.187432,10.7678187 26.1995166,10.8040725 C26.2116012,10.8161571 26.2357704,10.8282417 26.247855,10.8282417 Z" id="Path"></path>
            <path d="M17.5830816,5.72855589 C17.5951662,5.72855589 17.6072508,5.72855589 17.6072508,5.7164713 L19.1178248,4.90680363 C19.141994,4.89471903 19.1540785,4.85846526 19.141994,4.82221148 C19.1299094,4.7980423 19.0936556,4.7859577 19.0574018,4.7980423 L17.5468278,5.60770997 C17.5226586,5.61979456 17.510574,5.65604834 17.5226586,5.69230211 C17.5347432,5.7164713 17.5589124,5.72855589 17.5830816,5.72855589 Z" id="Path"></path>
            <path d="M39.3353474,21.3177039 C39.081571,21.136435 38.7311178,20.9430816 38.2477341,20.7134743 C37.9697885,20.5805438 37.6193353,20.5684592 37.305136,20.6288822 L37.305136,16.012568 C37.305136,15.3479154 37.18429,14.5986707 36.326284,14.115287 C35.347432,13.5593958 30.2356495,10.6348882 29.8731118,10.4173656 C29.4984894,10.1877583 28.9305136,10.018574 28.4471299,10.1273353 C28.3021148,9.69229003 28.0241692,9.36600604 27.5891239,9.1243142 C26.5981873,8.56842296 21.4984894,5.64395166 21.1359517,5.426429 C20.7854985,5.20890634 20.2537764,5.05180665 19.7945619,5.11222961 C19.6616314,4.64093051 19.3716012,4.29047734 18.9123867,4.02461631 C17.9214502,3.46872508 12.8217523,0.54425861 12.4592145,0.326735952 C12.0120846,0.0487903323 11.2870091,-0.132478792 10.7673716,0.121297885 C10.2960725,0.350905136 9.95770393,0.532174018 9.70392749,0.725527492 C9.48640483,0.88262719 9.12386707,1.13639879 9.12386707,1.98232024 L9.12386707,4.15754683 C8.67673716,4.15754683 8.24169184,4.32673112 7.97583082,4.48383082 C7.58912387,4.71343807 1.93353474,7.98836254 1.01510574,8.49591541 C0.120845921,8.99138369 0,9.76479758 0,10.4415347 L0,15.5170997 C0,16.3751057 0.386706949,16.7618127 0.725075529,17.0155891 C0.833836858,17.1001813 0.942598187,17.1485196 1.09969789,17.2451964 C1.19637462,17.2935347 1.30513595,17.3660423 1.47432024,17.4506344 L1.47432024,18.8041088 C1.47432024,19.1183082 1.8489426,19.36 2.35649547,19.36 C2.86404834,19.36 3.23867069,19.1183082 3.23867069,18.8041088 L3.23867069,17.7648338 L15.6978852,24.9914199 C13.897281,26.0427795 11.5287009,27.4445921 10.9969789,27.7587915 C10.429003,28.1092447 10.1389728,28.5684592 10.1389728,29.1243505 C10.1389728,29.4022961 10.1389728,29.5956495 10.1389728,29.7285801 C10.1389728,29.9098489 10.1389728,30.0186103 10.1510574,30.1515408 C10.1752266,30.3328097 10.2114804,30.5382477 10.3081571,30.7436858 C10.3081571,30.9007855 10.3081571,31.1183082 10.3081571,31.3479154 C10.3081571,31.9642296 10.3081571,32.3509366 10.3081571,32.4355287 C10.3323263,32.6288822 10.3806647,32.8464048 10.5861027,33.0639275 L10.5861027,34.8161934 C10.5861027,35.1424773 10.9728097,35.4083384 11.4682779,35.4083384 C11.9637462,35.4083384 12.3504532,35.1545619 12.3504532,34.8161934 L12.3504532,34.1273716 C13.3897281,34.7195166 14.7794562,35.5170997 15.9274924,36.1696677 C16.7371601,36.6288822 17.4138973,37.0155891 17.7280967,37.196858 L17.7280967,38.6107553 C17.7280967,38.9370393 18.1148036,39.2029003 18.6102719,39.2029003 C19.1057402,39.2029003 19.4924471,38.9491239 19.4924471,38.6107553 L19.4924471,37.2451964 C20.3746224,36.7255589 23.407855,34.9370393 25.1722054,33.9098489 L25.1722054,34.7920242 C25.1722054,35.1183082 25.5589124,35.3841692 26.0543807,35.3841692 C26.5498489,35.3841692 26.9365559,35.1303927 26.9365559,34.7920242 L26.9365559,32.7376435 C27.0332326,32.5926284 27.1057402,32.4355287 27.1178248,32.278429 C27.1299094,32.1575831 27.1299094,31.8675529 27.1299094,31.5291843 L28.6646526,32.4113595 C28.7854985,32.930997 29.0755287,33.2089426 29.3413897,33.4022961 C29.4501511,33.4868882 29.5468278,33.5352266 29.7160121,33.6319033 C29.7522659,33.6560725 29.8006042,33.6802417 29.836858,33.7044109 L29.836858,35.2512387 C29.836858,35.5775227 30.223565,35.8433837 30.7190332,35.8433837 C31.2145015,35.8433837 31.6012085,35.5896073 31.6012085,35.2512387 L31.6012085,34.0186103 C31.6978852,33.9823565 31.8066465,33.9340181 31.9154079,33.8735952 C32.4833837,33.5593958 35.1540785,32.0246526 37.0876133,30.9007855 L37.0876133,31.0578852 C37.0876133,31.3841692 37.4743202,31.6500302 37.9697885,31.6500302 C38.4652568,31.6500302 38.8519637,31.3962538 38.8519637,31.0578852 L38.8519637,29.8735952 C38.8640483,29.8615106 38.8882175,29.849426 38.9003021,29.8373414 C40,29.1847734 40,28.278429 40,27.8433837 L40,22.5503323 C39.9154079,21.7406647 39.5528701,21.4868882 39.3353474,21.3177039 Z M29.6676737,10.7194804 C30.0664653,10.9732568 35.2990937,13.9581873 36.1450151,14.4294864 C36.7975831,14.7920242 36.9425982,15.3237462 36.9425982,16.012568 L36.9425982,20.7255589 C36.7854985,20.7859819 36.652568,20.8464048 36.5317221,20.9189124 C36.4229607,20.9914199 35.8549849,21.3177039 35.0936556,21.7527492 L35.0936556,17.0880967 C35.0936556,16.4355287 34.9848943,15.7708761 34.1993958,15.3358308 C33.3293051,14.8524471 28,11.7708399 27.6374622,11.5533172 C27.4803625,11.4566405 27.2870091,11.3720483 27.0936556,11.32371 C27.1661631,11.2149486 27.2628399,11.1545257 27.3353474,11.0941027 C27.5649547,10.9249184 27.8912387,10.7436495 28.3383686,10.5261269 C28.7129909,10.3569426 29.305136,10.5019577 29.6676737,10.7194804 Z M18.0302115,35.7708761 C17.9577039,35.7225378 17.1117825,35.2391541 16.0362538,34.6228399 C14.0906344,33.5110574 11.4199396,31.9763142 11.021148,31.7467069 C10.8277946,31.6379456 10.7190332,31.5170997 10.6586103,31.3841692 C10.6586103,31.3720846 10.6586103,31.36 10.6586103,31.3479154 C10.6586103,31.299577 10.6586103,31.2633233 10.6586103,31.2270695 C10.7673716,31.3237462 10.8882175,31.420423 11.0453172,31.5050151 C11.6858006,31.8675529 13.8610272,33.136435 15.5045317,34.0790332 C16.5075529,34.6590937 17.305136,35.1183082 17.4380665,35.2029003 C17.7885196,35.4083384 18.1873112,35.5775227 18.6223565,35.5775227 C18.9123867,35.5775227 19.2265861,35.5050151 19.5649547,35.299577 C20.3987915,34.8041088 25.6555891,31.7104532 26.0543807,31.4929305 C26.2839879,31.3720846 26.5256798,31.1787311 26.7190332,30.9370393 C26.7190332,31.0095468 26.7190332,31.094139 26.7190332,31.1787311 C26.6223565,31.36 26.4410876,31.5291843 26.2719033,31.6137764 C26.0422961,31.7346224 19.7220544,35.4566767 19.1057402,35.8192145 C18.7190332,36.0729909 18.3927492,35.9763142 18.0302115,35.7708761 Z M10.5015106,30.1273716 C10.489426,30.0186103 10.489426,29.9219335 10.489426,29.7406647 C10.489426,29.5956495 10.489426,29.4143807 10.489426,29.1243505 C10.489426,28.9430816 10.5256798,28.7738973 10.6102719,28.6167976 C10.7311178,28.7376435 10.8761329,28.8464048 11.0453172,28.9430816 C11.6858006,29.3177039 13.9214502,30.5986707 15.5770393,31.5412689 C16.5438066,32.0971601 17.3172205,32.54429 17.4501511,32.6167976 C17.8006042,32.8222356 18.1752266,32.9914199 18.5861027,32.9914199 C18.8640483,32.9914199 19.1661631,32.9189124 19.4803625,32.7255589 C20.326284,32.218006 25.570997,29.1606042 25.9697885,28.9430816 C26.1752266,28.8343202 26.3806647,28.665136 26.5498489,28.4717825 C26.694864,28.6530514 26.7069486,28.8222356 26.7190332,28.9672508 C26.7432024,29.2331118 26.7432024,29.5593958 26.7069486,30.0065257 L26.694864,30.0065257 C26.694864,30.0186103 26.694864,30.0669486 26.694864,30.115287 C26.6586103,30.5382477 26.2477341,30.9732931 25.8610272,31.1787311 C25.4622356,31.3962538 20.1933535,34.501994 19.3595166,34.9974622 C18.7069486,35.3841692 18.1873112,35.2391541 17.5951662,34.8887009 C17.4622356,34.8161934 16.6646526,34.3448943 15.6616314,33.7648338 C14.0181269,32.8101511 11.8429003,31.5533535 11.2024169,31.1908157 C10.9123867,31.0216314 10.7311178,30.8403625 10.6344411,30.6590937 L10.6344411,30.6470091 L10.6223565,30.6470091 C10.5498489,30.4778248 10.5135952,30.3086405 10.5015106,30.1273716 Z M27.0936556,28.930997 C27.0694864,28.665136 27.021148,28.2300906 26.2960725,27.8071299 C26.2960725,27.8071299 20.8217523,24.6409668 19.8549849,24.0729909 C19.8549849,23.9642296 19.8549849,23.8312991 19.8549849,23.6621148 C19.8549849,23.4808459 19.8912387,23.3116616 19.9758308,23.1545619 C20.0966767,23.2754079 20.2416918,23.3841692 20.4108761,23.4808459 C21.0513595,23.8554683 23.2870091,25.1243505 24.9305136,26.0790332 C25.9093656,26.6349245 26.6827795,27.0820544 26.81571,27.1545619 C27.1661631,27.36 27.5407855,27.5291843 27.9516616,27.5291843 C28.1450151,27.5291843 28.3504532,27.4929305 28.5679758,27.4083384 L28.5679758,29.6439879 C28.0483384,29.8856798 27.6012085,29.7769184 27.1178248,29.523142 C27.1178248,29.2935347 27.1057402,29.1122659 27.0936556,28.930997 Z M19.1178248,23.7346224 L19.1057402,22.6711782 C19.1057402,22.6349245 19.081571,22.6107553 19.0453172,22.6107553 C19.0090634,22.6107553 18.9848943,22.6349245 18.9848943,22.6711782 L18.9969789,23.6983686 C18.6102719,23.6016918 18.102719,23.625861 17.4864048,23.9642296 L17.4743202,23.9763142 L16.6042296,23.4687613 C14.9365559,22.501994 12.5196375,21.1001813 11.8429003,20.7134743 C11.2628399,20.3751057 11.1540785,20.0004834 11.1057402,19.6379456 C11.0936556,19.5291843 11.0936556,19.4325076 11.0936556,19.2512387 C11.0936556,19.1062236 11.0936556,18.9249547 11.0936556,18.6349245 C11.0936556,18.4536556 11.1299094,18.2844713 11.2145015,18.1273716 C11.3353474,18.2482175 11.4803625,18.3569789 11.6495468,18.4536556 C12.2900302,18.8282779 14.5256798,20.1092447 16.1812689,21.0518429 C17.1480363,21.6077341 17.9214502,22.054864 18.0543807,22.1273716 C18.4048338,22.3328097 18.7794562,22.501994 19.1903323,22.501994 C19.4682779,22.501994 19.7703927,22.4294864 20.0845921,22.2361329 C20.9425982,21.7285801 24.8821752,19.4445921 25.305136,19.2270695 C25.510574,19.1183082 25.7280967,18.9370393 25.897281,18.7557704 C25.9818731,18.8645317 26.0302115,18.9612085 26.0543807,19.0578852 C25.897281,19.1062236 25.7401813,19.1666465 25.570997,19.2633233 C24.3987915,19.9158912 21.1117825,21.8252568 20.326284,22.3086405 C19.7583082,22.6590937 19.4682779,23.1183082 19.4682779,23.6741994 C19.4682779,23.7467069 19.4682779,23.8071299 19.4682779,23.8796375 C19.3836858,23.8312991 19.2628399,23.7708761 19.1178248,23.7346224 Z M10.755287,18.6470091 C10.755287,18.9249547 10.755287,19.1183082 10.755287,19.2512387 C10.755287,19.4083384 10.755287,19.5050151 10.755287,19.625861 C10.2839879,19.7225378 9.87311178,19.5291843 9.49848943,19.3116616 C9.36555891,19.2391541 8.59214502,18.7920242 7.62537764,18.2240483 C5.98187311,17.2693656 3.75830816,15.9883988 3.10574018,15.6137764 C2.52567976,15.2754079 2.41691843,14.9007855 2.36858006,14.5382477 C2.35649547,14.4294864 2.35649547,14.3328097 2.35649547,14.1515408 C2.35649547,14.0065257 2.36858006,13.8252568 2.35649547,13.5352266 C2.35649547,13.3539577 2.39274924,13.1847734 2.47734139,13.0276737 C2.59818731,13.1485196 2.74320242,13.257281 2.91238671,13.3539577 C3.55287009,13.7285801 5.78851964,15.0095468 7.44410876,15.952145 C8.41087613,16.5080363 9.18429003,16.9551662 9.31722054,17.0276737 C9.66767372,17.2331118 10.0422961,17.4022961 10.4531722,17.4022961 C10.7311178,17.4022961 11.0332326,17.3297885 11.347432,17.136435 C12.2054381,16.6288822 16.1570997,14.3448943 16.5679758,14.1273716 C16.7734139,14.0186103 16.9909366,13.8373414 17.1601208,13.6560725 C17.2688822,13.789003 17.305136,13.9219335 17.3293051,14.0306949 C17.1722054,14.0790332 17.0151057,14.1515408 16.8459215,14.2361329 C15.673716,14.8887009 12.3867069,16.7980665 11.6012085,17.2814502 C11.0332326,17.6198187 10.7432024,18.0790332 10.755287,18.6470091 Z M9.46223565,7.61374018 L9.46223565,1.97023565 C9.46223565,1.71645921 9.49848943,1.53519033 9.54682779,1.40225982 C9.74018127,1.45059819 9.93353474,1.52310574 10.0906344,1.61978248 C10.4531722,1.83730514 15.7945619,4.91887613 16.652568,5.40225982 C17.3172205,5.77688218 17.4622356,6.30860423 17.4622356,6.99742598 L17.4622356,12.6530514 C17.4622356,12.8343202 17.4380665,12.9914199 17.4018127,13.1485196 C17.2688822,13.136435 17.1359517,13.1001813 17.0030211,13.0397583 C16.9667674,13.0155891 16.9425982,13.0035045 16.9063444,12.9793353 C16.9063444,12.9793353 10.6827795,9.37809063 10.3323263,9.17265257 C10.2598187,9.1243142 10.163142,9.07597583 10.0543807,9.02763746 C9.46223565,8.53216918 9.46223565,7.96419335 9.46223565,7.61374018 Z M18.0906344,13.9340181 C17.9697885,13.9219335 17.836858,13.9219335 17.6918429,13.9461027 C17.6676737,13.8252568 17.6314199,13.6802417 17.5347432,13.523142 L17.5468278,13.523142 C17.6676737,13.523142 17.776435,13.5110574 17.8851964,13.4748036 C17.9335347,13.6319033 17.9939577,13.7769184 18.0906344,13.9340181 Z M26.8640483,18.9612085 C26.7311178,18.9491239 26.5740181,18.9491239 26.4169184,18.9732931 C26.3927492,18.8645317 26.3444109,18.7436858 26.2598187,18.6107553 C26.3927492,18.6107553 26.5256798,18.5865861 26.6465257,18.5382477 C26.7069486,18.6832628 26.7794562,18.8282779 26.8640483,18.9612085 Z M18.5015106,14.3932326 C18.5981873,14.4778248 18.7190332,14.5624169 18.8519637,14.6470091 C20.0483384,15.3720846 24.5679758,17.9461027 25.3172205,18.3690634 C25.4259819,18.4294864 25.5347432,18.4778248 25.6435045,18.5140785 C25.6918429,18.5503323 25.7401813,18.5865861 25.7885196,18.6228399 C25.6314199,18.8041088 25.4380665,18.9612085 25.244713,19.0699698 C24.8338369,19.299577 20.8700906,21.5714804 20.0241692,22.0790332 C19.3353474,22.4899094 18.7915408,22.3328097 18.163142,21.9702719 C18.0302115,21.8977644 17.2567976,21.4506344 16.2900302,20.8947432 C14.6344411,19.952145 12.3987915,18.6711782 11.7583082,18.2965559 C11.5891239,18.1998792 11.4561934,18.0911178 11.3353474,17.9702719 C11.4441088,17.8252568 11.6012085,17.6923263 11.7945619,17.5714804 C12.5800604,17.0880967 15.8670695,15.1908157 17.0271903,14.5382477 C17.6676737,14.1998792 18.1510574,14.2603021 18.5015106,14.3932326 Z M26.1510574,17.7527492 C26.1510574,17.9340181 26.1268882,18.0911178 26.0906344,18.2482175 C26.0060423,18.2361329 25.9093656,18.2119637 25.8126888,18.1877946 C25.7643505,18.1515408 25.7160121,18.115287 25.6555891,18.0911178 C25.6555891,18.0911178 19.4320242,14.4899094 19.081571,14.2844713 C18.9848943,14.2240483 18.8640483,14.1515408 18.7069486,14.0911178 C18.1510574,13.6077341 18.1510574,13.0518429 18.1510574,12.7013897 L18.1510574,7.06993353 C18.1510574,6.8161571 18.1873112,6.63488822 18.2356495,6.5019577 C18.429003,6.55029607 18.6223565,6.62280363 18.7794562,6.71948036 C19.141994,6.93700302 24.4833837,10.018574 25.3413897,10.5019577 C26.0060423,10.8765801 26.1510574,11.4083021 26.1510574,12.0971601 L26.1510574,17.7527492 L26.1510574,17.7527492 Z M9.87311178,9.34183686 C9.95770393,9.41434441 10.0664653,9.48685196 10.1752266,9.54727492 C11.3716012,10.2723505 15.8912387,12.8464048 16.6404834,13.2693656 C16.7129909,13.3056193 16.7734139,13.3418731 16.8459215,13.3660423 C16.9305136,13.4143807 16.9909366,13.4748036 17.0513595,13.523142 C16.8942598,13.7044109 16.7009063,13.8615106 16.5075529,13.9702719 C16.0966767,14.1998792 12.1450151,16.4717825 11.2870091,16.9793353 C10.5981873,17.3902115 10.0543807,17.2331118 9.42598187,16.870574 C9.29305136,16.7980665 8.51963746,16.3509366 7.55287009,15.7950453 C5.89728097,14.8524471 3.66163142,13.5714804 3.02114804,13.196858 C2.85196375,13.1001813 2.71903323,12.9914199 2.59818731,12.870574 C2.70694864,12.7255589 2.86404834,12.5926284 3.05740181,12.4717825 C3.8429003,11.9883988 7.12990937,10.0910816 8.29003021,9.4385136 C9.00302115,9.06389124 9.51057402,9.17265257 9.87311178,9.34183686 Z M8.12084592,9.13639879 C6.94864048,9.78896677 3.66163142,11.6983323 2.87613293,12.1817523 C2.70694864,12.278429 2.57401813,12.3871903 2.45317221,12.5080363 L2.45317221,11.7829245 C2.45317221,11.0457644 2.59818731,10.4777885 3.31117825,10.078997 C3.98791541,9.70437462 7.27492447,7.80709366 9.11178248,6.74364955 L9.11178248,7.61374018 C9.11178248,7.8916858 9.11178248,8.36298489 9.41389728,8.84636858 C9.05135952,8.79803021 8.6163142,8.85845317 8.12084592,9.13639879 Z M2.51359517,17.3781269 C2.4652568,17.2210272 2.44108761,17.0397583 2.44108761,16.8464048 L2.44108761,15.5533535 C2.53776435,15.6621148 2.67069486,15.7708761 2.82779456,15.8675529 L2.82779456,17.2935347 C2.71903323,17.3418731 2.6223565,17.3660423 2.51359517,17.3781269 Z M28.5558912,26.8766163 L28.5558912,27.2149849 C27.9516616,27.4929305 27.4561934,27.3358308 26.8882175,27.0095468 C26.755287,26.9370393 25.9818731,26.4899094 25.0030211,25.9340181 C23.347432,24.9914199 21.1238671,23.7104532 20.4833837,23.3358308 C20.3141994,23.2391541 20.1812689,23.1303927 20.060423,23.0095468 C20.1691843,22.8645317 20.326284,22.7316012 20.5196375,22.6107553 C21.305136,22.1273716 24.592145,20.218006 25.7522659,19.5775227 C26.4773414,19.1787311 26.9969789,19.3116616 27.3595166,19.4808459 C27.4320242,19.5291843 27.5045317,19.5896073 27.5891239,19.6379456 C28.4954683,20.1817523 31.5045317,21.9098489 33.1601208,22.8524471 C31.6012085,23.7467069 29.9939577,24.6772205 29.5347432,24.930997 C28.6767372,25.4264653 28.5558912,26.1998792 28.5558912,26.8766163 Z M33.5589124,22.6349245 L33.0996979,22.3690634 C31.2628399,21.3056193 28.0483384,19.4445921 27.7945619,19.299577 C27.7220544,19.2633233 27.6495468,19.2149849 27.5528701,19.1666465 C26.8882175,18.6590937 26.8882175,18.054864 26.8882175,17.6923263 L26.8882175,12.0609063 C26.8882175,11.8070937 26.9244713,11.6258248 26.9728097,11.4928943 C27.1661631,11.5412326 27.3595166,11.6137402 27.5166163,11.7104169 C27.8791541,11.9279758 33.2205438,15.0095468 34.0785498,15.4929305 C34.7432024,15.8675529 34.8882175,16.3992749 34.8882175,17.0880967 L34.8882175,21.849426 C34.489426,22.1032024 34.0302115,22.3690634 33.5589124,22.6349245 Z M20.918429,5.72854381 C21.3172205,5.97023565 26.5498489,8.9672145 27.3957704,9.4385136 C27.7583082,9.64395166 27.9758308,9.8977281 28.0966767,10.2602659 C27.673716,10.4657039 27.3595166,10.6469728 27.1178248,10.8161571 C26.9003021,10.9732568 26.5377644,11.2270332 26.5377644,12.0729909 L26.5377644,17.7044109 C26.5377644,17.8373414 26.5377644,18.0065257 26.5740181,18.1998792 C26.4773414,18.2361329 26.3806647,18.2482175 26.2839879,18.2603021 C26.3202417,18.1032024 26.3444109,17.9461027 26.3444109,17.7648338 L26.3444109,12.1092447 C26.3444109,11.4566405 26.2356495,10.7919879 25.4501511,10.3569426 C24.592145,9.87355891 19.2507553,6.79198792 18.8882175,6.57446526 C18.7311178,6.47778852 18.5377644,6.39319637 18.3444109,6.34485801 C18.4169184,6.23609668 18.5135952,6.17567372 18.5861027,6.11525076 C18.81571,5.94606647 19.141994,5.76479758 19.5891239,5.54727492 C19.9637462,5.35392145 20.5558912,5.49893656 20.918429,5.72854381 Z M9.89728097,1.01555287 C10.1268882,0.846373414 10.4531722,0.665104532 10.9003021,0.447581873 C11.2749245,0.266312991 11.8670695,0.411328097 12.2416918,0.640935347 C12.6404834,0.88262719 17.8731118,3.87960121 18.7190332,4.3509003 C19.0936556,4.55633837 19.3232628,4.84636858 19.4320242,5.22099094 C18.9607251,5.45059819 18.6223565,5.63186707 18.3685801,5.81313595 C18.1510574,5.97023565 17.7885196,6.22401208 17.7885196,7.06993353 L17.7885196,12.7013897 C17.7885196,12.8101511 17.7885196,12.9672508 17.8126888,13.1243505 C17.7401813,13.1485196 17.6676737,13.1485196 17.5951662,13.1606042 C17.6314199,13.0035045 17.6555891,12.8464048 17.6555891,12.665136 L17.6555891,7.00951057 C17.6555891,6.3569426 17.5468278,5.69229003 16.7613293,5.25724471 C15.8912387,4.77386103 10.5619335,1.69229003 10.1993958,1.47476737 C10.0422961,1.37809063 9.8489426,1.29349849 9.65558912,1.24516012 C9.72809668,1.13639879 9.81268882,1.06389124 9.89728097,1.01555287 Z M0.942598187,16.7255589 C0.640483384,16.5080363 0.362537764,16.2059215 0.362537764,15.5170997 L0.362537764,10.4415347 C0.362537764,9.7406284 0.495468278,9.19682175 1.17220544,8.8221994 C2.09063444,8.30256193 7.77039275,5.03972205 8.14501511,4.79803021 C8.38670695,4.65301511 8.74924471,4.52008459 9.09969789,4.52008459 L9.09969789,6.52612689 C7.28700906,7.5774864 3.90332326,9.52310574 3.21450151,9.90981269 C2.38066465,10.3811118 2.25981873,11.0820181 2.25981873,11.7708399 L2.25981873,12.7134743 C2.09063444,12.9551662 2.0060423,13.2331118 2.0060423,13.5473112 C2.0060423,13.8252568 2.0060423,14.0186103 2.0060423,14.1515408 C2.0060423,14.3328097 2.0060423,14.441571 2.01812689,14.5745015 C2.04229607,14.8041088 2.10271903,15.0578852 2.27190332,15.3237462 L2.27190332,16.8464048 C2.27190332,17.0397583 2.29607251,17.2210272 2.34441088,17.3902115 C2.16314199,17.3781269 1.9939577,17.3297885 1.83685801,17.2331118 C1.58308157,17.0880967 1.41389728,16.9914199 1.29305136,16.9189124 C1.12386707,16.8343202 1.03927492,16.7859819 0.942598187,16.7255589 Z M2.34441088,19.0095468 C2.0060423,19.0095468 1.82477341,18.8645317 1.82477341,18.8161934 L1.82477341,17.6439879 C1.9939577,17.7164955 2.17522659,17.7527492 2.36858006,17.7527492 C2.52567976,17.7527492 2.69486405,17.7285801 2.85196375,17.6681571 L2.85196375,18.8041088 C2.86404834,18.8645317 2.68277946,19.0095468 2.34441088,19.0095468 Z M3.19033233,17.3297885 L3.19033233,16.0729909 C4.04833837,16.5684592 5.96978852,17.6802417 7.43202417,18.5261631 C8.39879154,19.094139 9.17220544,19.5412689 9.30513595,19.6137764 C9.64350453,19.8071299 10.0422961,20.0004834 10.489426,20.0004834 C10.5861027,20.0004834 10.694864,19.9883988 10.7915408,19.9763142 C10.8761329,20.3267674 11.0936556,20.7013897 11.6495468,21.0276737 C12.326284,21.4143807 14.7432024,22.8161934 16.4108761,23.7829607 L17.0996979,24.1817523 C16.8096677,24.3509366 16.4471299,24.5563746 16.0362538,24.7980665 L3.19033233,17.3297885 Z M11.1782477,28.0729909 C11.9274924,27.6137764 16.4833837,24.930997 17.6676737,24.2663444 C18.0181269,24.0729909 18.3202417,24.0004834 18.5861027,24.0004834 C19.0090634,24.0004834 19.3111782,24.1817523 19.5287009,24.3025982 C19.8912387,24.5080363 26.102719,28.1092447 26.102719,28.1092447 C26.2356495,28.1817523 26.3444109,28.2663444 26.429003,28.338852 C26.2719033,28.5201208 26.0785498,28.6772205 25.8851964,28.7738973 C25.4864048,28.9914199 20.2416918,32.0488218 19.3957704,32.5563746 C18.7069486,32.9672508 18.163142,32.8101511 17.5347432,32.4476133 C17.4018127,32.3751057 16.6283988,31.9279758 15.6616314,31.3720846 C14.0060423,30.4294864 11.7703927,29.1485196 11.1299094,28.7738973 C10.9607251,28.6772205 10.8277946,28.5684592 10.7069486,28.4476133 C10.8277946,28.3267674 10.9728097,28.1938369 11.1782477,28.0729909 Z M11.9637462,34.8282779 C11.9637462,34.9128701 11.7583082,35.0578852 11.4441088,35.0578852 C11.1299094,35.0578852 10.9244713,34.9249547 10.9244713,34.8282779 L10.9244713,33.3418731 C11.0936556,33.4385498 11.4682779,33.6560725 11.9516616,33.9340181 L11.9516616,34.8282779 L11.9637462,34.8282779 Z M11.0694864,33.0035045 C10.7311178,32.8101511 10.6827795,32.5926284 10.6586103,32.4113595 C10.6465257,32.3509366 10.6465257,32.0367372 10.6586103,31.6983686 C10.7311178,31.7708761 10.81571,31.8433837 10.9365559,31.9038066 C11.3353474,32.1334139 14.0060423,33.6560725 15.9516616,34.7799396 C17.0271903,35.3962538 17.8610272,35.8796375 17.9456193,35.9158912 C18.1389728,36.0246526 18.3444109,36.1213293 18.5740181,36.1454985 L18.5861027,37.1243505 C18.5861027,37.1606042 18.6102719,37.1847734 18.6465257,37.1847734 C18.6827795,37.1847734 18.7069486,37.1606042 18.7069486,37.1243505 L18.694864,36.1575831 C18.8519637,36.1454985 19.0332326,36.1092447 19.2145015,35.9883988 C19.8187311,35.625861 26.1389728,31.9158912 26.3685801,31.7950453 C26.489426,31.7346224 26.6102719,31.625861 26.7190332,31.5170997 C26.7190332,31.8675529 26.7069486,32.1817523 26.7069486,32.3025982 C26.694864,32.5201208 26.4531722,32.7738973 26.2356495,32.8947432 C25.9818731,33.0397583 19.4561934,36.870574 19.0694864,37.1001813 C18.7069486,37.3177039 18.4169184,37.2331118 18.0785498,37.0397583 C18.0060423,36.9914199 17.1601208,36.5080363 16.0845921,35.8917221 C14.1389728,34.767855 11.4682779,33.2331118 11.0694864,33.0035045 Z M18.5861027,38.8645317 C18.2719033,38.8645317 18.0664653,38.7316012 18.0664653,38.6349245 L18.0664653,37.4264653 C18.2477341,37.5110574 18.4410876,37.5714804 18.6465257,37.5714804 C18.7915408,37.5714804 18.9365559,37.5473112 19.0936556,37.4748036 L19.0936556,38.6349245 C19.0936556,38.7316012 18.8882175,38.8645317 18.5861027,38.8645317 Z M26.0060423,35.0578852 C25.6918429,35.0578852 25.4864048,34.9249547 25.4864048,34.8282779 L25.4864048,33.7285801 C26.0060423,33.4264653 26.3564955,33.2210272 26.4048338,33.196858 C26.4410876,33.1726888 26.4773414,33.1606042 26.5135952,33.1243505 L26.5135952,34.8282779 C26.5256798,34.9249547 26.3202417,35.0578852 26.0060423,35.0578852 Z M27.081571,31.1545619 C27.081571,30.7557704 27.081571,30.3569789 27.0694864,30.1394562 C27.0694864,30.0669486 27.081571,29.9823565 27.081571,29.9219335 C27.347432,30.054864 27.6495468,30.1394562 27.9637462,30.1394562 C28.1450151,30.1394562 28.3383686,30.1032024 28.5438066,30.0306949 L28.5438066,31.952145 C28.5438066,31.9763142 28.5438066,31.9883988 28.5438066,32.012568 L27.081571,31.1545619 Z M29.4984894,33.1606042 C29.1963746,32.9430816 28.918429,32.6409668 28.918429,31.952145 L28.918429,26.8766163 C28.918429,26.17571 29.0513595,25.6319033 29.7280967,25.257281 C30.6465257,24.7376435 36.326284,21.4748036 36.7009063,21.2331118 C36.9546828,21.0760121 37.3293051,20.9551662 37.6555891,20.9551662 C37.8126888,20.9551662 37.9577039,20.9793353 38.0785498,21.0397583 C38.5377644,21.257281 38.8640483,21.4506344 39.1178248,21.6198187 C39.2386707,21.7044109 39.3836858,21.8131722 39.4682779,22.054864 C39.2145015,22.1032024 38.9486405,22.1998792 38.7311178,22.3328097 C38.3444109,22.5624169 32.6888218,25.8373414 31.7703927,26.3448943 C30.9365559,26.8161934 30.81571,27.5170997 30.81571,28.2059215 L30.81571,33.2814502 C30.81571,33.4748036 30.8398792,33.6560725 30.8761329,33.8252568 C30.694864,33.8131722 30.5256798,33.7648338 30.3685801,33.6681571 C30.1148036,33.523142 29.9456193,33.4264653 29.8247734,33.3539577 C29.6797583,33.2693656 29.5951662,33.2210272 29.4984894,33.1606042 Z M31.1782477,35.299577 C31.1782477,35.3841692 30.9728097,35.5291843 30.6586103,35.5291843 C30.3444109,35.5291843 30.1389728,35.3962538 30.1389728,35.299577 L30.1389728,33.9581873 C30.1510574,33.9702719 30.1752266,33.9823565 30.1873112,33.9823565 C30.4169184,34.115287 30.6586103,34.1877946 30.9244713,34.1877946 C31.0090634,34.1877946 31.081571,34.17571 31.1661631,34.1636254 L31.1661631,35.299577 L31.1782477,35.299577 Z M38.4048338,31.1062236 C38.4048338,31.1908157 38.1993958,31.3358308 37.8851964,31.3358308 C37.570997,31.3358308 37.3655589,31.2029003 37.3655589,31.1062236 L37.3655589,30.7436858 C37.7643505,30.5140785 38.1148036,30.3086405 38.3927492,30.1394562 L38.3927492,31.1062236 L38.4048338,31.1062236 Z M39.5528701,27.9038066 C39.5528701,28.3267674 39.5528701,29.0276737 38.6344411,29.583565 C37.4501511,30.2965559 32.4471299,33.1847734 31.673716,33.6077341 C31.4682779,33.7285801 31.2628399,33.789003 31.0694864,33.8131722 C31.021148,33.6560725 30.9969789,33.4748036 30.9969789,33.2814502 L30.9969789,28.2059215 C30.9969789,27.4687613 31.141994,26.9007855 31.8549849,26.501994 C32.7734139,25.9823565 38.4410876,22.7195166 38.8277946,22.4778248 C39.021148,22.3569789 39.2749245,22.2603021 39.5166163,22.2240483 C39.5407855,22.3328097 39.5528701,22.4536556 39.5528701,22.6107553 L39.5528701,27.9038066 L39.5528701,27.9038066 Z" id="Shape"></path>
            <path d="M19.7703927,10.4777764 C19.6374622,10.4777764 19.5287009,10.6469607 19.5287009,10.8644834 C19.5287009,11.082006 19.6374622,11.2511903 19.7703927,11.2511903 C19.9033233,11.2511903 20.0120846,11.082006 20.0120846,10.8644834 C20.0120846,10.6469607 19.9033233,10.4777764 19.7703927,10.4777764 Z" id="Path"></path>
            <path d="M22.018006,11.8070816 C21.8850755,11.8070816 21.7763142,11.9763142 21.7763142,12.1938369 C21.7763142,12.4113595 21.8850755,12.5805438 22.018006,12.5805438 C22.1509366,12.5805438 22.2596979,12.4113595 22.2596979,12.1938369 C22.2596979,11.9763142 22.1509366,11.8070816 22.018006,11.8070816 Z" id="Path"></path>
            <path d="M24.3504532,13.1606042 C24.2175227,13.1606042 24.1087613,13.3297885 24.1087613,13.5473112 C24.1087613,13.7648338 24.2175227,13.9340181 24.3504532,13.9340181 C24.4833837,13.9340181 24.592145,13.7648338 24.592145,13.5473112 C24.592145,13.3418731 24.4833837,13.1606042 24.3504532,13.1606042 Z" id="Path"></path>
            <path d="M28.5196375,15.4808459 C28.3867069,15.4808459 28.2779456,15.6500302 28.2779456,15.8675529 C28.2779456,16.0850755 28.3867069,16.2542598 28.5196375,16.2542598 C28.652568,16.2542598 28.7613293,16.0850755 28.7613293,15.8675529 C28.7613293,15.6500302 28.652568,15.4808459 28.5196375,15.4808459 Z" id="Path"></path>
            <path d="M30.7673716,16.7980665 C30.6344411,16.7980665 30.5256798,16.9672508 30.5256798,17.1847734 C30.5256798,17.4022961 30.6344411,17.5714804 30.7673716,17.5714804 C30.9003021,17.5714804 31.0090634,17.4022961 31.0090634,17.1847734 C31.0090634,16.9672508 30.9003021,16.7980665 30.7673716,16.7980665 Z" id="Path"></path>
            <path d="M33.0996979,18.1636254 C32.9667674,18.1636254 32.858006,18.3328097 32.858006,18.5503323 C32.858006,18.767855 32.9667674,18.9370393 33.0996979,18.9370393 C33.2326284,18.9370393 33.3413897,18.767855 33.3413897,18.5503323 C33.3413897,18.3328097 33.2326284,18.1636254 33.0996979,18.1636254 Z" id="Path"></path>
            <path d="M11.0814743,6.16360121 C11.2144048,6.16360121 11.3231662,5.99441692 11.3231662,5.77689426 C11.3231662,5.5593716 11.2144048,5.39018731 11.0814743,5.39018731 C10.9485438,5.39018731 10.8397825,5.5593716 10.8397825,5.77689426 C10.8397825,5.99441692 10.9485438,6.16360121 11.0814743,6.16360121 Z" id="Path"></path>
            <path d="M13.329426,7.49290634 C13.4623565,7.49290634 13.5711178,7.32372205 13.5711178,7.1061994 C13.5711178,6.88867674 13.4623565,6.71949245 13.329426,6.71949245 C13.1964955,6.71949245 13.0877341,6.88867674 13.0877341,7.1061994 C13.0877341,7.32372205 13.1964955,7.49290634 13.329426,7.49290634 Z" id="Path"></path>
            <path d="M15.6735952,8.84636858 C15.8065257,8.84636858 15.915287,8.67718429 15.915287,8.45966163 C15.915287,8.24213897 15.8065257,8.07295468 15.6735952,8.07295468 C15.5406647,8.07295468 15.4319033,8.24213897 15.4319033,8.45966163 C15.4319033,8.67718429 15.5406647,8.84636858 15.6735952,8.84636858 Z" id="Path"></path>
        </g>
    </g>
</svg>