<?xml version="1.0" encoding="UTF-8"?>
<svg width="40px" height="40px" viewBox="0 0 40 40" version="1.1" xmlns="http://www.w3.org/2000/svg" xmlns:xlink="http://www.w3.org/1999/xlink">
    <title>Category Icon/category-p</title>
    <g id="Category-Icon/category-p" stroke="none" stroke-width="1" fill="none" fill-rule="evenodd">
        <g id="category-p" transform="translate(0.000000, 4.000000)" fill="#000000" fill-rule="nonzero">
            <path d="M15.5690867,5.17130679 C15.6721311,5.17130679 15.7564403,5.04015925 15.7564403,4.87154098 C15.7564403,4.70292272 15.6721311,4.57177518 15.5690867,4.57177518 C15.4660422,4.57177518 15.381733,4.70292272 15.381733,4.87154098 C15.381733,5.03079157 15.4660422,5.17130679 15.5690867,5.17130679 Z" id="Path"></path>
            <path d="M13.8266979,6.19237471 C13.9297424,6.19237471 14.0140515,6.06122717 14.0140515,5.8926089 C14.0140515,5.72399063 13.9297424,5.59284309 13.8266979,5.59284309 C13.7236534,5.59284309 13.6393443,5.72399063 13.6393443,5.8926089 C13.6393443,6.06122717 13.7236534,6.19237471 13.8266979,6.19237471 Z" id="Path"></path>
            <path d="M12.0187354,7.25095082 C12.1217799,7.25095082 12.206089,7.11980328 12.206089,6.95118501 C12.206089,6.78256674 12.1217799,6.6514192 12.0187354,6.6514192 C11.9156909,6.6514192 11.8313817,6.78256674 11.8313817,6.95118501 C11.8313817,7.11980328 11.9156909,7.25095082 12.0187354,7.25095082 Z" id="Path"></path>
            <path d="M9.40515222,4.14088056 L10.5761124,4.76851522 C10.5854801,4.76851522 10.5948478,4.7778829 10.5948478,4.7778829 C10.6135831,4.7778829 10.6323185,4.76851522 10.6323185,4.74977986 C10.6416862,4.7310445 10.6323185,4.70294145 10.6135831,4.68420609 L9.44262295,4.05657143 C9.42388759,4.04720375 9.39578454,4.05657143 9.37704918,4.07530679 C9.37704918,4.09404215 9.38641686,4.1221452 9.40515222,4.14088056 Z" id="Path"></path>
            <path d="M30.5948478,24.0472131 C30.6229508,24.0472131 30.6416862,24.0284778 30.6416862,24.0003747 L30.6323185,22.4734426 C30.6323185,22.4453396 30.6135831,22.4266042 30.5854801,22.4266042 C30.557377,22.4266042 30.5386417,22.4453396 30.5386417,22.4734426 L30.5480094,24.0003747 C30.5480094,24.0191101 30.5667447,24.0472131 30.5948478,24.0472131 Z" id="Path"></path>
            <path d="M17.030445,14.5390164 C17.0023419,14.5390164 16.9836066,14.5577518 16.9836066,14.5858548 L16.9929742,16.1127869 C16.9929742,16.1408899 17.0117096,16.1596253 17.0398126,16.1596253 C17.0679157,16.1596253 17.0866511,16.1408899 17.0866511,16.1127869 L17.0772834,14.5858548 C17.0772834,14.5671194 17.058548,14.5390164 17.030445,14.5390164 Z" id="Path"></path>
            <path d="M23.4004684,28.2814052 C23.4285714,28.2814052 23.4473068,28.2626698 23.4473068,28.2345667 L23.4379391,26.7076347 C23.4379391,26.6795316 23.4192037,26.6607963 23.3911007,26.6607963 C23.3629977,26.6607963 23.3442623,26.6795316 23.3442623,26.7076347 L23.35363,28.2345667 C23.35363,28.2626698 23.381733,28.2814052 23.4004684,28.2814052 Z" id="Path"></path>
            <path d="M32.8899297,22.0237939 C32.9086651,22.0237939 32.9180328,22.0144262 32.9274005,22.0050585 C32.9367681,21.9863232 32.9367681,21.9582201 32.9086651,21.9394848 L31.6252927,21.1713349 C31.6065574,21.1619672 31.5784543,21.1619672 31.559719,21.1900703 C31.5409836,21.2181733 31.5503513,21.2369087 31.5784543,21.255644 L32.8618267,22.0237939 C32.8711944,22.0237939 32.8805621,22.0237939 32.8899297,22.0237939 Z" id="Path"></path>
            <path d="M36.1873536,13.4522717 C36.1967213,13.4522717 36.206089,13.4522717 36.206089,13.442904 L37.3770492,12.8152693 C37.3957845,12.8059016 37.4051522,12.7777986 37.3957845,12.7496956 C37.3864169,12.7309602 37.3583138,12.7215925 37.3302108,12.7309602 L36.1592506,13.3585948 C36.1405152,13.3679625 36.1311475,13.3960656 36.1405152,13.4241686 C36.1592506,13.442904 36.1779859,13.4522717 36.1873536,13.4522717 Z" id="Path"></path>
            <path d="M29.3021077,9.39615925 C29.3114754,9.39615925 29.3208431,9.39615925 29.3208431,9.38679157 L30.4918033,8.75912881 C30.5105386,8.74976112 30.5199063,8.72165808 30.5105386,8.69355504 C30.501171,8.67481967 30.4730679,8.66545199 30.4449649,8.67481967 L29.2740047,9.30248244 C29.2552693,9.31185012 29.2459016,9.33995316 29.2552693,9.36805621 C29.2740047,9.38679157 29.29274,9.39615925 29.3021077,9.39615925 Z" id="Path"></path>
            <path d="M22.5854801,5.44299766 C22.5948478,5.44299766 22.6042155,5.44299766 22.6042155,5.43362998 L23.7751756,4.80599532 C23.793911,4.79662763 23.8032787,4.76852459 23.793911,4.74042155 C23.7845433,4.72168618 23.7564403,4.7123185 23.7283372,4.72168618 L22.557377,5.34932084 C22.5386417,5.35868852 22.529274,5.38679157 22.5386417,5.41489461 C22.5480094,5.43362998 22.5667447,5.44299766 22.5854801,5.44299766 Z" id="Path"></path>
            <path d="M39.4473068,17.5273068 C39.2505855,17.3867916 38.9789227,17.2369087 38.6042155,17.0589227 C38.3887588,16.9558782 38.117096,16.9465105 37.8735363,16.9933489 L37.8735363,13.4148946 C37.8735363,12.8996721 37.7798595,12.3188759 37.1147541,11.9441686 C36.3559719,11.5132553 32.3934426,9.24627635 32.1124122,9.07762998 C31.8220141,8.89964403 31.381733,8.76849649 31.0070258,8.85280562 C30.8946136,8.51556909 30.6791569,8.26264169 30.3419204,8.07528806 C29.5737705,7.64437471 25.6206089,5.37739578 25.3395785,5.20877752 C25.0679157,5.04015925 24.6557377,4.91837939 24.2997658,4.9652178 C24.1967213,4.59987822 23.971897,4.32821546 23.6159251,4.12212646 C22.8571429,3.69121311 18.8946136,1.42423419 18.6135831,1.25561593 C18.3793911,1.1151007 18.0421546,1.00268852 17.7330211,1.00268852 C17.6393443,0.749761124 17.4800937,0.637352693 17.3676815,0.55304356 C17.1709602,0.412528337 16.9086651,0.262645433 16.5433255,0.0940271663 C16.1405152,-0.102694333 15.5784543,0.0378210773 15.2318501,0.253277752 C14.9320843,0.440631382 10.1545667,3.16662295 9.53629977,3.51322717 C9.18032787,3.70994848 8.96487119,3.98161124 8.85245902,4.33758314 C8.49648712,4.28137705 8.08430913,4.40315691 7.81264637,4.57177518 C7.53161593,4.74976112 3.56908665,7.01674005 2.81030445,7.43828571 C2.14519906,7.81299297 2.05152225,8.39378923 2.05152225,8.90901171 L2.05152225,12.4874941 C1.79859485,12.4406557 1.53629977,12.4500234 1.32084309,12.5530679 C0.946135831,12.7310539 0.683840749,12.8809368 0.477751756,13.0308197 C0.281030445,13.1525995 0,13.3586885 0,14.0237939 L0,18.1268384 C0,18.4640749 0,19.1572834 0.852459016,19.6725059 C0.861826698,19.6818735 0.880562061,19.6912412 0.889929742,19.7006089 L0.889929742,20.6186417 C0.889929742,20.8715691 1.18969555,21.0776581 1.57377049,21.0776581 C1.95784543,21.0776581 2.25761124,20.8809368 2.25761124,20.6186417 L2.25761124,20.4968618 C4.09367681,21.5647775 6.96955504,23.2322248 7.43793911,23.4851522 C7.52224824,23.5319906 7.5971897,23.5694614 7.68149883,23.5975644 L7.68149883,24.5530679 C7.68149883,24.8059953 7.98126464,25.0120843 8.36533958,25.0120843 C8.74941452,25.0120843 9.04918033,24.815363 9.04918033,24.5530679 L9.04918033,23.3540047 C9.08665105,23.3352693 9.1147541,23.316534 9.14285714,23.2977986 C9.264637,23.2322248 9.34894614,23.1853864 9.43325527,23.1198126 C9.67681499,22.9418267 9.94847775,22.6701639 9.98594848,22.1268384 L16.3653396,18.4734426 L16.3653396,19.4945199 C16.3653396,19.7474473 16.6651054,19.9535363 17.0491803,19.9535363 C17.4332553,19.9535363 17.7330211,19.756815 17.7330211,19.4945199 L17.7330211,18.4453396 L21.1334895,20.3844496 C19.7377049,21.1994379 17.9016393,22.286089 17.4894614,22.5296487 C17.0491803,22.8013115 16.824356,23.1572834 16.824356,23.5881967 C16.824356,23.8036534 16.824356,23.9535363 16.824356,24.0565808 C16.824356,24.197096 16.824356,24.2814052 16.8337237,24.3844496 C16.852459,24.5249649 16.8805621,24.6842155 16.9555035,24.843466 C16.9555035,24.9652459 16.9555035,25.1338642 16.9555035,25.3118501 C16.9555035,25.7896019 16.9555035,26.0893677 16.9555035,26.1549415 C16.9742389,26.3048244 17.0117096,26.4734426 17.1709602,26.6420609 L17.1709602,28.0097424 C17.1709602,28.2626698 17.470726,28.4687588 17.8548009,28.4687588 C18.2388759,28.4687588 18.5386417,28.2720375 18.5386417,28.0097424 L18.5386417,27.4757845 C19.3161593,27.9254333 20.3466042,28.5155972 21.1990632,29.0027166 C21.8735363,29.3867916 22.4449649,29.7146604 22.70726,29.8645433 L22.70726,30.9605621 C22.70726,31.2134895 23.0070258,31.4195785 23.3911007,31.4195785 C23.7751756,31.4195785 24.0749415,31.2228571 24.0749415,30.9605621 L24.0749415,29.9020141 C24.7587822,29.4992037 27.1100703,28.1127869 28.4777518,27.316534 L28.4777518,28.0003747 C28.4777518,28.2533021 28.7775176,28.4593911 29.1615925,28.4593911 C29.5456674,28.4593911 29.8454333,28.2626698 29.8454333,28.0003747 L29.8454333,26.4078689 C29.9203747,26.2954567 29.9765808,26.1736768 29.9859485,26.051897 C29.9953162,25.9582201 29.9953162,25.7333958 29.9953162,25.4711007 L31.1850117,26.1549415 C31.2786885,26.5577518 31.5035129,26.7732084 31.7096019,26.9230913 C31.793911,26.9886651 31.8688525,27.0261358 32,27.1010773 C32.028103,27.1198126 32.0655738,27.138548 32.0936768,27.1572834 L32.0936768,28.3563466 C32.0936768,28.609274 32.3934426,28.815363 32.7775176,28.815363 C33.1615925,28.815363 33.4613583,28.6186417 33.4613583,28.3563466 L33.4613583,27.4008431 C33.5362998,27.37274 33.6206089,27.3352693 33.704918,27.2884309 C34.1451991,27.0448712 36.2154567,25.8551756 37.7142857,24.9839813 L37.7142857,25.1057611 C37.7142857,25.3586885 38.0140515,25.5647775 38.3981265,25.5647775 C38.7822014,25.5647775 39.0819672,25.3680562 39.0819672,25.1057611 L39.0819672,24.1877283 C39.0913349,24.1783607 39.1100703,24.168993 39.1194379,24.1596253 C39.971897,23.6537705 39.971897,22.9511944 39.971897,22.6139578 L39.971897,18.5109133 C39.8969555,17.8551756 39.6159251,17.6584543 39.4473068,17.5273068 Z M31.9531616,9.3212178 C32.2622951,9.50857143 36.3185012,11.8317564 36.9742389,12.197096 C37.4800937,12.4781265 37.5925059,12.8903044 37.5925059,13.4242623 L37.5925059,17.0776581 C37.470726,17.1244965 37.3676815,17.1713349 37.2740047,17.227541 C37.1896956,17.2837471 36.7494145,17.5366745 36.1592506,17.873911 L36.1592506,14.2579859 C36.1592506,13.7521311 36.0749415,13.2369087 35.4660422,12.8996721 C34.7915691,12.5249649 30.6604215,10.1362061 30.3793911,9.96758782 C30.2576112,9.89264637 30.1077283,9.8270726 29.9578454,9.78960187 C30.0140515,9.70529274 30.088993,9.65845433 30.1451991,9.61161593 C30.323185,9.48046838 30.5761124,9.33995316 30.9227166,9.17130679 C31.2131148,9.03079157 31.6721311,9.14320375 31.9531616,9.3212178 Z M22.9320843,28.7310539 C22.8665105,28.6935831 22.1639344,28.2907728 21.2740047,27.784918 C19.8032787,26.9418267 17.7985948,25.7896019 17.498829,25.6209836 C17.3489461,25.5366745 17.264637,25.4429977 17.2177986,25.3399532 C17.2177986,25.3305855 17.2177986,25.3212178 17.2177986,25.3118501 C17.2177986,25.2743794 17.2177986,25.2462763 17.2177986,25.2181733 C17.3021077,25.2931148 17.3957845,25.3680562 17.5175644,25.43363 C18.0046838,25.7146604 19.6346604,26.6607963 20.8992974,27.3914754 C21.704918,27.8598595 22.3606557,28.2345667 22.4730679,28.3001405 C22.7447307,28.4593911 23.0538642,28.5905386 23.3911007,28.5905386 C23.6159251,28.5905386 23.8594848,28.5343326 24.1217799,28.375082 C24.7681499,27.991007 28.8430913,25.5928806 29.1522248,25.4242623 C29.3302108,25.3305855 29.5175644,25.1807026 29.6674473,24.9933489 C29.6674473,25.049555 29.6674473,25.1151288 29.6674473,25.1807026 C29.5925059,25.3212178 29.4519906,25.4523653 29.3208431,25.5179391 C29.1428571,25.6116159 24.2435597,28.4968618 23.765808,28.7778923 C23.4660422,28.9652459 23.2131148,28.8903044 22.9320843,28.7310539 Z M17.0960187,24.3563466 C17.0866511,24.2720375 17.0866511,24.197096 17.0866511,24.0565808 C17.0866511,23.9441686 17.0960187,23.8036534 17.0866511,23.578829 C17.0866511,23.4383138 17.1147541,23.3071663 17.1803279,23.1853864 C17.2740047,23.2790632 17.3864169,23.3633724 17.5175644,23.4383138 C18.0140515,23.7287119 19.7470726,24.7216862 21.030445,25.4523653 C21.7798595,25.8832787 22.3793911,26.2298829 22.4824356,26.286089 C22.7540984,26.4453396 23.0444965,26.5764871 23.3629977,26.5764871 C23.5784543,26.5764871 23.8126464,26.520281 24.0562061,26.3703981 C24.7119438,25.9863232 28.7681499,23.6069321 29.0866511,23.4383138 C29.2459016,23.3540047 29.4051522,23.2228571 29.5362998,23.0729742 C29.6487119,23.2134895 29.6580796,23.344637 29.6674473,23.4570492 C29.6861827,23.6631382 29.6861827,23.9160656 29.6580796,24.2626698 L29.6487119,24.2626698 C29.6487119,24.2720375 29.6487119,24.3095082 29.6487119,24.3469789 C29.6206089,24.6748478 29.3021077,25.0120843 29.0023419,25.1713349 C28.6932084,25.3399532 24.6088993,27.7474473 23.9625293,28.1315222 C23.4566745,28.4312881 23.0538642,28.3188759 22.5948478,28.0472131 C22.4824356,27.9816393 21.8266979,27.6069321 21.0210773,27.138548 C19.7564403,26.4078689 18.1264637,25.461733 17.6393443,25.1807026 C17.4145199,25.049555 17.2740047,24.9090398 17.1990632,24.7685246 L17.1990632,24.7591569 L17.1896956,24.7591569 C17.1334895,24.637377 17.1053864,24.4968618 17.0960187,24.3563466 Z M29.9578454,23.4289461 C29.9391101,23.2228571 29.9016393,22.8856206 29.3395785,22.5577518 C29.3395785,22.5577518 25.0960187,20.1034192 24.3466042,19.6631382 C24.3466042,19.578829 24.3466042,19.4757845 24.3466042,19.344637 C24.3466042,19.2041218 24.3747073,19.0729742 24.440281,18.9511944 C24.5339578,19.0448712 24.64637,19.1291803 24.7775176,19.2041218 C25.2740047,19.4945199 27.0070258,20.4781265 28.2810304,21.2181733 C29.0398126,21.6490867 29.6393443,21.9956909 29.7423888,22.051897 C30.0140515,22.2111475 30.3044496,22.3422951 30.6229508,22.3422951 C30.7728337,22.3422951 30.9320843,22.314192 31.1007026,22.2486183 L31.1007026,23.9816393 C30.6978923,24.168993 30.3512881,24.0846838 29.9765808,23.8879625 C29.9765808,23.7099766 29.9672131,23.5694614 29.9578454,23.4289461 Z M23.7751756,19.4008431 L23.765808,18.5764871 C23.765808,18.5483841 23.7470726,18.5296487 23.7189696,18.5296487 C23.6908665,18.5296487 23.6721311,18.5483841 23.6721311,18.5764871 L23.6814988,19.37274 C23.381733,19.2977986 22.9882904,19.316534 22.5105386,19.578829 L22.501171,19.5881967 L21.5737705,19.0542389 C20.2997658,18.314192 18.6323185,17.3493208 18.1358314,17.0682904 C17.6861827,16.8059953 17.6018735,16.5155972 17.5644028,16.2345667 C17.5550351,16.1502576 17.5550351,16.0753162 17.5550351,15.9348009 C17.5550351,15.8223888 17.5644028,15.6818735 17.5550351,15.4570492 C17.5550351,15.316534 17.5831382,15.1853864 17.6487119,15.0636066 C17.7423888,15.1572834 17.8548009,15.2415925 17.9859485,15.316534 C18.4824356,15.6069321 20.2154567,16.5999063 21.498829,17.3305855 C22.2482436,17.7614988 22.8477752,18.108103 22.9508197,18.1643091 C23.2224824,18.3235597 23.5128806,18.4547073 23.8313817,18.4547073 C24.0468384,18.4547073 24.2810304,18.3985012 24.5245902,18.2486183 C25.1896956,17.8551756 28.2435597,16.0846838 28.5714286,15.9160656 C28.7306792,15.8317564 28.8992974,15.6912412 29.030445,15.550726 C29.0960187,15.6350351 29.1334895,15.7099766 29.1522248,15.784918 C29.030445,15.8223888 28.9086651,15.8692272 28.7775176,15.9441686 C27.8688525,16.4500234 25.3208431,17.9301171 24.7119438,18.3048244 C24.2716628,18.5764871 24.0468384,18.932459 24.0468384,19.3633724 C24.0468384,19.4195785 24.0468384,19.4664169 24.0468384,19.522623 C23.9812646,19.4757845 23.8875878,19.4289461 23.7751756,19.4008431 Z M17.29274,15.4570492 C17.29274,15.6725059 17.29274,15.8223888 17.29274,15.9254333 C17.29274,16.0472131 17.29274,16.1221546 17.29274,16.2064637 C17.1428571,16.2439344 16.9929742,16.2439344 16.8430913,16.2064637 C16.852459,16.1221546 16.852459,16.0378454 16.8430913,15.9160656 C16.8430913,15.8130211 16.8430913,15.6631382 16.8430913,15.4476815 C16.8430913,15.0074005 16.6276347,14.6514286 16.1779859,14.3891335 C15.5316159,13.9956909 12.0187354,11.9348009 11.1100703,11.4383138 C10.9976581,11.37274 10.8946136,11.3259016 10.7915691,11.2977986 C10.8103044,11.2228571 10.8384075,11.1572834 10.8758782,11.0917096 C10.969555,11.1947541 11.0913349,11.2790632 11.2318501,11.3633724 C11.7283372,11.6537705 13.4613583,12.637377 14.735363,13.3774239 C15.4941452,13.8083372 16.0936768,14.1549415 16.1967213,14.2111475 C16.4683841,14.3703981 16.7587822,14.5015457 17.0772834,14.5015457 C17.29274,14.5015457 17.5269321,14.4453396 17.7704918,14.2954567 C18.4355972,13.9020141 21.498829,12.1315222 21.8173302,11.962904 C21.9765808,11.8785948 22.1264637,11.756815 22.2576112,11.6162998 C22.3325527,11.7193443 22.3606557,11.8130211 22.3700234,11.8973302 C22.2576112,11.9348009 22.1451991,11.9816393 22.0234192,12.0472131 C21.1147541,12.5530679 18.5667447,14.0331616 17.9578454,14.4078689 C17.5081967,14.6607963 17.2833724,15.0261358 17.29274,15.4570492 Z M10.295082,10.8387822 C10.3793911,10.8575176 10.4730679,10.8762529 10.5667447,10.8762529 C10.6042155,10.8762529 10.6416862,10.8762529 10.6885246,10.8668852 C10.6135831,10.9792974 10.557377,11.0917096 10.529274,11.2134895 C10.3793911,11.1853864 10.2482436,11.1853864 10.1264637,11.2041218 C10.2014052,11.0823419 10.2576112,10.9605621 10.295082,10.8387822 Z M10.6229508,10.2111475 L10.6229508,5.8270445 C10.6229508,5.29308665 10.7259953,4.88090867 11.2505855,4.59051054 C11.8032787,4.28137705 14.9133489,2.49214988 16.3278689,1.66779391 C16.1779859,1.80830913 16.0187354,2.04250117 16.0187354,2.53898829 L16.0187354,6.90432787 C16.0187354,7.06357845 16.0187354,7.30713817 16.1217799,7.57880094 C15.8782201,7.71931616 15.6065574,7.87856674 15.3067916,8.04718501 C15.2786885,8.05655269 15.2505855,8.07528806 15.2318501,8.08465574 C14.6697892,8.39378923 13.4800937,9.08699766 12.5058548,9.64908665 C11.8407494,10.0237939 11.3161593,10.3235597 11.1288056,10.4266042 C10.969555,10.5109133 10.8196721,10.5671194 10.6791569,10.5858548 C10.6323185,10.4734426 10.6229508,10.3516628 10.6229508,10.2111475 Z M22.9789227,11.8036534 C22.8758782,11.7942857 22.763466,11.7942857 22.6416862,11.8130211 C22.6229508,11.7193443 22.5948478,11.6069321 22.5105386,11.4851522 C22.529274,11.4851522 22.5386417,11.4851522 22.557377,11.4851522 C22.6510539,11.4851522 22.735363,11.4757845 22.8196721,11.4476815 C22.8571429,11.5694614 22.9039813,11.6818735 22.9789227,11.8036534 Z M29.7798595,15.7099766 C29.676815,15.7006089 29.5550351,15.7006089 29.4332553,15.7193443 C29.4145199,15.6350351 29.3770492,15.5413583 29.3114754,15.4383138 C29.4145199,15.4383138 29.5175644,15.4195785 29.6112412,15.3821077 C29.6580796,15.4851522 29.7142857,15.5975644 29.7798595,15.7099766 Z M23.2974239,12.1596253 C23.3723653,12.2251991 23.4660422,12.2907728 23.5690867,12.3563466 C24.4964871,12.9184075 28,14.9137237 28.5807963,15.2415925 C28.6651054,15.2884309 28.7494145,15.3259016 28.8337237,15.3540047 C28.8711944,15.3821077 28.9086651,15.4102108 28.9461358,15.4383138 C28.824356,15.578829 28.6744731,15.7006089 28.5245902,15.784918 C28.206089,15.962904 25.1334895,17.7240281 24.4777518,18.1174707 C23.9437939,18.4359719 23.5222482,18.314192 23.0351288,18.0331616 C22.9320843,17.9769555 22.3325527,17.6303513 21.5831382,17.1994379 C20.2997658,16.4687588 18.5667447,15.4757845 18.0702576,15.1853864 C17.9391101,15.110445 17.8360656,15.0261358 17.7423888,14.932459 C17.8266979,14.8200468 17.9484778,14.7170023 18.0983607,14.6233255 C18.70726,14.2486183 21.2552693,12.7685246 22.1545667,12.2720375 C22.6510539,12.0097424 23.0257611,12.0565808 23.2974239,12.1596253 Z M29.2271663,14.7732084 C29.2271663,14.9137237 29.2084309,15.0355035 29.1803279,15.1572834 C29.1147541,15.1479157 29.0398126,15.1291803 28.9648712,15.110445 C28.9274005,15.0823419 28.8899297,15.0542389 28.8430913,15.0355035 C28.8430913,15.0355035 24.0187354,12.2439344 23.7470726,12.0846838 C23.6721311,12.0378454 23.5784543,11.9816393 23.4566745,11.9348009 C23.0257611,11.5600937 23.0257611,11.1291803 23.0257611,10.8575176 L23.0257611,6.4827822 C23.0257611,6.28606089 23.0538642,6.14554567 23.0913349,6.04250117 C23.2412178,6.0799719 23.3911007,6.13617799 23.5128806,6.21111944 C23.793911,6.3797377 27.9344262,8.76849649 28.5995316,9.14320375 C29.1147541,9.43362998 29.2271663,9.84580796 29.2271663,10.3797658 L29.2271663,14.7732084 L29.2271663,14.7732084 Z M11.2974239,10.6888993 C11.5316159,10.5483841 12.0468384,10.2486183 12.6370023,9.90201405 C13.4800937,9.4242623 14.5480094,8.80596721 15.4379391,8.30011241 C16.0093677,8.01908197 16.412178,8.16896487 16.6838407,8.30948009 C16.7306792,8.34695082 16.7868852,8.38442155 16.8430913,8.41252459 C17.676815,8.91837939 20.5807963,10.5764871 21.5925059,11.1479157 C21.7892272,11.2603279 21.9016393,11.3259016 21.9016393,11.3259016 C22.0140515,11.3914754 22.0983607,11.4476815 22.1639344,11.5132553 C22.0421546,11.6444028 21.9016393,11.7661827 21.7517564,11.8411241 C21.4332553,12.0097424 18.3700234,13.7802342 17.704918,14.1736768 C17.1709602,14.492178 16.7494145,14.3703981 16.2622951,14.0893677 C16.1592506,14.0331616 15.559719,13.6865574 14.8009368,13.255644 C13.5175644,12.5249649 11.793911,11.5319906 11.2974239,11.2415925 C11.1569087,11.1666511 11.0444965,11.0729742 10.9601874,10.9792974 C11.0351288,10.8668852 11.147541,10.7732084 11.2974239,10.6888993 Z M16.2676698,7.86425761 C16.2476698,7.86425761 16.2176698,7.85425761 16.1976698,7.85425761 C16.2176698,7.84425761 16.2276698,7.83425761 16.2476698,7.82425761 C16.2476698,7.84425761 16.2576698,7.85425761 16.2676698,7.86425761 Z M22.501171,10.8200468 C22.501171,10.9605621 22.4824356,11.0823419 22.4543326,11.2041218 C22.3138173,11.1853864 22.1545667,11.138548 22.0046838,11.0448712 C21.9484778,11.0167681 21.8548009,10.9605621 21.7423888,10.8949883 C20.6744731,10.2767213 17.1803279,8.253274 16.9461358,8.12212646 C16.9180328,8.1033911 16.8805621,8.08465574 16.8430913,8.06592037 C16.2997658,7.66311007 16.2997658,7.194726 16.2997658,6.90432787 L16.2997658,2.52962061 C16.2997658,2.3328993 16.3278689,2.19238407 16.3653396,2.08933958 C16.5152225,2.1268103 16.6651054,2.18301639 16.7868852,2.25795785 C17.0679157,2.42657611 21.2084309,4.81533489 21.8735363,5.19004215 C22.3887588,5.48044028 22.501171,5.89261827 22.501171,6.42657611 L22.501171,10.8200468 L22.501171,10.8200468 Z M10.088993,5.85514754 L10.088993,10.2205152 C10.088993,10.5109133 10.088993,10.9699297 9.57377049,11.3633724 C9.49882904,11.4008431 9.44262295,11.4383138 9.38641686,11.4664169 C9.17096019,11.5881967 6.23887588,13.2837471 4.92740047,14.051897 C4.55269321,13.8364403 4.20608899,13.6303513 3.8969555,13.4523653 L3.8969555,9.76149883 C3.8969555,9.22754098 4,8.81533489 4.52459016,8.52493677 C5.19906323,8.15022951 9.33021077,5.76147073 9.61124122,5.59285246 C9.73302108,5.51791101 9.88290398,5.46170492 10.0327869,5.42423419 C10.0608899,5.51791101 10.088993,5.65842623 10.088993,5.85514754 Z M9.54566745,11.7287119 C9.61124122,11.6912412 9.66744731,11.6537705 9.7236534,11.6069321 C10.0046838,11.4757845 10.4074941,11.3633724 10.969555,11.6818735 C11.8782201,12.1877283 15.3911007,14.2392506 16.028103,14.6326932 C16.1779859,14.72637 16.2997658,14.8294145 16.3840749,14.9418267 C16.2997658,15.0355035 16.1873536,15.1198126 16.0562061,15.1947541 C15.559719,15.4851522 13.8266979,16.4687588 12.5526932,17.2088056 C11.793911,17.639719 11.1943794,17.9863232 11.0913349,18.0425293 C10.763466,18.2298829 10.3981265,18.3891335 9.9765808,18.2673536 L9.9765808,18.0331616 C9.9765808,17.4992037 9.88290398,16.9090398 9.19906323,16.5249649 C8.82435597,16.3095082 6.8852459,15.1947541 5.20843091,14.2298829 C6.50117096,13.4898361 8.83372365,12.1502576 9.54566745,11.7287119 Z M10.2857143,18.4453396 C10.6135831,18.4453396 10.8946136,18.314192 11.1662763,18.1549415 C11.2693208,18.0987354 11.8688525,17.7521311 12.6276347,17.3212178 C13.911007,16.5905386 15.6346604,15.5975644 16.1311475,15.3071663 C16.2622951,15.2322248 16.3747073,15.1479157 16.4683841,15.0542389 C16.5339578,15.1760187 16.5620609,15.3071663 16.5620609,15.4476815 C16.5620609,15.6725059 16.5620609,15.8130211 16.5620609,15.9254333 C16.5620609,16.0565808 16.5620609,16.1315222 16.5526932,16.2251991 C16.5245902,16.5062295 16.4309133,16.7966276 15.9812646,17.0589227 C15.4847775,17.3493208 13.7611241,18.3422951 12.4777518,19.0823419 C11.7283372,19.522623 11.1288056,19.8598595 11.0257611,19.9254333 C10.6697892,20.1315222 10.3419204,20.2533021 9.9765808,20.1408899 L9.9765808,18.4078689 C10.088993,18.4359719 10.1920375,18.4453396 10.2857143,18.4453396 Z M10.2576112,20.4593911 C10.6042155,20.4593911 10.9133489,20.3188759 11.175644,20.1596253 C11.2786885,20.1034192 11.8782201,19.756815 12.6276347,19.316534 C13.9016393,18.5764871 15.6252927,17.5835129 16.1311475,17.2931148 C16.5620609,17.049555 16.7213115,16.7497892 16.7962529,16.4781265 C16.8149883,16.4781265 16.824356,16.4874941 16.8430913,16.4874941 L16.8430913,17.8645433 L9.98594848,21.7896019 L9.98594848,20.4219204 C10.0796253,20.4500234 10.1639344,20.4593911 10.2576112,20.4593911 Z M31.0913349,21.8364403 L31.0913349,22.0987354 C30.6229508,22.314192 30.2388759,22.1924122 29.7985948,21.9394848 C29.6955504,21.8832787 29.0960187,21.5366745 28.3372365,21.1057611 C27.0538642,20.375082 25.3302108,19.3821077 24.8337237,19.0917096 C24.7025761,19.0167681 24.5995316,18.932459 24.5058548,18.8387822 C24.5901639,18.72637 24.7119438,18.6233255 24.8618267,18.5296487 C25.470726,18.1549415 28.0187354,16.6748478 28.9180328,16.1783607 C29.4800937,15.8692272 29.882904,15.9722717 30.1639344,16.1034192 C30.2201405,16.1408899 30.2763466,16.1877283 30.3419204,16.2251991 C31.0444965,16.6467447 33.3770492,17.9863232 34.6604215,18.7170023 C33.4519906,19.4102108 32.206089,20.1315222 31.8501171,20.3282436 C31.1850117,20.7123185 31.0913349,21.3118501 31.0913349,21.8364403 Z M34.969555,18.5483841 L33.704918,17.8177049 C32.3278689,17.021452 30.6697892,16.0659485 30.5105386,15.9722717 C30.4543326,15.9441686 30.3981265,15.9066979 30.323185,15.8692272 C29.8079625,15.4757845 29.8079625,15.0074005 29.8079625,14.72637 L29.8079625,10.3610304 C29.8079625,10.1643091 29.8360656,10.0237939 29.8735363,9.92074941 C30.0234192,9.95822014 30.1733021,10.0144262 30.295082,10.0893677 C30.5761124,10.2579859 34.7166276,12.6467447 35.381733,13.021452 C35.8969555,13.3118501 36.0093677,13.7240281 36.0093677,14.2579859 L36.0093677,17.9488525 C35.6908665,18.1362061 35.3442623,18.3422951 34.969555,18.5483841 Z M25.1709602,5.44296956 C25.4800937,5.63032319 29.5362998,7.9535082 30.1920375,8.31884778 C30.4730679,8.47809836 30.6416862,8.67481967 30.735363,8.94648244 C30.4074941,9.10573302 30.1639344,9.24627635 29.9765808,9.37742389 C29.8079625,9.49920375 29.5269321,9.69592506 29.5269321,10.3516628 L29.5269321,14.7170023 C29.5269321,14.8200468 29.5269321,14.9511944 29.5550351,15.1010773 C29.4800937,15.1291803 29.4051522,15.138548 29.3302108,15.1479157 C29.3583138,15.0261358 29.3770492,14.904356 29.3770492,14.7638407 L29.3770492,10.3797658 C29.3770492,9.87391101 29.29274,9.35868852 28.6838407,9.02142389 C28.0093677,8.64671663 23.8782201,6.25795785 23.5971897,6.08933958 C23.4754098,6.01439813 23.3255269,5.94882436 23.175644,5.91135363 C23.2318501,5.8270445 23.3067916,5.78020609 23.3629977,5.73336768 C23.5409836,5.60222014 23.793911,5.46170492 24.1405152,5.29308665 C24.4309133,5.15257143 24.8899297,5.26498361 25.1709602,5.44296956 Z M23.4566745,4.36568618 C23.7470726,4.52493677 23.9250585,4.74976112 24.0093677,5.04015925 C23.6440281,5.2181452 23.381733,5.35866042 23.1850117,5.49917564 C23.0163934,5.6209555 22.735363,5.81767681 22.735363,6.47341452 L22.735363,10.8387822 C22.735363,10.9230913 22.735363,11.0448712 22.7540984,11.1666511 C22.6978923,11.1853864 22.6416862,11.1853864 22.5854801,11.1947541 C22.6135831,11.0729742 22.6323185,10.9511944 22.6323185,10.8106792 L22.6323185,6.43594379 C22.6323185,5.93008899 22.5480094,5.41486651 21.9391101,5.07762998 C21.264637,4.70292272 17.1334895,2.31416393 16.852459,2.14554567 C16.7306792,2.07060422 16.5807963,2.00503044 16.4309133,1.96755972 C16.4871194,1.88325059 16.5620609,1.83641218 16.618267,1.78957377 C16.7962529,1.65842623 17.0491803,1.51791101 17.3957845,1.34929274 C17.6861827,1.20877752 18.1451991,1.3211897 18.4355972,1.49917564 C18.7540984,1.68652927 22.8103044,4.0003466 23.4566745,4.36568618 Z M9.65807963,3.75678689 C10.3044496,3.39144731 15.0444965,0.684191101 15.3629977,0.487469789 C15.6440281,0.309483841 16.1124122,0.197071663 16.4028103,0.337586885 C16.7494145,0.506205152 17.0023419,0.646720375 17.1803279,0.777864169 C17.2459016,0.824702576 17.3114754,0.871540984 17.3676815,0.955850117 C17.2177986,0.993320843 17.0679157,1.05889461 16.9461358,1.13383607 C16.6744731,1.30245433 11.8782201,4.06592037 11.175644,4.459363 C10.5667447,4.80596721 10.4824356,5.3211897 10.4824356,5.81767681 L10.4824356,10.2111475 C10.4824356,10.3516628 10.501171,10.4828103 10.529274,10.5952225 C10.4730679,10.5952225 10.4168618,10.5858548 10.3606557,10.5671194 C10.3793911,10.4359719 10.3793911,10.314192 10.3793911,10.2205152 L10.3793911,5.85514754 C10.3793911,5.19940984 10.0983607,5.00268852 9.92974239,4.88090867 C9.73302108,4.74039344 9.470726,4.59987822 9.1147541,4.42189227 C9.18969555,4.13149415 9.3676815,3.91603747 9.65807963,3.75678689 Z M2.31381733,8.91837939 C2.31381733,8.38442155 2.41686183,7.98161124 2.93208431,7.69121311 C3.57845433,7.32587354 7.63466042,5.01205621 7.95316159,4.81533489 C8.23419204,4.63734895 8.70257611,4.52493677 8.99297424,4.66545199 C9.33957845,4.83407026 9.59250585,4.97458548 9.7704918,5.10573302 C9.83606557,5.15257143 9.90163934,5.19940984 9.95784543,5.28371897 C9.80796253,5.3211897 9.65807963,5.38676347 9.53629977,5.46170492 C9.25526932,5.63032319 5.12412178,8.01908197 4.44964871,8.39378923 C3.84074941,8.74039344 3.75644028,9.25564403 3.75644028,9.75213115 L3.75644028,13.3680562 C3.14754098,13.021452 2.72599532,12.7685246 2.64168618,12.7216862 C2.54800937,12.6654801 2.43559719,12.609274 2.32318501,12.5718033 L2.32318501,8.91837939 L2.31381733,8.91837939 Z M1.96721311,20.6186417 C1.96721311,20.6842155 1.80796253,20.7966276 1.56440281,20.7966276 C1.32084309,20.7966276 1.16159251,20.6935831 1.16159251,20.6186417 L1.16159251,19.8692272 C1.3676815,19.991007 1.64871194,20.1502576 1.95784543,20.3376112 L1.95784543,20.6186417 L1.96721311,20.6186417 Z M0.992974239,19.4383138 C0.281030445,19.0074005 0.281030445,18.4640749 0.281030445,18.1362061 L0.281030445,14.0331616 C0.281030445,13.9113817 0.290398126,13.8177049 0.309133489,13.7333958 C0.496487119,13.7708665 0.683840749,13.8364403 0.843091335,13.9301171 C1.16159251,14.1268384 6.75409836,17.3586885 7.42857143,17.7333958 C7.98126464,18.0425293 8.09367681,18.4828103 8.09367681,19.0542389 L8.09367681,22.9886651 C8.09367681,23.138548 8.07494145,23.2790632 8.03747073,23.4008431 C7.88758782,23.3821077 7.73770492,23.3352693 7.56908665,23.2415925 C6.93208431,22.8856206 1.89227166,19.9722717 0.992974239,19.4383138 Z M8.74941452,24.5530679 C8.74941452,24.6186417 8.59016393,24.7310539 8.34660422,24.7310539 C8.1030445,24.7310539 7.94379391,24.6280094 7.94379391,24.5530679 L7.94379391,23.6818735 C8.00936768,23.6912412 8.07494145,23.7006089 8.13114754,23.7006089 C8.32786885,23.7006089 8.52459016,23.6444028 8.70257611,23.5413583 C8.71194379,23.5319906 8.73067916,23.522623 8.74004684,23.522623 L8.74004684,24.5530679 L8.74941452,24.5530679 Z M9.70491803,21.9582201 C9.70491803,22.492178 9.48946136,22.7170023 9.25526932,22.8949883 C9.18032787,22.9511944 9.1147541,22.9886651 8.99297424,23.0542389 C8.89929742,23.110445 8.76814988,23.1853864 8.57142857,23.2977986 C8.44964871,23.37274 8.31850117,23.4102108 8.17798595,23.4195785 C8.21545667,23.2884309 8.22482436,23.1572834 8.22482436,22.9980328 L8.22482436,19.0636066 C8.22482436,18.5296487 8.13114754,17.9863232 7.48477752,17.6209836 C6.81967213,17.2462763 1.21779859,14.0144262 0.908665105,13.8177049 C0.740046838,13.7146604 0.543325527,13.639719 0.337236534,13.6022482 C0.402810304,13.4148946 0.515222482,13.3399532 0.618266979,13.2650117 C0.805620609,13.1338642 1.05854801,12.9933489 1.41451991,12.815363 C1.50819672,12.7685246 1.6206089,12.7497892 1.74238876,12.7497892 C1.99531616,12.7497892 2.28571429,12.843466 2.4824356,12.9652459 C2.80093677,13.1619672 8.39344262,16.3938173 9.06791569,16.7685246 C9.59250585,17.0589227 9.69555035,17.4804684 9.69555035,18.0237939 L9.69555035,21.9582201 L9.70491803,21.9582201 Z M17.4332553,19.4945199 C17.4332553,19.5600937 17.2740047,19.6725059 17.030445,19.6725059 C16.7868852,19.6725059 16.6276347,19.5694614 16.6276347,19.4945199 L16.6276347,18.314192 L17.0491803,18.0706323 L17.4238876,18.286089 L17.4238876,19.4945199 L17.4332553,19.4945199 Z M17.1147541,17.7896019 L17.1147541,16.5155972 C17.1896956,16.5155972 17.264637,16.5062295 17.3302108,16.4874941 C17.3957845,16.7591569 17.5644028,17.049555 17.9953162,17.3024824 C18.4824356,17.5835129 20.1592506,18.5577518 21.4332553,19.2884309 L22.2201405,19.7380796 C21.9953162,19.8692272 21.7142857,20.0284778 21.3957845,20.2158314 L17.1147541,17.7896019 Z M17.6206089,22.7732084 C18.2014052,22.4172365 21.7236534,20.3376112 22.6510539,19.8223888 C22.9227166,19.6725059 23.1569087,19.6162998 23.3629977,19.6162998 C23.6908665,19.6162998 23.9250585,19.756815 24.0936768,19.8504918 C24.3747073,20.0097424 29.1896956,22.8013115 29.1896956,22.8013115 C29.29274,22.8575176 29.3770492,22.9230913 29.442623,22.9792974 C29.3208431,23.1198126 29.1709602,23.2415925 29.0210773,23.316534 C28.7119438,23.4851522 24.64637,25.8551756 23.9906323,26.2486183 C23.4566745,26.5671194 23.0351288,26.4453396 22.5480094,26.1643091 C22.4449649,26.108103 21.8454333,25.7614988 21.0960187,25.3305855 C19.8126464,24.5999063 18.0796253,23.6069321 17.5831382,23.316534 C17.4519906,23.2415925 17.3489461,23.1572834 17.2552693,23.0636066 C17.3489461,22.9605621 17.4613583,22.8575176 17.6206089,22.7732084 Z M18.2295082,28.0097424 C18.2295082,28.0753162 18.0702576,28.1877283 17.8266979,28.1877283 C17.5831382,28.1877283 17.4238876,28.0846838 17.4238876,28.0097424 L17.4238876,26.8575176 C17.5550351,26.932459 17.8454333,27.1010773 18.2201405,27.316534 L18.2201405,28.0097424 L18.2295082,28.0097424 Z M17.5362998,26.5858548 C17.2740047,26.4359719 17.236534,26.2673536 17.2177986,26.1268384 C17.2084309,26.08 17.2084309,25.8364403 17.2177986,25.5741452 C17.2740047,25.6303513 17.3395785,25.6865574 17.4332553,25.7333958 C17.7330211,25.9113817 19.7470726,27.0542389 21.2084309,27.8973302 C22.0983607,28.403185 22.8009368,28.8059953 22.8665105,28.843466 C23.0163934,28.9277752 23.175644,29.0027166 23.35363,29.021452 L23.3629977,29.7802342 C23.3629977,29.8083372 23.381733,29.8270726 23.4098361,29.8270726 C23.4379391,29.8270726 23.4566745,29.8083372 23.4566745,29.7802342 L23.4473068,29.0308197 C23.5690867,29.021452 23.7096019,28.9933489 23.8501171,28.8996721 C24.3278689,28.6186417 29.2177986,25.7427635 29.3957845,25.6490867 C29.4894614,25.6022482 29.5831382,25.5179391 29.6674473,25.43363 C29.6674473,25.7052927 29.6580796,25.9488525 29.6580796,26.0425293 C29.6487119,26.2111475 29.4613583,26.4078689 29.29274,26.5015457 C29.0960187,26.6045902 24.0374707,29.5835129 23.7377049,29.7614988 C23.4566745,29.9301171 23.2318501,29.8645433 22.969555,29.7146604 C22.9039813,29.6771897 22.2014052,29.2743794 21.3114754,28.7685246 C19.8407494,27.9160656 17.8360656,26.7638407 17.5362998,26.5858548 Z M23.3629977,31.1291803 C23.1194379,31.1291803 22.9601874,31.0261358 22.9601874,30.9511944 L22.9601874,30.0144262 C23.1007026,30.08 23.2505855,30.1268384 23.4098361,30.1268384 C23.5222482,30.1268384 23.6346604,30.108103 23.7564403,30.051897 L23.7564403,30.9511944 C23.7564403,31.0261358 23.5971897,31.1291803 23.3629977,31.1291803 Z M29.1147541,28.1783607 C28.8711944,28.1783607 28.7119438,28.0753162 28.7119438,28.0003747 L28.7119438,27.1479157 C29.1147541,26.9137237 29.3864169,26.7544731 29.4238876,26.7357377 C29.4519906,26.7170023 29.4800937,26.7076347 29.5081967,26.6795316 L29.5081967,28.0097424 C29.5175644,28.0753162 29.3583138,28.1783607 29.1147541,28.1783607 Z M29.9484778,25.1525995 C29.9484778,24.843466 29.9484778,24.5343326 29.9391101,24.3657143 C29.9391101,24.3095082 29.9484778,24.2439344 29.9484778,24.197096 C30.1545667,24.3001405 30.3887588,24.3657143 30.6323185,24.3657143 C30.7728337,24.3657143 30.9227166,24.3376112 31.0819672,24.2814052 L31.0819672,25.7708665 C31.0819672,25.7896019 31.0819672,25.7989696 31.0819672,25.8177049 L29.9484778,25.1525995 Z M31.8220141,26.7076347 C31.587822,26.5390164 31.3723653,26.3048244 31.3723653,25.7708665 L31.3723653,21.8364403 C31.3723653,21.2931148 31.4754098,20.8715691 32,20.581171 C32.7119438,20.1783607 37.1147541,17.6490867 37.4051522,17.461733 C37.6018735,17.3399532 37.8922717,17.2462763 38.1451991,17.2462763 C38.2669789,17.2462763 38.3793911,17.2650117 38.4730679,17.3118501 C38.8290398,17.4804684 39.0819672,17.6303513 39.2786885,17.7614988 C39.3723653,17.8270726 39.4847775,17.9113817 39.5503513,18.0987354 C39.35363,18.1362061 39.147541,18.2111475 38.9789227,18.314192 C38.6791569,18.492178 34.295082,21.0308197 33.5831382,21.4242623 C32.9367681,21.7896019 32.8430913,22.3329274 32.8430913,22.8668852 L32.8430913,26.8013115 C32.8430913,26.9511944 32.8618267,27.0917096 32.8899297,27.2228571 C32.7494145,27.2134895 32.618267,27.1760187 32.4964871,27.110445 C32.2997658,26.9980328 32.1686183,26.9230913 32.0749415,26.8668852 C31.9625293,26.7919438 31.8969555,26.7544731 31.8220141,26.7076347 Z M33.1241218,28.3657143 C33.1241218,28.4312881 32.9648712,28.5437002 32.7213115,28.5437002 C32.4777518,28.5437002 32.3185012,28.4406557 32.3185012,28.3657143 L32.3185012,27.3259016 C32.3278689,27.3352693 32.3466042,27.344637 32.3559719,27.344637 C32.5339578,27.4476815 32.7213115,27.5038876 32.9274005,27.5038876 C32.9929742,27.5038876 33.0491803,27.4945199 33.1147541,27.4851522 L33.1147541,28.3657143 L33.1241218,28.3657143 Z M38.7259953,25.1151288 C38.7259953,25.1807026 38.5667447,25.2931148 38.323185,25.2931148 C38.0796253,25.2931148 37.9203747,25.1900703 37.9203747,25.1151288 L37.9203747,24.8340984 C38.2295082,24.6561124 38.501171,24.4968618 38.7166276,24.3657143 L38.7166276,25.1151288 L38.7259953,25.1151288 Z M39.6159251,22.6326932 C39.6159251,22.9605621 39.6159251,23.5038876 38.9039813,23.9348009 C37.9859485,24.4874941 34.1077283,26.72637 33.5081967,27.0542389 C33.3395785,27.1479157 33.1896956,27.1947541 33.0398126,27.2134895 C33.0023419,27.0917096 32.9836066,26.9511944 32.9836066,26.8013115 L32.9836066,22.8668852 C32.9836066,22.2954567 33.0960187,21.8551756 33.6487119,21.5460422 C34.3606557,21.1432319 38.7540984,18.6139578 39.0538642,18.4266042 C39.2037471,18.3329274 39.4004684,18.2579859 39.587822,18.2298829 C39.6065574,18.314192 39.6159251,18.4078689 39.6159251,18.5296487 L39.6159251,22.6326932 L39.6159251,22.6326932 Z" id="Shape"></path>
            <path d="M24.2810304,9.12447775 C24.1779859,9.12447775 24.0936768,9.25564403 24.0936768,9.4242623 C24.0936768,9.59288056 24.1779859,9.7240281 24.2810304,9.7240281 C24.3840749,9.7240281 24.4683841,9.59288056 24.4683841,9.4242623 C24.4683841,9.25564403 24.3840749,9.12447775 24.2810304,9.12447775 Z" id="Path"></path>
            <path d="M26.0234192,10.1549415 C25.9203747,10.1549415 25.8360656,10.286089 25.8360656,10.4547073 C25.8360656,10.6233255 25.9203747,10.7544731 26.0234192,10.7544731 C26.1264637,10.7544731 26.2107728,10.6233255 26.2107728,10.4547073 C26.2107728,10.286089 26.1264637,10.1549415 26.0234192,10.1549415 Z" id="Path"></path>
            <path d="M27.8313817,11.2134895 C27.7283372,11.2134895 27.6440281,11.344637 27.6440281,11.5132553 C27.6440281,11.6818735 27.7283372,11.8130211 27.8313817,11.8130211 C27.9344262,11.8130211 28.0187354,11.6818735 28.0187354,11.5132553 C28.0187354,11.344637 27.9344262,11.2134895 27.8313817,11.2134895 Z" id="Path"></path>
            <path d="M31.0632319,13.0027166 C30.9601874,13.0027166 30.8758782,13.1338642 30.8758782,13.3024824 C30.8758782,13.4711007 30.9601874,13.6022482 31.0632319,13.6022482 C31.1662763,13.6022482 31.2505855,13.4711007 31.2505855,13.3024824 C31.2505855,13.1338642 31.1662763,13.0027166 31.0632319,13.0027166 Z" id="Path"></path>
            <path d="M32.8056206,14.0237939 C32.7025761,14.0237939 32.618267,14.1549415 32.618267,14.3235597 C32.618267,14.492178 32.7025761,14.6233255 32.8056206,14.6233255 C32.9086651,14.6233255 32.9929742,14.492178 32.9929742,14.3235597 C32.9929742,14.1549415 32.9086651,14.0237939 32.8056206,14.0237939 Z" id="Path"></path>
            <path d="M34.6135831,15.0823419 C34.5105386,15.0823419 34.4262295,15.2134895 34.4262295,15.3821077 C34.4262295,15.550726 34.5105386,15.6818735 34.6135831,15.6818735 C34.7166276,15.6818735 34.8009368,15.550726 34.8009368,15.3821077 C34.8009368,15.2134895 34.7166276,15.0823419 34.6135831,15.0823419 Z" id="Path"></path>
            <path d="M17.5456674,5.18067447 C17.442623,5.18067447 17.3583138,5.31182201 17.3583138,5.48044028 C17.3583138,5.64905855 17.442623,5.78020609 17.5456674,5.78020609 C17.6487119,5.78020609 17.7330211,5.64905855 17.7330211,5.48044028 C17.7330211,5.31182201 17.6487119,5.18067447 17.5456674,5.18067447 Z" id="Path"></path>
            <path d="M19.2880562,6.20174239 C19.1850117,6.20174239 19.1007026,6.33288993 19.1007026,6.5015082 C19.1007026,6.67012646 19.1850117,6.801274 19.2880562,6.801274 C19.3911007,6.801274 19.4754098,6.67012646 19.4754098,6.5015082 C19.4754098,6.34225761 19.3911007,6.20174239 19.2880562,6.20174239 Z" id="Path"></path>
            <path d="M21.1053864,7.2603185 C21.0023419,7.2603185 20.9180328,7.39146604 20.9180328,7.56008431 C20.9180328,7.72870258 21.0023419,7.85985012 21.1053864,7.85985012 C21.2084309,7.85985012 21.29274,7.72870258 21.29274,7.56008431 C21.29274,7.39146604 21.2084309,7.2603185 21.1053864,7.2603185 Z" id="Path"></path>
            <path d="M10.3044496,20.1408899 C10.3325527,20.1408899 10.3512881,20.1221546 10.3512881,20.0940515 L10.3606557,18.5671194 C10.3606557,18.5390164 10.3419204,18.520281 10.3138173,18.520281 C10.2857143,18.520281 10.2669789,18.5390164 10.2669789,18.5671194 L10.2576112,20.0940515 C10.2576112,20.1221546 10.2763466,20.1408899 10.3044496,20.1408899 Z" id="Path"></path>
            <path d="M8.1498829,18.1924122 C8.15925059,18.2111475 8.17799532,18.2111475 8.187363,18.2111475 C8.19673068,18.2111475 8.20608899,18.2111475 8.21545667,18.2017799 L9.49882904,17.43363 C9.5175644,17.4242623 9.52693208,17.3961593 9.5175644,17.3680562 C9.50819672,17.3493208 9.48009368,17.3399532 9.45199063,17.3493208 L8.16861827,18.1174707 C8.14051522,18.1362061 8.13114754,18.1643091 8.1498829,18.1924122 Z" id="Path"></path>
            <path d="M3.70960187,8.94650117 C3.72833724,8.94650117 3.7470726,8.93713349 3.7470726,8.91839813 C3.75644028,8.89966276 3.7470726,8.87155972 3.72833724,8.85282436 L2.55737705,8.2251897 C2.53864169,8.21582201 2.51053864,8.2251897 2.49180328,8.24392506 C2.4824356,8.26266042 2.49180328,8.29076347 2.51053864,8.30949883 L3.68149883,8.93713349 C3.69086651,8.94650117 3.70023419,8.94650117 3.70960187,8.94650117 Z" id="Path"></path>
            <path d="M8.84309133,8.49682436 C8.74004684,8.49682436 8.6557377,8.6279719 8.6557377,8.79659016 C8.6557377,8.96520843 8.74004684,9.09635597 8.84309133,9.09635597 C8.94613583,9.09635597 9.03044496,8.96520843 9.03044496,8.79659016 C9.03044496,8.63733958 8.94613583,8.49682436 8.84309133,8.49682436 Z" id="Path"></path>
            <path d="M7.10070258,9.52730679 C6.99765808,9.52730679 6.91334895,9.65845433 6.91334895,9.8270726 C6.91334895,9.99569087 6.99765808,10.1268384 7.10070258,10.1268384 C7.20374707,10.1268384 7.28805621,9.99569087 7.28805621,9.8270726 C7.27868852,9.65845433 7.20374707,9.52730679 7.10070258,9.52730679 Z" id="Path"></path>
            <path d="M5.28337237,10.5858548 C5.18032787,10.5858548 5.09601874,10.7170023 5.09601874,10.8856206 C5.09601874,11.0542389 5.18032787,11.1853864 5.28337237,11.1853864 C5.38641686,11.1853864 5.470726,11.0542389 5.470726,10.8856206 C5.470726,10.7170023 5.38641686,10.5858548 5.28337237,10.5858548 Z" id="Path"></path>
        </g>
    </g>
</svg>