<?xml version="1.0" encoding="UTF-8"?>
<svg width="40px" height="40px" viewBox="0 0 40 40" version="1.1" xmlns="http://www.w3.org/2000/svg" xmlns:xlink="http://www.w3.org/1999/xlink">
    <title>Category Icon/category-collection</title>
    <g id="Category-Icon/category-collection" stroke="none" stroke-width="1" fill="none" fill-rule="evenodd">
        <g id="category-collection" transform="translate(0.000000, 7.000000)" fill="#000000" fill-rule="nonzero">
            <path d="M7.14061905,5.05681905 C7.24046667,5.05681905 7.32140952,4.9284381 7.32140952,4.77007619 C7.32140952,4.61171429 7.24046667,4.48334286 7.14061905,4.48334286 C7.0407619,4.48334286 6.95981905,4.61171429 6.95981905,4.77007619 C6.95981905,4.9284381 7.0407619,5.05681905 7.14061905,5.05681905 Z" id="Path"></path>
            <path d="M5.18972381,5.58249524 C5.09457143,5.58249524 5.00893333,5.70675238 5.00893333,5.8692381 C5.00893333,6.03172381 5.08505714,6.15597143 5.18972381,6.15597143 C5.29439048,6.15597143 5.37051429,6.03172381 5.37051429,5.8692381 C5.37051429,5.70675238 5.28487619,5.58249524 5.18972381,5.58249524 Z" id="Path"></path>
            <path d="M12.8879048,14.9110476 C13.2209524,14.7007619 13.554,14.509619 13.8109524,14.3471429 L13.8109524,14.3662857 C13.8109524,14.5765714 14.0393333,14.7390476 14.3438095,14.7390476 C14.6482857,14.7390476 14.8766667,14.5765714 14.8766667,14.3662857 L14.8766667,13.5729524 C15.0289524,13.3626667 15.1525714,13.1045714 15.2382857,12.8179048 C15.5237143,11.8047619 16.0184762,7.15952381 15.9519048,6.0986381 C15.9138095,5.46780952 15.7330476,5.13328571 15.2382857,4.74140952 C14.7054286,4.32085714 9.60504762,1.44391429 9.18638095,1.25275238 C8.89142857,1.11894286 8.60595238,1.10938095 8.35855238,1.22407619 C7.80665714,0.908666667 7.02638095,0.478561905 6.75042857,0.49767619 C5.28504762,0.612371429 3.22970476,1.92180952 2.53506667,2.59086667 C1.78334286,3.31726667 1.05065714,4.2348381 1.21241905,5.60161905 C1.06968571,5.59206667 0.926952381,5.61118095 0.793733333,5.66852381 C0.593904762,5.75455238 0.32747619,5.95526667 0.203773333,6.44272381 C-0.0150828571,7.27428571 -0.35764,10.9540952 1.03161905,13.3053333 L1.05065714,13.334 L1.0792,13.3531429 C1.20290476,13.4391429 1.35515238,13.5442857 1.52642857,13.6589524 L1.52642857,13.9935238 C1.52642857,14.2038095 1.7548,14.3662857 2.05929524,14.3662857 C2.20202857,14.3662857 2.3447619,14.328 2.43991429,14.2611429 C4.33349524,15.4940952 7.19765714,17.2814286 7.79713333,17.5299048 L7.79713333,17.8549524 C7.79713333,18.0652381 8.02550476,18.2277143 8.33,18.2277143 C8.63450476,18.2277143 8.86285714,18.0652381 8.86285714,17.8549524 L8.86285714,17.3292381 C9.63361905,16.8991429 11.5081905,15.7521905 12.8879048,14.9110476 Z M7.93035238,17.2719048 C7.18814286,15.4080952 7.05493333,11.6422857 7.17862857,10.8298095 C7.26426667,10.3040952 7.57827619,10.0842857 7.71149524,10.0078095 C7.81617143,9.95047619 7.9208381,9.92180952 8.01599048,9.92180952 C8.20630476,10.1512381 8.29194286,10.4666667 8.3490381,10.8584762 C8.5108,11.9480952 8.66304762,15.9815238 8.63450476,17.0902857 C8.5108,17.1954286 8.2443619,17.3387619 7.93035238,17.2719048 Z M2.88714286,6.4714 C2.68731429,5.05681905 3.47710476,4.17748571 4.08609524,3.6422381 C4.7902381,3.03053333 6.9122,1.74020952 7.95890476,1.5968381 C8.12066667,1.57772381 8.27291429,1.57772381 8.41564762,1.6064 C8.53934286,1.68285714 8.65353333,1.7497619 8.7582,1.82622857 C9.11980952,2.06518095 9.30057143,2.50484762 9.234,3.02097143 C9.11028571,4.0245619 8.76771429,5.80234286 8.46321905,6.80590476 L5.96064762,8.28742857 C4.9710381,7.69485714 3.81014286,7.00666667 2.88714286,6.4714 Z M9.52895238,3.05920952 C9.53847619,2.99230476 9.53847619,2.92539048 9.53847619,2.86804762 C11.3368571,3.97677143 13.915619,5.45825714 14.6482857,5.79278095 C14.5817143,5.93615238 14.5245714,6.10819048 14.5055238,6.33758095 C14.4199048,7.15 14.3438095,8.47857143 14.2866667,9.81666667 C14.1724762,9.55857143 13.953619,9.3387619 13.7442857,9.14761905 C13.2685714,8.71752381 11.1846667,7.41761905 9.88104762,6.94933333 C9.4052381,6.7772381 9.05314286,6.75809524 8.77722857,6.80590476 C9.08171429,5.75455238 9.4052381,4.06279048 9.52895238,3.05920952 Z M14.0868571,10.1894286 C14.0868571,10.3997143 14.0868571,10.5430476 14.0868571,10.6386667 C14.0868571,10.7629524 14.0868571,10.8298095 14.0773333,10.9158095 C14.0488571,11.1452381 13.9060952,11.3650476 13.5254286,11.7186667 C12.7546667,12.4451429 9.76685714,14.1846667 8.92952381,14.4618095 C8.91047619,14.4714286 8.89142857,14.4714286 8.87238095,14.4809524 C8.85335238,13.9648571 8.82480952,13.429619 8.80578095,12.9325714 C8.88190476,12.9134286 8.958,12.8847619 9.02466667,12.8657143 C9.77638095,12.6171429 12.7261905,11.0209524 13.6967619,10.141619 C13.8014286,10.0460952 13.9060952,9.94095238 13.9917143,9.85495238 C14.0488571,9.96009524 14.0868571,10.0747619 14.0868571,10.1894286 Z M6.27465714,8.46904762 C7.3213619,7.86685714 8.29194286,7.29333333 8.41564762,7.22647619 C8.65353333,7.09266667 9.05314286,6.93971429 9.78590476,7.20733333 C11.0609524,7.67571429 13.0972381,8.92780952 13.554,9.34838095 C13.6967619,9.48219048 13.8204762,9.60638095 13.9060952,9.72114286 C13.8204762,9.81666667 13.7062857,9.93133333 13.601619,10.0269524 C12.6404762,10.8871429 9.7192381,12.4738095 8.97704762,12.7127619 C8.92,12.7318095 8.85335238,12.7509524 8.79626667,12.7700952 C8.74868571,11.9194286 8.69159048,11.1834286 8.63450476,10.8106667 C8.56789524,10.342381 8.44419048,9.80714286 7.94938095,9.47257143 C7.77810476,9.37704762 7.12153333,8.97561905 6.27465714,8.46904762 Z M12.7357143,14.6625714 C11.4700952,15.4367619 9.77638095,16.4785714 8.92,16.966 C8.92952381,16.4880952 8.91047619,15.6757143 8.88190476,14.7772381 C8.92952381,14.7677143 8.96752381,14.7485714 9.01514286,14.7390476 C9.90009524,14.4522857 12.9069524,12.693619 13.7253333,11.9385714 C13.9821905,11.699619 14.144,11.5084762 14.2486667,11.336381 C14.2200952,12.34 14.2200952,13.2288571 14.2391429,13.7640952 C14.1344762,13.8119048 13.782381,14.0221905 12.7357143,14.6625714 Z M14.3438095,14.4522857 C14.182,14.4522857 14.096381,14.3854286 14.096381,14.3662857 L14.096381,14.1751429 C14.2486667,14.0890476 14.3438095,14.0221905 14.3628571,14.0126667 C14.4389524,13.9839048 14.5150476,13.9361905 14.5912381,13.8788571 L14.5912381,14.3662857 C14.5817143,14.3854286 14.496,14.4522857 14.3438095,14.4522857 Z M14.9622857,12.7414286 C14.8290476,13.2193333 14.5817143,13.5347619 14.372381,13.6780952 C14.3152381,12.1775238 14.4675238,8.04847619 14.6482857,6.34714286 C14.7054286,5.82145714 14.9242857,5.59206667 15.1050476,5.49648571 C15.2382857,5.42001905 15.3714286,5.40090476 15.4760952,5.41046667 C15.5902857,5.60161905 15.6474286,5.82145714 15.6664762,6.11775238 C15.7235238,7.13085714 15.2287619,11.7760952 14.9622857,12.7414286 Z M9.05314286,1.52037143 C9.47190476,1.71153333 14.5245714,4.55980952 15.0479048,4.9708 C15.1811429,5.07593333 15.2762857,5.17151429 15.362,5.26709524 C15.2572381,5.27664762 15.133619,5.30532381 15.0194286,5.37222857 C14.9242857,5.42958095 14.8100952,5.5251619 14.7148571,5.66852381 C14.0107619,5.3435619 11.308381,3.79517143 9.52895238,2.696 C9.50038095,2.22766667 9.28152381,1.83579048 8.91047619,1.5968381 C8.91047619,1.5968381 8.81529524,1.53949524 8.68207619,1.45346667 C8.80578095,1.43435238 8.92952381,1.46302857 9.05314286,1.52037143 Z M2.73489524,2.80114286 C3.38195238,2.17031429 5.38971429,0.899104762 6.77898095,0.793971429 C6.94074286,0.784409524 7.55924762,1.09982857 8.14920952,1.45346667 C8.0826,1.45346667 8.01599048,1.46302857 7.94938095,1.47258095 C6.78849524,1.62551429 4.63799048,2.98274286 4.00045714,3.53710476 C3.37242857,4.08190476 2.58264762,4.9612381 2.73489524,6.38537143 C2.21154286,6.07952381 1.78334286,5.83100952 1.54545714,5.7067619 C1.53594286,5.6972 1.51691429,5.6972 1.5074,5.68764762 C1.31708571,4.3782 2.01171429,3.48931429 2.73489524,2.80114286 Z M0.90792381,5.93615238 C1.06968571,5.86924762 1.25999048,5.8788 1.4122381,5.95526667 C2.43991429,6.51918095 7.29281905,9.38657143 7.78761905,9.72114286 C7.82568571,9.74019048 7.85422857,9.76885714 7.88278095,9.79752381 C7.80665714,9.81666667 7.72100952,9.84533333 7.64488571,9.88361905 C7.39748571,10.0174286 7.20718095,10.256381 7.10250476,10.5526667 C5.99870476,10.3232381 1.54545714,7.90504762 0.470209524,6.56697143 C0.470209524,6.54785714 0.47972381,6.52874286 0.47972381,6.51918095 C0.555847619,6.22288571 0.708095238,6.02217143 0.90792381,5.93615238 Z M0.441657143,6.68171429 C1.60255238,8.03885714 5.95113333,10.3997143 7.0739619,10.6481905 C7.05493333,10.7055238 7.04540952,10.7533333 7.03589524,10.8106667 C6.9122,11.613619 7.04540952,15.2647619 7.74004762,17.1859048 C6.76946667,16.6888571 2.72538095,14.1464762 1.25999048,13.1333333 C0.0229790476,10.9922857 0.241835238,7.73304762 0.441657143,6.68171429 Z M2.05929524,14.0795238 C1.89753333,14.0795238 1.81189524,14.0126667 1.81189524,13.9935238 L1.81189524,13.8500952 C1.9165619,13.9265714 2.03075238,13.9935238 2.15444762,14.0795238 C2.12590476,14.0795238 2.09735238,14.0795238 2.05929524,14.0795238 Z M8.33,17.9409524 C8.1682381,17.9409524 8.0826,17.874 8.0826,17.8549524 L8.0826,17.5777143 L8.09211429,17.5777143 C8.28242857,17.5777143 8.44419048,17.5299048 8.58692381,17.4630476 L8.58692381,17.8549524 C8.56789524,17.874 8.49177143,17.9409524 8.33,17.9409524 Z" id="Shape"></path>
            <path d="M25.2201905,12.5884762 C25.191619,12.5884762 25.1725714,12.607619 25.1725714,12.6362857 L25.1821905,13.9935238 C25.1821905,14.0221905 25.2012381,14.0413333 25.2298095,14.0413333 C25.258381,14.0413333 25.2774286,14.0221905 25.2774286,13.9935238 L25.2678095,12.6362857 C25.2678095,12.607619 25.2488571,12.5884762 25.2201905,12.5884762 Z" id="Path"></path>
            <path d="M31.4240952,7.55142857 C31.5239048,7.55142857 31.6048571,7.42304762 31.6048571,7.26466667 C31.6048571,7.10638095 31.5239048,6.978 31.4240952,6.978 C31.3242857,6.978 31.2433333,7.10638095 31.2433333,7.26466667 C31.2433333,7.42304762 31.3242857,7.55142857 31.4240952,7.55142857 Z" id="Path"></path>
            <path d="M33.9174286,9.03295238 C34.0125714,9.03295238 34.0981905,8.90866667 34.0981905,8.74619048 C34.0981905,8.58371429 34.0220952,8.45942857 33.9174286,8.45942857 C33.8127619,8.45942857 33.7365714,8.58371429 33.7365714,8.74619048 C33.7365714,8.89914286 33.8127619,9.03295238 33.9174286,9.03295238 Z" id="Path"></path>
            <path d="M26.4379048,4.66493333 C26.5330476,4.66493333 26.6186667,4.54068571 26.6186667,4.3782 C26.6186667,4.21571429 26.5425714,4.09145714 26.4379048,4.09145714 C26.3332381,4.09145714 26.2570476,4.21571429 26.2570476,4.3782 C26.2665714,4.53112381 26.3426667,4.66493333 26.4379048,4.66493333 Z" id="Path"></path>
            <path d="M28.9307619,6.0986381 C29.0306667,6.0986381 29.111619,5.97025714 29.111619,5.81189524 C29.111619,5.65353333 29.0306667,5.5251619 28.9307619,5.5251619 C28.8309524,5.5251619 28.75,5.65353333 28.75,5.81189524 C28.75,5.97025714 28.8309524,6.0986381 28.9307619,6.0986381 Z" id="Path"></path>
            <path d="M39.798,9.62552381 C39.6742857,9.14761905 39.4078095,8.93733333 39.208,8.85133333 C39.0462857,8.78438095 38.8654286,8.76533333 38.6941905,8.80352381 C38.7988571,7.50361905 38.0852381,6.6147619 37.362,5.90747619 C36.7910476,5.35311429 28.2366667,0.115352381 26.7237143,0.000657142857 C26.4572381,-0.0184571429 25.7150476,0.382971429 25.1726667,0.707942857 C24.9442857,0.62192381 24.6779048,0.641038095 24.4114286,0.765295238 C23.9927619,0.956457143 18.8924762,3.8334 18.359619,4.25394286 C17.8552381,4.64581905 17.6744762,4.98991429 17.6459048,5.61118095 C17.5888571,6.67209524 18.083619,11.3172381 18.359619,12.330381 C18.4452381,12.6267619 18.5689524,12.894381 18.7306667,13.1045714 L18.7306667,13.8979048 C18.7306667,14.1081905 18.9590476,14.2706667 19.2635238,14.2706667 C19.568,14.2706667 19.796381,14.1081905 19.796381,13.8979048 L19.796381,13.8500952 C21.8707619,15.0544762 28.9502857,19.1547619 31.1008571,20.4164762 L31.1008571,20.426 L31.110381,20.4355238 L31.110381,21.0855238 C31.110381,21.2958095 31.3386667,21.4582857 31.6432381,21.4582857 C31.9477143,21.4582857 32.1760952,21.2958095 32.1760952,21.0855238 L32.1760952,20.7509524 C32.6613333,20.5789524 35.5920952,18.7533333 37.5333333,17.4917143 C37.6284762,17.5586667 37.761619,17.5968571 37.9139048,17.5968571 C38.218381,17.5968571 38.4467619,17.434381 38.4467619,17.2240952 L38.4467619,16.8895238 C38.6370476,16.7653333 38.808381,16.6505714 38.941619,16.5550476 L38.9700952,16.5359048 L38.9891429,16.5072381 C40.3499048,14.1368571 40.0168571,10.4570476 39.798,9.62552381 Z M39.0938095,9.11895238 C39.293619,9.20495238 39.4459048,9.40571429 39.522,9.702 C39.522,9.72114286 39.5315238,9.74019048 39.5315238,9.74980952 C38.4562857,11.0879048 34.0030476,13.506 32.8992381,13.7354286 C32.7945714,13.4391429 32.6138095,13.2001905 32.3568571,13.066381 C32.2807619,13.0185714 32.1951429,12.9899048 32.1189524,12.980381 C32.1475238,12.9517143 32.185619,12.9325714 32.2140952,12.9039048 C32.7089524,12.5693333 37.5522857,9.702 38.5895238,9.13809524 C38.7417143,9.06161905 38.9320952,9.052 39.0938095,9.11895238 Z M32.0714286,20.4642857 C31.7668571,20.5311429 31.5004762,20.3878095 31.3672381,20.2826667 C31.3386667,19.1739048 31.4909524,15.1404762 31.6527619,14.0508571 C31.7098095,13.6589524 31.7954286,13.3531429 31.9857143,13.1141905 C32.0809524,13.1141905 32.185619,13.1428571 32.2902857,13.2001905 C32.4234286,13.2766667 32.7375238,13.4964762 32.8231429,14.0221905 C32.9468571,14.8345714 32.813619,18.6004762 32.0714286,20.4642857 C32.0714286,20.4642857 32.0714286,20.4546667 32.0714286,20.4642857 Z M19.3397143,11.0019048 C19.4348571,11.1260952 19.568,11.2695238 19.7393333,11.432 C20.5480952,12.1870476 23.5645714,13.9457143 24.4495238,14.2324762 C24.8205714,14.3566667 25.1440952,14.4140952 25.429619,14.4140952 C25.467619,14.4140952 25.4961905,14.4140952 25.5342857,14.4044762 C25.6199048,14.6242857 25.8006667,14.8441905 26.1241905,15.15 C26.9330476,15.9050476 29.9494286,17.6637143 30.834381,17.9504762 C30.9295238,17.9791429 31.0246667,18.0078095 31.1198095,18.0364762 C31.0913333,18.8489524 31.0818095,19.5849524 31.0818095,20.0532381 C29.1120952,18.9062857 19.9010476,13.5538095 19.3491429,13.248 C19.3681905,12.7509524 19.3586667,11.9385714 19.3397143,11.0019048 Z M23.9260952,2.42838095 C23.9260952,2.46660952 23.935619,2.5144 23.935619,2.55262857 C24.0593333,3.55621905 24.392381,5.24797143 24.6873333,6.28979048 C24.4114286,6.242 24.0593333,6.26111429 23.583619,6.4331619 C22.28,6.91104762 20.1960952,8.20142857 19.7202857,8.63152381 C19.5585714,8.77485714 19.3967619,8.93733333 19.2825714,9.10942857 C19.2255238,7.83819048 19.1588571,6.6052381 19.0732381,5.82144762 C19.0541905,5.59205714 18.9971429,5.42001905 18.9304762,5.27664762 C19.6346667,4.9612381 22.1181905,3.53710476 23.9260952,2.42838095 Z M25.0394286,1.11894286 C25.1821905,1.09026667 25.3439048,1.08070476 25.5057143,1.10938095 C26.6,1.26230476 35.1924762,6.44272381 35.8014286,6.96838095 C36.4104762,7.49409524 37.1812381,8.3447619 37.0099048,9.72114286 C36.0679048,10.2659048 34.8784762,10.9731429 33.898381,11.5561905 L33.0324762,11.049619 C32.499619,10.7342857 32.0333333,10.4665714 31.776381,10.3232381 L24.982381,6.29935238 C24.6873333,5.2957619 24.3448571,3.51798095 24.211619,2.5144 C24.1449524,2.00782857 24.3258095,1.5586 24.6873333,1.31965714 C24.8015238,1.26230476 24.9157143,1.18584762 25.0394286,1.11894286 Z M31.3672381,14.0030476 C31.3101905,14.3949524 31.2530476,15.1691429 31.2055238,16.0484762 C31.0913333,16.0198095 30.9771429,15.9911429 30.8629524,15.9528571 C30.1207619,15.704381 27.1994286,14.1273333 26.238381,13.2671429 C26.1241905,13.1715238 26.0195238,13.0568571 25.9339048,12.9612381 C26.0195238,12.8369524 26.1432381,12.7222857 26.286,12.5884762 C26.7427619,12.1679048 28.7790476,10.9062857 30.0540952,10.4475238 C30.7867619,10.1799048 31.1864762,10.3327619 31.424381,10.4665714 C31.4528571,10.4857143 31.5195238,10.524 31.6337143,10.5813333 L33.5939048,11.7378095 C32.813619,12.2061905 32.2140952,12.5693333 32.052381,12.6744762 C31.5575238,13.0090476 31.4433333,13.5347619 31.3672381,14.0030476 Z M31.1293333,17.7498095 C31.0627619,17.7306667 30.9866667,17.7115238 30.92,17.6828571 C30.0731429,17.4057143 27.0947619,15.6661905 26.324,14.9397143 C25.9434286,14.5860952 25.7911429,14.3662857 25.7720952,14.1368571 C25.7626667,14.0508571 25.7626667,13.9839048 25.7626667,13.8597143 C25.7626667,13.7545714 25.7626667,13.6207619 25.7626667,13.4104762 C25.7626667,13.2958095 25.7911429,13.1810476 25.8578095,13.066381 C25.9434286,13.162 26.0480952,13.2671429 26.1527619,13.3531429 C27.1233333,14.2228571 30.0731429,15.8286667 30.8248571,16.0771429 C30.9485714,16.1153333 31.0722857,16.153619 31.196,16.1822857 C31.1674286,16.698381 31.148381,17.233619 31.1293333,17.7498095 Z M25.4771429,13.42 C25.4771429,13.6207619 25.4771429,13.7640952 25.4771429,13.8597143 C25.4771429,13.974381 25.4771429,14.0413333 25.4771429,14.1273333 C25.2202857,14.1368571 24.8967619,14.0795238 24.5446667,13.9552381 C23.7072381,13.6780952 20.7194286,11.9385714 19.9486667,11.2120952 C19.568,10.8584762 19.4158095,10.6386667 19.3967619,10.4092381 C19.3872381,10.3232381 19.3872381,10.256381 19.3872381,10.1320952 C19.3872381,10.0269524 19.3872381,9.89314286 19.3872381,9.68285714 C19.3872381,9.56819048 19.4158095,9.45342857 19.482381,9.3387619 C19.568,9.43438095 19.6726667,9.53952381 19.7774286,9.62552381 C20.748,10.4953333 23.6978095,12.1010476 24.4495238,12.3495238 C24.6779048,12.426 24.9252381,12.5024762 25.2107619,12.5024762 C25.429619,12.5024762 25.6674286,12.4546667 25.9529524,12.3208571 C26.1051429,12.244381 26.3050476,12.1488571 26.5334286,12.0245714 C26.3525714,12.158381 26.200381,12.2635238 26.1146667,12.3495238 C25.781619,12.6554286 25.467619,12.980381 25.4771429,13.42 Z M30.1778095,9.788 C30.2539048,9.89314286 30.2824762,9.97914286 30.292,10.0651429 C30.1873333,10.0939048 30.0731429,10.1225714 29.9589524,10.1702857 C29.749619,10.2467619 29.5307619,10.342381 29.2928571,10.4475238 C29.4831429,10.3327619 29.616381,10.2467619 29.6830476,10.1989524 C29.9019048,10.0460952 30.063619,9.91228571 30.1778095,9.788 Z M30.5774286,10.0118619 C30.5774286,9.9918619 30.568,9.9616619 30.568,9.9416619 L30.6726667,10.0018619 C30.6440952,10.0118619 30.606,10.0118619 30.5774286,10.0118619 Z M25.0489524,6.72942857 C25.3059048,6.88238095 29.8542857,9.52038095 29.8542857,9.52038095 C29.9494286,9.57771429 30.0255238,9.62552381 30.0826667,9.68285714 C29.9684762,9.80714286 29.8161905,9.93133333 29.6068571,10.0842857 C29.2262857,10.342381 26.7712381,11.7951429 25.8862857,12.2157143 C25.3344762,12.4738095 24.9633333,12.3878095 24.4970476,12.2348571 C23.7548571,11.9862857 20.833619,10.4092381 19.8725714,9.54904762 C19.758381,9.45342857 19.6537143,9.3387619 19.568,9.2432381 C19.6537143,9.11895238 19.7774286,9.00428571 19.9200952,8.87047619 C20.3768571,8.44990476 22.4131429,7.18828571 23.6882857,6.72942857 C24.4114286,6.44272381 24.8110476,6.59561905 25.0489524,6.72942857 Z M37.1526667,6.11775238 C37.8568571,6.79638095 38.5419048,7.66609524 38.3897143,8.92780952 C38.1327619,9.07114286 37.6855238,9.31961905 37.1621905,9.63504762 C37.2859048,8.2587619 36.505619,7.39847619 35.8871429,6.8632381 C35.249619,6.30890476 26.6760952,1.12849524 25.5152381,0.966009524 C25.4485714,0.956457143 25.382,0.946895238 25.3154286,0.946895238 C25.9053333,0.602809524 26.5239048,0.277838095 26.685619,0.2874 C28.0653333,0.392533333 36.5437143,5.5156 37.1526667,6.11775238 Z M18.5213333,4.47378095 C19.0446667,4.06279048 24.0974286,1.21451429 24.5160952,1.0233619 C24.6017143,0.98512381 24.6873333,0.956457143 24.7635238,0.946895238 C24.6398095,1.0233619 24.5541905,1.08070476 24.5351429,1.09026667 C24.1544762,1.33877143 23.9260952,1.76887619 23.9166667,2.26589524 C22.1372381,3.36505714 19.5395238,4.84654286 18.854381,5.17151429 C18.7592381,5.02814286 18.6450476,4.9325619 18.5499048,4.87521905 C18.4357143,4.80830476 18.312,4.7796381 18.2073333,4.77007619 C18.2929524,4.66494286 18.3880952,4.5693619 18.5213333,4.47378095 Z M17.912381,5.62073333 C17.9313333,5.31487619 17.9789524,5.10460952 18.1026667,4.90388571 C18.2073333,4.89433333 18.3500952,4.91344762 18.4737143,4.98991429 C18.6545714,5.09504762 18.8734286,5.3244381 18.9304762,5.84057143 C19.0160952,6.65295238 19.0922857,8.01019048 19.1493333,9.37704762 C19.1113333,9.47257143 19.1018095,9.57771429 19.1018095,9.69238095 C19.1018095,9.89314286 19.1018095,10.0364762 19.1018095,10.1320952 C19.1018095,10.2659048 19.1018095,10.342381 19.1113333,10.4475238 C19.1208571,10.5526667 19.1493333,10.6578095 19.2064762,10.7533333 C19.2349524,11.7474286 19.2349524,12.6267619 19.216,13.1715238 C19.0066667,13.0281905 18.7592381,12.7127619 18.626,12.2348571 C18.3500952,11.2790476 17.8552381,6.63390476 17.912381,5.62073333 Z M19.4919048,13.8787619 C19.482381,13.8979048 19.3967619,13.9648571 19.2444762,13.9648571 C19.0827619,13.9648571 18.9971429,13.8979048 18.9971429,13.8787619 L18.9971429,13.3818095 C19.0637143,13.429619 19.1398095,13.4773333 19.2064762,13.5060952 C19.2349524,13.5251429 19.3301905,13.5824762 19.4919048,13.6685714 L19.4919048,13.8787619 Z M31.6337143,21.152381 C31.4719048,21.152381 31.3862857,21.0855238 31.3862857,21.066381 L31.3862857,20.6267619 C31.5195238,20.693619 31.6907619,20.7509524 31.8810476,20.7605714 L31.8810476,21.066381 C31.871619,21.0855238 31.7859048,21.152381 31.6337143,21.152381 Z M38.1518095,17.2049524 C38.1422857,17.2240952 38.0566667,17.2909524 37.904381,17.2909524 C37.8758095,17.2909524 37.8378095,17.2909524 37.8187619,17.2814286 C37.9329524,17.2049524 38.0471429,17.1284762 38.1613333,17.061619 L38.1518095,17.2049524 Z M38.7322857,16.3160952 C37.2668571,17.3387619 33.2227619,19.871619 32.2521905,20.3686667 C32.956381,18.4475238 33.08,14.796381 32.956381,13.9935238 C32.9468571,13.9361905 32.9373333,13.8787619 32.9182857,13.8310476 C34.0411429,13.5824762 38.3801905,11.2312381 39.5505714,9.86447619 C39.7599048,10.9158095 39.9787619,14.1751429 38.7322857,16.3160952 Z" id="Shape"></path>
            <path d="M17.2485714,22.0030476 C17.2385714,22.0030476 17.2185714,22.0126667 17.2185714,22.0317143 L17.2285714,23.4845714 C17.2285714,23.4940952 17.2385714,23.5037143 17.2585714,23.5037143 C17.2685714,23.5037143 17.2785714,23.4940952 17.2785714,23.4749524 L17.2685714,22.0221905 C17.2785714,22.0126667 17.2685714,22.0030476 17.2485714,22.0030476 Z" id="Path"></path>
            <path d="M23.4406667,18.9254286 C23.4217143,18.7342857 23.3931429,18.4092381 22.8507619,18.0939048 C22.8221905,18.0747619 18.302381,15.4559048 18.0454286,15.3029524 C17.7789524,15.15 17.217619,14.8250476 16.4087619,15.2742857 C15.5333333,15.7617143 12.2029524,17.7306667 11.6510476,18.0651429 C11.2322857,18.3232381 11.0134286,18.6673333 11.0229524,19.0782857 C11.0229524,19.2790476 11.0229524,19.422381 11.0229524,19.518 C11.0229524,19.6518095 11.0229524,19.7282857 11.0324762,19.8334286 C11.0515238,19.9672381 11.0800952,20.1201905 11.1466667,20.2635238 C11.1466667,20.3781905 11.1466667,20.5406667 11.1466667,20.7031429 C11.1466667,21.152381 11.1466667,21.429619 11.1466667,21.4964762 C11.1657143,21.6399048 11.2038095,21.802381 11.3464762,21.9648571 L11.3464762,23.245619 C11.3464762,23.4940952 11.6224762,23.6852381 11.9935238,23.6852381 C12.3646667,23.6852381 12.6406667,23.4940952 12.6406667,23.245619 L12.6406667,22.7580952 C13.3638095,23.1786667 14.3248571,23.7330476 15.1241905,24.1822857 C15.7617143,24.5455238 16.3040952,24.8608571 16.5515238,25.0042857 L16.5515238,26.0364762 C16.5515238,26.2850476 16.8369524,26.4761905 17.1985714,26.4761905 C17.5600952,26.4761905 17.845619,26.2850476 17.845619,26.0364762 L17.845619,25.0424762 C18.4926667,24.6601905 20.6907619,23.3602857 21.9753333,22.6052381 L21.9753333,23.236 C21.9753333,23.4845714 22.2512381,23.6757143 22.622381,23.6757143 C22.9935238,23.6757143 23.2694286,23.4845714 23.2694286,23.236 L23.2694286,21.7354286 C23.3455238,21.6302857 23.3931429,21.515619 23.4026667,21.3913333 C23.4217143,21.152381 23.4217143,20.1488571 23.4121905,19.7951429 C23.4597143,19.432 23.4692381,19.1547619 23.4406667,18.9254286 Z M23.1552381,19.7186667 C23.1457143,19.7282857 23.1457143,19.7569524 23.1457143,19.8047619 C23.1266667,20.1105714 22.8221905,20.426 22.5462857,20.5789524 C22.2512381,20.7414286 18.4070476,23.0161905 17.798,23.3794286 C17.3318095,23.6565714 16.9511429,23.5514286 16.5134286,23.3029524 C16.4087619,23.245619 15.7902857,22.882381 15.0290476,22.4427619 C13.839619,21.7545714 12.2980952,20.8560952 11.8413333,20.5884762 C11.632,20.4641905 11.5082857,20.34 11.4321905,20.2061905 C11.4321905,20.2061905 11.4321905,20.2061905 11.4321905,20.1965714 C11.356,20.072381 11.3275238,19.9385714 11.318,19.8047619 C11.3084762,19.7186667 11.3084762,19.6518095 11.3084762,19.5275238 C11.3084762,19.422381 11.3084762,19.2885714 11.3084762,19.0782857 C11.3084762,18.9444762 11.3370476,18.8298095 11.3940952,18.7151429 C11.4797143,18.8011429 11.584381,18.877619 11.6985714,18.9444762 C12.1648571,19.2120952 13.792,20.1488571 15.0004762,20.8465714 C15.7140952,21.2575238 16.2850476,21.5824762 16.3801905,21.6399048 C16.6371429,21.7927619 16.9130476,21.9170476 17.217619,21.9170476 C17.4174286,21.9170476 17.6362857,21.8597143 17.8741905,21.7162857 C18.4926667,21.3435238 22.3274286,19.0974286 22.6128571,18.9444762 C22.7651429,18.8584762 22.9078095,18.7438095 23.0315238,18.61 C23.1266667,18.7438095 23.1457143,18.8584762 23.1552381,18.9540952 C23.1838095,19.1547619 23.1742857,19.3937143 23.1552381,19.7186667 Z M16.8179048,23.9433333 C16.7608571,23.9051429 16.0852381,23.5227619 15.2479048,23.0353333 C13.8680952,22.242 11.9840952,21.152381 11.6985714,20.9899048 C11.5653333,20.9134286 11.4892381,20.8274286 11.4417143,20.7414286 C11.4417143,20.7318095 11.4417143,20.7222857 11.4417143,20.7127619 C11.4417143,20.6840952 11.4417143,20.6649524 11.4417143,20.6362857 C11.5178095,20.7031429 11.6034286,20.7700952 11.7080952,20.8274286 C12.1648571,21.0950476 13.706381,21.9839048 14.8958095,22.6817143 C15.6570476,23.1213333 16.2755238,23.4845714 16.3801905,23.5419048 C16.6371429,23.6948571 16.9225714,23.8190476 17.255619,23.8190476 C17.4744762,23.8190476 17.7028571,23.7617143 17.9502857,23.6087619 C18.5497143,23.2551429 22.4035238,20.9707619 22.6889524,20.8179048 C22.8507619,20.7318095 23.022,20.598 23.1647619,20.426 C23.1647619,20.4738095 23.1647619,20.5311429 23.1647619,20.5789524 C23.0981905,20.7031429 22.9649524,20.8274286 22.8507619,20.8847619 C22.6794286,20.980381 18.0644762,23.704381 17.6172381,23.972 C17.3127619,24.1631429 17.084381,24.0962857 16.8179048,23.9433333 Z M11.8127619,18.3040952 C12.3646667,17.969619 15.6760952,16.0006667 16.5610476,15.5132381 C16.8179048,15.3698095 17.0367619,15.3220952 17.2270476,15.3220952 C17.531619,15.3220952 17.76,15.4559048 17.9121905,15.5419048 C18.1691429,15.6948571 22.7175238,18.3327619 22.7175238,18.3327619 C22.8126667,18.3901905 22.8888571,18.4475238 22.9459048,18.4953333 C22.8317143,18.6195238 22.6984762,18.7342857 22.5558095,18.8106667 C22.2702857,18.963619 18.4355238,21.2193333 17.8170476,21.5824762 C17.3222857,21.8788571 16.9130476,21.7640952 16.4658095,21.5060952 C16.3706667,21.4486667 15.7998095,21.1237143 15.0860952,20.7127619 C13.877619,20.0150476 12.26,19.0879048 11.7937143,18.8106667 C11.6795238,18.7438095 11.5748571,18.6673333 11.4987619,18.5813333 C11.5559048,18.4857143 11.67,18.3901905 11.8127619,18.3040952 Z M12.3741905,23.2551429 C12.3741905,23.3124762 12.2314286,23.4080952 12.0125714,23.4080952 C11.7841905,23.4080952 11.6510476,23.3029524 11.6510476,23.2551429 L11.6510476,22.1846667 C11.7747619,22.2611429 12.0411429,22.4140952 12.3837143,22.6052381 L12.3837143,23.2551429 L12.3741905,23.2551429 Z M11.7271429,21.9075238 C11.4892381,21.7640952 11.4511429,21.6111429 11.4321905,21.4773333 C11.4321905,21.4391429 11.4321905,21.2097143 11.4321905,20.980381 C11.4797143,21.0281905 11.546381,21.0759048 11.6224762,21.1237143 C11.9079048,21.2861905 13.792,22.3758095 15.1717143,23.1691429 C16.0091429,23.6565714 16.6846667,24.0389524 16.7418095,24.0771429 C16.8940952,24.1631429 17.0462857,24.239619 17.2270476,24.2491429 L17.2365714,24.9564762 C17.2365714,24.966 17.2460952,24.975619 17.2651429,24.975619 C17.2746667,24.975619 17.2841905,24.966 17.2841905,24.9469524 L17.2746667,24.239619 C17.398381,24.239619 17.531619,24.2014286 17.6838095,24.1153333 C18.1310476,23.8477143 22.7460952,21.1237143 22.9173333,21.0377143 C23.0029524,20.9899048 23.0886667,20.9230476 23.1647619,20.8465714 C23.1647619,21.0950476 23.1552381,21.3148571 23.1552381,21.4009524 C23.1457143,21.5538095 22.9744762,21.7354286 22.8221905,21.8214286 C22.6319048,21.9265714 17.8741905,24.7366667 17.5886667,24.9086667 C17.3318095,25.061619 17.122381,25.0042857 16.8750476,24.8608571 C16.8179048,24.8226667 16.1422857,24.440381 15.3049524,23.9528571 C13.8966667,23.159619 12.0125714,22.07 11.7271429,21.9075238 Z M17.217619,26.2085714 C16.9892381,26.2085714 16.856,26.1034286 16.856,26.055619 L16.856,25.1859048 C16.9797143,25.2432381 17.122381,25.2910476 17.2746667,25.2910476 C17.3698095,25.2910476 17.4744762,25.2719048 17.5886667,25.2240952 L17.5886667,26.055619 C17.5791429,26.1034286 17.4459048,26.2085714 17.217619,26.2085714 Z M22.6414286,23.4080952 C22.4130476,23.4080952 22.2798095,23.3029524 22.2798095,23.2551429 L22.2798095,22.4522857 C22.6509524,22.2324762 22.9078095,22.0890476 22.9459048,22.060381 C22.9649524,22.0508571 22.9935238,22.0317143 23.0124762,22.0221905 L23.0124762,23.2551429 C23.0029524,23.3124762 22.8698095,23.4080952 22.6414286,23.4080952 Z" id="Shape"></path>
        </g>
    </g>
</svg>