<?xml version="1.0" encoding="utf-8"?>
<!-- Generator: Adobe Illustrator 17.0.0, SVG Export Plug-In . SVG Version: 6.00 Build 0)  -->
<!DOCTYPE svg PUBLIC "-//W3C//DTD SVG 1.1//EN" "http://www.w3.org/Graphics/SVG/1.1/DTD/svg11.dtd">
<svg version="1.1" id="Слой_1" xmlns="http://www.w3.org/2000/svg" xmlns:xlink="http://www.w3.org/1999/xlink" x="0px" y="0px"
	 width="326.4px" height="374px" viewBox="0 0 326.4 374" enable-background="new 0 0 326.4 374" xml:space="preserve">
<g>
	<path d="M149.848,277.854c-4.251,0.001-8.485-1.237-12.672-3.711c-3.535-2.09-15.344-8.799-29.017-16.567
		c-32.536-18.484-55.701-31.683-57.456-33.145l-0.547-0.456l-0.202-0.681c-2.486-8.391-4.303-17.308,2.979-25.956l3.594,3.026
		c-5.084,6.037-4.75,12.252-2.297,20.812c4.734,3.047,35.528,20.543,56.25,32.316c13.692,7.779,25.517,14.497,29.088,16.607
		c6.406,3.785,12.661,4.053,19.127,0.821c1.48-0.74,12.987-7.484,26.311-15.292c18.201-10.667,40.853-23.943,51.887-30.102
		c16.483-9.201,19.943-25.495,19.943-37.545V69.418c0-1.094-1.359-5.052-2.754-6.124c-3.312-1.897-75.892-43.473-92.888-53.579
		c-16.267,1.252-20.021,16.464-20.021,18.757c0,5.786-0.223,112.932-0.225,114.013l-4.698-0.009
		c0.002-1.082,0.225-108.223,0.225-114.004c0-4.896,6.029-22.511,25.174-23.493l0.713-0.037l0.613,0.366
		c15.995,9.553,92.778,53.53,93.552,53.972l0.18,0.114c3.135,2.194,4.826,8.095,4.826,10.024V187.98
		c0,19.084-7.728,33.485-22.35,41.646c-10.992,6.135-33.62,19.397-51.803,30.054c-15.943,9.344-25.04,14.668-26.584,15.441
		C157.15,276.944,153.492,277.854,149.848,277.854z"/>
	<path d="M144.23,274.845c-2.399-8.041-2.171-15.256,0.676-21.443l2.135,0.982c-2.603,5.654-2.791,12.313-0.56,19.79L144.23,274.845
		z"/>
	<path d="M232.921,199.249l-2.349-0.005c0.002-1.117,0.225-111.73,0.225-117.469c0-4.618,5.762-21.235,24.061-22.166l0.119,2.346
		c-16.604,0.845-21.832,15.694-21.832,19.82C233.146,87.517,232.922,198.133,232.921,199.249z"/>
	<path d="M201.07,180.322h-0.002c-0.433-0.001-0.783-0.352-0.781-0.784c0.003-1.104,0.229-110.464,0.229-116.138
		c0-4.487,5.77-20.631,24.09-21.537c0.414-0.026,0.798,0.313,0.82,0.743c0.021,0.432-0.31,0.8-0.743,0.821
		c-17.188,0.85-22.601,15.815-22.601,19.973c0,5.675-0.228,115.037-0.229,116.141C201.851,179.972,201.501,180.322,201.07,180.322z"
		/>
	<path d="M164.795,159.966h-0.002c-0.433-0.001-0.783-0.352-0.781-0.784c0.002-1.1,0.228-110.042,0.228-115.695
		c0-4.47,5.737-20.555,23.96-21.458c0.427-0.021,0.8,0.312,0.82,0.743c0.021,0.432-0.31,0.8-0.743,0.821
		c-17.09,0.846-22.471,15.752-22.471,19.894c0,5.655-0.226,114.599-0.228,115.698C165.577,159.616,165.227,159.966,164.795,159.966z
		"/>
	<path d="M228.136,78.675c-0.135,0-0.269-0.034-0.393-0.106l-84.591-49.194c-0.375-0.217-0.502-0.697-0.284-1.07
		c0.217-0.375,0.697-0.5,1.07-0.283l84.591,49.194c0.375,0.217,0.502,0.697,0.284,1.07
		C228.668,78.536,228.405,78.675,228.136,78.675z"/>
	<path d="M250.656,243.086c0-10.862-3.96-16.638-7.481-19.624c-2.558,1.847-5.243,3.622-8.175,5.402
		c0.344,0.454,0.755,0.83,1.228,1.121c3.245,1.997,5.032,6.65,5.032,13.101v74.769c0,2.59,2.107,4.698,4.698,4.698
		c2.59,0,4.698-2.107,4.698-4.698V243.086z"/>
	<path d="M162.968,283.798c0-1.801,0.294-6.577,3.006-12.002c0.196-0.391,0.33-0.803,0.405-1.234
		c-1.515,0.664-2.882,1.284-4.248,1.903c-2.249,1.02-4.574,2.073-7.549,3.316c-0.875,3.642-1.009,6.569-1.009,8.017v82.99
		c0,2.59,2.107,4.698,4.698,4.698c2.59,0,4.698-2.107,4.698-4.698V283.798z"/>
	<path d="M63.275,234.474c0-0.819,0.067-2.447,0.488-4.596c-2.988-1.22-5.907-3.063-8.38-5.284c-1.298,4.393-1.503,8.024-1.503,9.88
		v82.99c0,2.59,2.107,4.698,4.698,4.698c2.59,0,4.698-2.107,4.698-4.698V234.474z"/>
	<g>
		<ellipse transform="matrix(0.4959 0.8684 -0.8684 0.4959 261.7432 -60.5615)" cx="183.033" cy="195.156" rx="2.349" ry="5.154"/>
		<ellipse transform="matrix(0.4959 0.8684 -0.8684 0.4959 261.4186 -15.0318)" cx="143.656" cy="217.641" rx="2.349" ry="5.154"/>
	</g>
	<g>
		<ellipse transform="matrix(0.4959 0.8684 -0.8684 0.4959 221.1957 -36.564)" cx="142.09" cy="172.232" rx="2.349" ry="5.154"/>
		<ellipse transform="matrix(0.4959 0.8684 -0.8684 0.4959 220.871 8.9659)" cx="102.713" cy="194.717" rx="2.349" ry="5.154"/>
	</g>
	<path d="M147.583,257.286l-95.327-55.475v-7.791c0-1.858,0.687-5.382,5.291-8.115c2.052-1.219,24.742-14.343,44.761-25.921
		c15.678-9.069,30.488-17.636,31.241-18.087c2.786-1.669,6.566-1.58,9.777,0.345c3.3,1.98,82.762,48.048,85.024,49.292
		c3.479,1.912,5.473,5.178,5.473,8.959v6.757L147.583,257.286z M56.954,199.11l90.633,52.744l81.539-47.308v-4.052
		c0-2.759-1.904-4.218-3.038-4.842c-2.269-1.248-81.872-47.398-85.177-49.38c-1.719-1.028-3.649-1.122-4.945-0.344
		c-0.784,0.469-14.928,8.651-31.305,18.124c-20.007,11.573-42.685,24.69-44.715,25.895c-2.603,1.545-2.991,3.217-2.991,4.076V199.11
		z"/>
	<path d="M147.878,243.942c-1.94,0-3.84-0.545-5.762-1.634c-3.415-1.935-83.496-48.355-84.305-48.824l1.177-2.032
		c0.809,0.469,80.881,46.883,84.287,48.813c3.231,1.83,6.279,1.758,9.894-0.236c4.311-2.383,73.855-42.45,74.557-42.854l1.171,2.035
		c-0.702,0.404-70.263,40.482-74.594,42.874C152.062,243.324,149.947,243.942,147.878,243.942z"/>
</g>
</svg>
