<?xml version="1.0" encoding="UTF-8"?>
<svg width="40px" height="40px" viewBox="0 0 40 40" version="1.1" xmlns="http://www.w3.org/2000/svg" xmlns:xlink="http://www.w3.org/1999/xlink">
    <title>Category Icon/category-bed</title>
    <g id="Category-Icon/category-bed" stroke="none" stroke-width="1" fill="none" fill-rule="evenodd">
        <g id="category-bed" transform="translate(0.000000, 3.000000)" fill="#000000" fill-rule="nonzero">
            <path d="M25.5955191,4.53175956 C25.4753005,4.53175956 25.3769399,4.68500546 25.3769399,4.88203279 C25.3769399,5.07907104 25.4753005,5.23231694 25.5955191,5.23231694 C25.7157377,5.23231694 25.8140984,5.07907104 25.8140984,4.88203279 C25.8140984,4.68500546 25.7157377,4.53175956 25.5955191,4.53175956 Z" id="Path"></path>
            <path d="M27.6285246,5.7249071 C27.508306,5.7249071 27.4099454,5.87816393 27.4099454,6.07519126 C27.4099454,6.27222951 27.508306,6.42547541 27.6285246,6.42547541 C27.7487432,6.42547541 27.8471038,6.27222951 27.8471038,6.07519126 C27.8471038,5.87816393 27.7487432,5.7249071 27.6285246,5.7249071 Z" id="Path"></path>
            <path d="M29.7485246,6.96183607 C29.628306,6.96183607 29.5299454,7.11508197 29.5299454,7.31212022 C29.5299454,7.50914754 29.628306,7.66239344 29.7485246,7.66239344 C29.8687432,7.66239344 29.9671038,7.50914754 29.9671038,7.31212022 C29.9671038,7.11508197 29.8687432,6.96183607 29.7485246,6.96183607 Z" id="Path"></path>
            <path d="M31.7815301,8.16593443 C31.6613115,8.16593443 31.5629508,8.31918033 31.5629508,8.51620765 C31.5629508,8.7132459 31.6613115,8.8664918 31.7815301,8.8664918 C31.9017486,8.8664918 32.0001093,8.7132459 32.0001093,8.51620765 C32.0001093,8.31918033 31.9017486,8.16593443 31.7815301,8.16593443 Z" id="Path"></path>
            <path d="M33.890929,9.39191257 C33.7707104,9.39191257 33.6723497,9.5451694 33.6723497,9.74218579 C33.6723497,9.93923497 33.7707104,10.092459 33.890929,10.092459 C34.0111475,10.092459 34.1095082,9.93923497 34.1095082,9.74218579 C34.1095082,9.5451694 34.0111475,9.39191257 33.890929,9.39191257 Z" id="Path"></path>
            <path d="M38.7650273,8.46147541 L38.273224,8.73513661 L25.2786885,1.28071038 L25.2786885,0.634885246 L24.1311475,0 L23.0273224,0.656775956 L23.0273224,7.12603279 L23.0163934,7.13697268 C22.1311475,7.4544153 21.2677596,7.95794536 20.568306,8.47242623 L18.2404372,9.81879781 C17.8579235,9.72032787 17.5191257,9.79693989 17.2896175,9.92830601 C17.1693989,10.004918 14.0437158,11.8110383 10.7322404,13.7266667 C6.57923497,16.1348634 1.8579235,18.8604372 1.54098361,19.0465574 C0.896174863,19.4296175 0.808743169,19.9003279 0.808743169,20.1521311 L0.808743169,20.8417486 L0,21.312459 L0,25.4829508 L15.6502732,34.5355191 L39.9125683,20.5024044 L40,20.4585792 L40,9.16203279 L38.7650273,8.46147541 Z M24.1420765,0.383114754 L24.9617486,0.842863388 L24.9617486,1.47774863 L38.273224,9.12920219 L38.7650273,8.85554098 L39.5846995,9.31528962 L38.8306011,9.73125683 L23.431694,0.799081967 L24.1420765,0.383114754 Z M15.8142077,30.3978142 L38.7103825,17.12 L38.7103825,20.8197814 L15.8142077,34.0648087 L15.8142077,30.3978142 Z M37.3114754,14.3396721 C36.7540984,15.1277596 34.852459,16.7697268 32.284153,17.273224 C32.9726776,16.1567213 34.9508197,14.383388 37.3114754,14.3396721 Z M32.0874317,17.284153 C29.9125683,16.0362842 26.7978142,14.219235 26.0874317,13.8142077 C26.7650273,12.829071 29.4098361,10.9243716 31.4972678,10.9681967 C33.1584699,11.8876503 36.0765027,13.5843716 37.1038251,14.1754098 C34.6885246,14.3286339 32.7213115,16.1785792 32.0874317,17.284153 Z M25.989071,13.4091803 C25.8688525,13.4310383 25.7704918,13.4530055 25.6502732,13.4639344 C26.3387978,12.3365027 28.3169399,10.5193443 30.6994536,10.4756284 C30.6448087,10.5522404 30.568306,10.6507104 30.4918033,10.7382514 C28.6994536,11.1214208 26.7868852,12.4568306 25.989071,13.4091803 Z M25.4644809,13.4748634 C23.2896175,12.2269945 20.1857923,10.3770492 19.4863388,9.9610929 C20.1639344,8.97595628 22.7978142,7.06034973 24.8961749,7.11508197 C26.557377,8.03456831 29.4754098,9.73125683 30.5027322,10.3222951 C28.0765027,10.4756284 26.0983607,12.3583607 25.4644809,13.4748634 Z M23.715847,6.91805464 L23.8469945,6.84142077 L23.9016393,6.8742623 C23.8360656,6.89615301 23.7814208,6.90710383 23.715847,6.91805464 Z M19.4098361,9.52326776 C19.2786885,9.67650273 19.1803279,9.80786885 19.1147541,9.93923497 L19.0382514,10.0815301 L19.1693989,10.1581421 C19.2021858,10.18 22.9289617,12.4021858 25.3770492,13.8032787 L25.431694,13.8360656 L25.4863388,13.8251366 C25.5628415,13.8142077 25.6284153,13.8032787 25.704918,13.7923497 C25.715847,13.7923497 25.726776,13.7923497 25.726776,13.7923497 L25.6502732,13.9346448 L25.7923497,14.0112568 C25.8251366,14.0331148 29.5628415,16.2114754 32.010929,17.6125683 L32.0655738,17.6453552 L32.1202186,17.6344262 C34.6120219,17.2293989 36.568306,15.762623 37.3879781,14.7884153 L38.010929,15.1496175 L32.6448087,18.3131148 C32.5136612,18.1051366 32.3278689,17.9409836 32.0983607,17.8096175 C31.7377049,17.6125683 19.147541,10.3004372 18.6229508,9.98306011 C18.6229508,9.98306011 18.6229508,9.98306011 18.6120219,9.98306011 L19.4098361,9.52326776 Z M32.7103825,18.4663388 L38.0765027,15.3029508 L38.0765027,16.6274317 L32.8415301,19.6157377 L32.8415301,19.0574863 C32.8415301,18.8385792 32.7978142,18.6415301 32.7103825,18.4663388 Z M1.1147541,20.1630601 C1.1147541,19.9878689 1.19125683,19.6375956 1.69398907,19.3420765 C2.01092896,19.1559563 6.72131148,16.4303825 10.8852459,14.0221858 C14.3387978,12.0190164 17.3333333,10.2895082 17.4535519,10.2238251 C17.6284153,10.1253552 17.8907104,10.0706011 18.1967213,10.1581421 L18.2295082,10.2128962 L18.273224,10.1910383 C18.3278689,10.2128962 18.3934426,10.2456831 18.4480874,10.2785792 C18.9726776,10.5959563 31.5737705,17.9080874 31.9344262,18.1051366 C32.1530055,18.2255738 32.5245902,18.5101639 32.5245902,19.0574863 L32.5245902,19.8237158 L15.6830601,29.5877596 L1.1147541,21.0934426 L1.1147541,20.1630601 Z M15.5956284,29.9161749 L15.6830601,29.96 L32.7650273,20.0535519 L32.8415301,20.0098361 L32.8415301,19.955082 L32.863388,19.9878689 L38.4153005,16.8244809 L38.4153005,15.0182514 L37.5846995,14.536612 C37.6284153,14.4710383 37.6721311,14.4053552 37.704918,14.3396721 L37.7814208,14.197377 L37.6393443,14.1206557 C37.5956284,14.0987978 33.6393443,11.7891803 31.6284153,10.6726776 L31.5956284,10.6507104 L31.5519126,10.6507104 C31.3661202,10.6397814 31.1693989,10.6507104 30.9726776,10.6726776 C31.0163934,10.6069945 31.0601093,10.5413115 31.0928962,10.4756284 L31.1693989,10.3333333 L31.0273224,10.256612 C30.9836066,10.2347541 27.0273224,7.92510383 25.0163934,6.80859016 L24.9836066,6.78669945 L24.9398907,6.78669945 C24.6775956,6.77574863 24.4153005,6.79763934 24.1420765,6.84142077 L23.8360656,6.66628415 L23.3442623,6.95088525 L23.3442623,0.941377049 L38.7103825,9.85169399 L38.7103825,16.9229508 L15.6502732,30.2993443 L0.404371585,21.4547541 L0.775956284,21.2357377 L0.775956284,21.2795628 L15.5956284,29.9161749 Z M0.327868852,21.5970492 L15.4863388,30.3978142 L15.4863388,34.0538798 L0.327868852,25.2859016 L0.327868852,21.5970492 Z M38.8743169,20.7213115 L38.8743169,9.88448087 L39.6721311,9.44664481 L39.6721311,20.2615301 L38.8743169,20.7213115 Z" id="Shape"></path>
            <path d="M16.6775956,27.6722404 C17.3661202,27.289071 32.0546448,18.816612 32.2076503,18.729071 L32.1530055,18.6306011 C32,18.7181421 17.3114754,27.1906011 16.6229508,27.5736612 C16.010929,27.9130055 15.4754098,27.9239344 14.9289617,27.6065574 C14.3934426,27.3 1.70496175,19.933224 1.57381421,19.867541 C1.55195628,19.8565027 1.5191694,19.8565027 1.49731148,19.8893989 C1.48638251,19.9112568 1.48638251,19.944153 1.5191694,19.9660109 C1.65031694,20.042623 14.3278689,27.4095082 14.8743169,27.7159563 C15.1584699,27.8802186 15.431694,27.9568306 15.726776,27.9568306 C16.0218579,27.9568306 16.3387978,27.8582514 16.6775956,27.6722404 Z" id="Path"></path>
            <path d="M35.9997814,10.6288525 C35.8795628,10.6288525 35.7812022,10.7820765 35.7812022,10.9791257 C35.7812022,11.1761749 35.8795628,11.3293989 35.9997814,11.3293989 C36.12,11.3293989 36.2183607,11.1761749 36.2183607,10.9791257 C36.2183607,10.7820765 36.12,10.6288525 35.9997814,10.6288525 Z" id="Path"></path>
        </g>
    </g>
</svg>