<?xml version="1.0" encoding="UTF-8"?>
<svg width="40px" height="40px" viewBox="0 0 40 40" version="1.1" xmlns="http://www.w3.org/2000/svg" xmlns:xlink="http://www.w3.org/1999/xlink">
    <title>Category Icon/category-ugol</title>
    <g id="Category-Icon/category-ugol" stroke="none" stroke-width="1" fill="none" fill-rule="evenodd">
        <g id="category-ugol" transform="translate(0.000000, 5.307231)" fill="#000000" fill-rule="nonzero">
            <path d="M15.5690867,5.17130679 C15.6721311,5.17130679 15.7564403,5.04015925 15.7564403,4.87154098 C15.7564403,4.70292272 15.6721311,4.57177518 15.5690867,4.57177518 C15.4660422,4.57177518 15.381733,4.70292272 15.381733,4.87154098 C15.381733,5.03079157 15.4660422,5.17130679 15.5690867,5.17130679 Z" id="Path"></path>
            <path d="M13.8266979,6.19237471 C13.9297424,6.19237471 14.0140515,6.06122717 14.0140515,5.8926089 C14.0140515,5.72399063 13.9297424,5.59284309 13.8266979,5.59284309 C13.7236534,5.59284309 13.6393443,5.72399063 13.6393443,5.8926089 C13.6393443,6.06122717 13.7236534,6.19237471 13.8266979,6.19237471 Z" id="Path"></path>
            <path d="M12.0187354,7.25095082 C12.1217799,7.25095082 12.206089,7.11980328 12.206089,6.95118501 C12.206089,6.78256674 12.1217799,6.6514192 12.0187354,6.6514192 C11.9156909,6.6514192 11.8313817,6.78256674 11.8313817,6.95118501 C11.8313817,7.11980328 11.9156909,7.25095082 12.0187354,7.25095082 Z" id="Path"></path>
            <path d="M9.40515222,4.14088056 L10.5761124,4.76851522 C10.5854801,4.76851522 10.5948478,4.7778829 10.5948478,4.7778829 C10.6135831,4.7778829 10.6323185,4.76851522 10.6323185,4.74977986 C10.6416862,4.7310445 10.6323185,4.70294145 10.6135831,4.68420609 L9.44262295,4.05657143 C9.42388759,4.04720375 9.39578454,4.05657143 9.37704918,4.07530679 C9.37704918,4.09404215 9.38641686,4.1221452 9.40515222,4.14088056 Z" id="Path"></path>
            <path d="M30.5948478,24.0472131 C30.6229508,24.0472131 30.6416862,24.0284778 30.6416862,24.0003747 L30.6323185,22.4734426 C30.6323185,22.4453396 30.6135831,22.4266042 30.5854801,22.4266042 C30.557377,22.4266042 30.5386417,22.4453396 30.5386417,22.4734426 L30.5480094,24.0003747 C30.5480094,24.0191101 30.5667447,24.0472131 30.5948478,24.0472131 Z" id="Path"></path>
            <path d="M17.030445,14.5390164 C17.0023419,14.5390164 16.9836066,14.5577518 16.9836066,14.5858548 L16.9929742,16.1127869 C16.9929742,16.1408899 17.0117096,16.1596253 17.0398126,16.1596253 C17.0679157,16.1596253 17.0866511,16.1408899 17.0866511,16.1127869 L17.0772834,14.5858548 C17.0772834,14.5671194 17.058548,14.5390164 17.030445,14.5390164 Z" id="Path"></path>
            <path d="M23.7189696,18.5296487 C23.6908665,18.5296487 23.6721311,18.5483841 23.6721311,18.5764871 L23.6814988,19.9441686 C23.6814988,19.9722717 23.7002342,19.991007 23.7283372,19.991007 C23.7564403,19.991007 23.7751756,19.9722717 23.7751756,19.9441686 L23.765808,18.5764871 C23.765808,18.5483841 23.7470726,18.5296487 23.7189696,18.5296487 Z" id="Path"></path>
            <path d="M32.8899297,22.0237939 C32.9086651,22.0237939 32.9180328,22.0144262 32.9274005,22.0050585 C32.9367681,21.9863232 32.9367681,21.9582201 32.9086651,21.9394848 L31.6252927,21.1713349 C31.6065574,21.1619672 31.5784543,21.1619672 31.559719,21.1900703 C31.5503513,21.2088056 31.5503513,21.2369087 31.5784543,21.255644 L32.8618267,22.0237939 C32.8711944,22.0237939 32.8805621,22.0237939 32.8899297,22.0237939 Z" id="Path"></path>
            <path d="M36.1873536,13.4522717 C36.1967213,13.4522717 36.206089,13.4522717 36.206089,13.442904 L37.3770492,12.8152693 C37.3957845,12.8059016 37.4051522,12.7777986 37.3957845,12.7496956 C37.3864169,12.7309602 37.3583138,12.7215925 37.3302108,12.7309602 L36.1592506,13.3585948 C36.1405152,13.3679625 36.1311475,13.3960656 36.1405152,13.4241686 C36.1592506,13.442904 36.1779859,13.4522717 36.1873536,13.4522717 Z" id="Path"></path>
            <path d="M29.3021077,9.39615925 C29.3114754,9.39615925 29.3208431,9.39615925 29.3208431,9.38679157 L30.4918033,8.75915691 C30.5105386,8.74978923 30.5199063,8.72168618 30.5105386,8.69358314 C30.501171,8.67484778 30.4730679,8.66548009 30.4449649,8.67484778 L29.2740047,9.30248244 C29.2552693,9.31185012 29.2459016,9.33995316 29.2552693,9.36805621 C29.2740047,9.38679157 29.29274,9.39615925 29.3021077,9.39615925 Z" id="Path"></path>
            <path d="M22.5854801,5.44299766 C22.5948478,5.44299766 22.6042155,5.44299766 22.6042155,5.43362998 L23.7751756,4.80599532 C23.793911,4.79662763 23.8032787,4.76852459 23.793911,4.74042155 C23.7845433,4.72168618 23.7564403,4.7123185 23.7283372,4.72168618 L22.557377,5.34932084 C22.5386417,5.35868852 22.529274,5.38679157 22.5386417,5.41489461 C22.5480094,5.43362998 22.5667447,5.44299766 22.5854801,5.44299766 Z" id="Path"></path>
            <path d="M39.4473068,17.5273068 C39.2505855,17.3867916 38.9789227,17.2369087 38.6042155,17.0589227 C38.3887588,16.9558782 38.117096,16.9465105 37.8735363,16.9933489 L37.8735363,13.4148946 C37.8735363,12.8996721 37.7798595,12.3188759 37.1147541,11.9441686 C36.3559719,11.5132553 32.3934426,9.24627635 32.1124122,9.07765808 C31.8220141,8.89967213 31.381733,8.76852459 31.0070258,8.85283372 C30.8946136,8.51559719 30.6791569,8.26266979 30.3419204,8.07531616 C29.5831382,7.64437471 25.6206089,5.37739578 25.3395785,5.20877752 C25.0679157,5.04015925 24.6557377,4.91837939 24.2997658,4.9652178 C24.1967213,4.59987822 23.971897,4.32821546 23.6159251,4.12212646 C22.8571429,3.69121311 18.8946136,1.43360187 18.6135831,1.25561593 C18.3793911,1.1151007 18.0421546,1.00268852 17.7330211,1.00268852 C17.6393443,0.749761124 17.4800937,0.637348946 17.3676815,0.553039813 C17.1709602,0.41252459 16.9086651,0.262641686 16.5433255,0.0940234192 C16.1405152,-0.102697892 15.5784543,0.0378173302 15.2318501,0.253274005 C14.9320843,0.440627635 10.1545667,3.16662295 9.53629977,3.51322717 C9.18032787,3.70994848 8.96487119,3.98161124 8.85245902,4.33758314 C8.49648712,4.28137705 8.08430913,4.40315691 7.81264637,4.57177518 C7.53161593,4.74976112 3.56908665,7.01674005 2.81030445,7.43828571 C2.14519906,7.81299297 2.05152225,8.39381733 2.05152225,8.90903981 L2.05152225,12.4874941 C1.79859485,12.4406557 1.53629977,12.4500234 1.32084309,12.5530679 C0.946135831,12.7310539 0.683840749,12.8809368 0.477751756,13.0308197 C0.281030445,13.1525995 0,13.3586885 0,14.0237939 L0,18.1268384 C0,18.4640749 0,19.1572834 0.852459016,19.6725059 C0.861826698,19.6818735 0.880562061,19.6912412 0.889929742,19.7006089 L0.889929742,20.6186417 C0.889929742,20.8715691 1.18969555,21.0776581 1.57377049,21.0776581 C1.95784543,21.0776581 2.25761124,20.8809368 2.25761124,20.6186417 L2.25761124,20.4968618 C4.09367681,21.5647775 6.96955504,23.2322248 7.43793911,23.4851522 C7.52224824,23.5319906 7.5971897,23.5694614 7.68149883,23.5975644 L7.68149883,24.5530679 C7.68149883,24.8059953 7.98126464,25.0120843 8.36533958,25.0120843 C8.74941452,25.0120843 9.04918033,24.815363 9.04918033,24.5530679 L9.04918033,23.3540047 C9.08665105,23.3352693 9.1147541,23.316534 9.14285714,23.2977986 C9.264637,23.2322248 9.34894614,23.1853864 9.43325527,23.1198126 C9.67681499,22.9418267 9.94847775,22.6701639 9.98594848,22.1268384 L16.3653396,18.4734426 L16.3653396,19.4945199 C16.3653396,19.7474473 16.6651054,19.9535363 17.0491803,19.9535363 C17.4332553,19.9535363 17.7330211,19.756815 17.7330211,19.4945199 L17.7330211,18.4547073 L31.1569087,26.1643091 C31.2505855,26.5671194 31.4754098,26.7825761 31.6814988,26.932459 C31.765808,26.9980328 31.8501171,27.0355035 31.971897,27.110445 C32,27.1291803 32.0374707,27.1479157 32.0655738,27.1666511 L32.0655738,28.3657143 C32.0655738,28.6186417 32.3653396,28.8247307 32.7494145,28.8247307 C33.1334895,28.8247307 33.4332553,28.6280094 33.4332553,28.3657143 L33.4332553,27.4102108 C33.5081967,27.3821077 33.5925059,27.344637 33.676815,27.2977986 C34.1264637,27.0542389 36.1873536,25.8645433 37.6861827,24.9933489 L37.6861827,25.1151288 C37.6861827,25.3680562 37.9859485,25.5741452 38.3700234,25.5741452 C38.7540984,25.5741452 39.0538642,25.3774239 39.0538642,25.1151288 L39.0538642,24.197096 C39.0632319,24.1877283 39.0819672,24.1783607 39.0913349,24.168993 C39.9437939,23.6631382 39.9437939,22.9605621 39.9437939,22.6233255 L39.9437939,18.520281 C39.8969555,17.8551756 39.6159251,17.6584543 39.4473068,17.5273068 Z M31.9531616,9.3212178 C32.2622951,9.51793911 36.3185012,11.8317564 36.9742389,12.197096 C37.4800937,12.4781265 37.5925059,12.8903044 37.5925059,13.4242623 L37.5925059,17.0776581 C37.470726,17.1244965 37.3676815,17.1713349 37.2740047,17.227541 C37.1896956,17.2837471 36.7494145,17.5366745 36.1592506,17.873911 L36.1592506,14.2579859 C36.1592506,13.7521311 36.0749415,13.2369087 35.4660422,12.8996721 C34.8009368,12.5249649 30.6604215,10.1455738 30.3793911,9.96758782 C30.2576112,9.89264637 30.1077283,9.8270726 29.9578454,9.78960187 C30.0140515,9.70529274 30.088993,9.65845433 30.1451991,9.61161593 C30.323185,9.48046838 30.5761124,9.33995316 30.9227166,9.17133489 C31.2131148,9.03081967 31.6721311,9.14323185 31.9531616,9.3212178 Z M24.0468384,19.3821077 C24.0468384,19.5975644 24.0468384,19.7474473 24.0468384,19.8504918 C24.0468384,19.9722717 24.0468384,20.0565808 24.0468384,20.1502576 C23.7002342,20.1783607 23.4004684,20.1034192 23.0913349,19.9254333 C22.9882904,19.8692272 22.3887588,19.522623 21.6393443,19.0823419 C20.3653396,18.3422951 18.6416862,17.3493208 18.1358314,17.0589227 C17.6861827,16.7966276 17.6018735,16.5062295 17.5644028,16.2251991 C17.5550351,16.1408899 17.5550351,16.0659485 17.5550351,15.9254333 C17.5550351,15.8130211 17.5644028,15.6725059 17.5550351,15.4476815 C17.5550351,15.3071663 17.5831382,15.1760187 17.6487119,15.0542389 C17.7423888,15.1479157 17.8548009,15.2322248 17.9859485,15.3071663 C18.4824356,15.5975644 20.2154567,16.581171 21.4894614,17.3212178 C22.2482436,17.7521311 22.8477752,18.0987354 22.9508197,18.1549415 C23.2224824,18.314192 23.5128806,18.4453396 23.8313817,18.4453396 C24.0468384,18.4453396 24.2810304,18.3891335 24.5245902,18.2392506 C25.1896956,17.845808 28.2435597,16.0753162 28.5714286,15.9066979 C28.7306792,15.8223888 28.8992974,15.6818735 29.030445,15.5413583 C29.1053864,15.6350351 29.1334895,15.7193443 29.1522248,15.8036534 C29.030445,15.8411241 28.8992974,15.8973302 28.7681499,15.9722717 C27.8594848,16.4781265 25.3114754,17.9582201 24.7025761,18.3329274 C24.2716628,18.5858548 24.0468384,18.9418267 24.0468384,19.3821077 Z M17.29274,15.4476815 C17.29274,15.6631382 17.29274,15.8130211 17.29274,15.9160656 C17.29274,16.0378454 17.29274,16.1221546 17.29274,16.2158314 C17.1428571,16.2533021 16.9929742,16.2533021 16.8430913,16.2158314 C16.852459,16.1315222 16.852459,16.0472131 16.8430913,15.9254333 C16.8430913,15.8223888 16.8430913,15.6725059 16.8430913,15.4570492 C16.8430913,15.0167681 16.6276347,14.6607963 16.1779859,14.3985012 C15.5316159,14.0050585 12.0187354,11.9441686 11.1100703,11.4476815 C10.9976581,11.3821077 10.8946136,11.3352693 10.7915691,11.3071663 C10.8103044,11.2322248 10.8384075,11.1666511 10.8758782,11.1010773 C10.969555,11.2041218 11.0913349,11.2884309 11.2318501,11.37274 C11.7283372,11.6631382 13.442623,12.6467447 14.7259953,13.3774239 C15.4847775,13.8177049 16.0936768,14.1643091 16.1967213,14.2205152 C16.4683841,14.3797658 16.7587822,14.5109133 17.0772834,14.5109133 C17.29274,14.5109133 17.5269321,14.4547073 17.7704918,14.3048244 C18.4355972,13.9113817 21.4894614,12.1408899 21.8173302,11.9722717 C21.9765808,11.8879625 22.1264637,11.7661827 22.2576112,11.6256674 C22.3325527,11.7193443 22.3606557,11.8130211 22.3700234,11.8973302 C22.2576112,11.9348009 22.1451991,11.9816393 22.0234192,12.0472131 C21.1147541,12.5530679 18.5667447,14.0331616 17.9578454,14.4078689 C17.5081967,14.6514286 17.2833724,15.0074005 17.29274,15.4476815 Z M10.295082,10.8387822 C10.3793911,10.8575176 10.4730679,10.8762529 10.5667447,10.8762529 C10.6042155,10.8762529 10.6416862,10.8762529 10.6885246,10.8668852 C10.6135831,10.9792974 10.557377,11.0917096 10.529274,11.2134895 C10.3793911,11.1853864 10.2482436,11.1853864 10.1264637,11.2041218 C10.2014052,11.0823419 10.2576112,10.9605621 10.295082,10.8387822 Z M10.6229508,10.2111475 L10.6229508,5.8270445 C10.6229508,5.29308665 10.7259953,4.88090867 11.2505855,4.59051054 C11.8032787,4.28137705 14.9133489,2.49214988 16.3278689,1.66779391 C16.1779859,1.80830913 16.0187354,2.04250117 16.0187354,2.53898829 L16.0187354,6.90432787 C16.0187354,7.06357845 16.0187354,7.30713817 16.1217799,7.57880094 C15.8782201,7.71931616 15.6065574,7.87859485 15.3067916,8.04721311 C15.2786885,8.0565808 15.2505855,8.07531616 15.2318501,8.08468384 C14.6697892,8.39381733 13.4800937,9.08702576 12.5152225,9.64908665 C11.8501171,10.0331616 11.3255269,10.3235597 11.1381733,10.4266042 C10.9789227,10.5109133 10.8290398,10.5671194 10.6885246,10.5858548 C10.6323185,10.4734426 10.6229508,10.3516628 10.6229508,10.2111475 Z M22.9789227,11.7942857 C22.8758782,11.784918 22.763466,11.7942857 22.6416862,11.8130211 C22.6229508,11.7193443 22.5948478,11.6069321 22.5105386,11.4945199 C22.529274,11.4945199 22.5386417,11.4945199 22.557377,11.4945199 C22.6510539,11.4945199 22.735363,11.4851522 22.8196721,11.4570492 C22.8571429,11.5600937 22.9039813,11.6818735 22.9789227,11.7942857 Z M23.0257611,10.8481499 L23.0257611,6.4827822 C23.0257611,6.28606089 23.0538642,6.14554567 23.0913349,6.04250117 C23.2412178,6.0799719 23.3911007,6.13617799 23.5128806,6.21111944 C23.793911,6.3797377 27.9344262,8.76852459 28.5995316,9.14323185 C29.1147541,9.43362998 29.2271663,9.84580796 29.2271663,10.3797658 L29.2271663,14.7638407 C29.2271663,14.904356 29.2084309,15.0261358 29.1803279,15.1479157 C29.1147541,15.138548 29.058548,15.1291803 28.9929742,15.110445 C28.9461358,15.0823419 28.8992974,15.0448712 28.8430913,15.0167681 C28.8430913,15.0167681 24.0187354,12.2251991 23.7470726,12.0659485 C23.6721311,12.0191101 23.559719,11.962904 23.4379391,11.9066979 C23.0257611,11.5319906 23.0257611,11.110445 23.0257611,10.8481499 Z M29.7985948,15.7287119 C29.6861827,15.7193443 29.5737705,15.7099766 29.442623,15.7287119 C29.4238876,15.6444028 29.3957845,15.5413583 29.3208431,15.4289461 C29.4238876,15.4289461 29.5175644,15.4102108 29.6206089,15.37274 C29.6580796,15.4945199 29.7142857,15.6162998 29.7985948,15.7287119 Z M23.2786885,12.1408899 C23.3629977,12.2158314 23.4566745,12.2814052 23.5690867,12.3563466 C24.4964871,12.9184075 28,14.9137237 28.5807963,15.2415925 C28.6744731,15.2884309 28.7681499,15.3352693 28.852459,15.3633724 C28.8805621,15.3821077 28.9086651,15.4102108 28.9367681,15.4289461 C28.8149883,15.5694614 28.6651054,15.6912412 28.5152225,15.7755504 C28.1967213,15.9535363 25.1334895,17.7146604 24.4683841,18.1174707 C23.9344262,18.4359719 23.5128806,18.314192 23.0257611,18.0331616 C22.9227166,17.9769555 22.323185,17.6303513 21.5644028,17.1994379 C20.2810304,16.4687588 18.557377,15.4757845 18.0608899,15.1853864 C17.9297424,15.110445 17.8266979,15.0261358 17.7330211,14.932459 C17.8173302,14.8200468 17.9391101,14.7170023 18.088993,14.6233255 C18.6978923,14.2486183 21.2459016,12.7778923 22.1451991,12.2720375 C22.6416862,12.0003747 23.0070258,12.0378454 23.2786885,12.1408899 Z M11.2974239,10.6888993 C11.5316159,10.5483841 12.0468384,10.2486183 12.6370023,9.90201405 C13.4800937,9.4242623 14.5480094,8.80599532 15.4379391,8.30014052 C16.0093677,8.01911007 16.412178,8.16899297 16.6838407,8.3095082 C16.7306792,8.34697892 16.7868852,8.38444965 16.8430913,8.41255269 C17.676815,8.91840749 20.5807963,10.5764871 21.5925059,11.1479157 C21.7798595,11.2603279 21.8922717,11.3259016 21.8922717,11.3259016 C22.0046838,11.3914754 22.088993,11.4476815 22.1545667,11.5132553 C22.0327869,11.6444028 21.8922717,11.7661827 21.7423888,11.8411241 C21.4238876,12.0191101 18.3606557,13.7802342 17.6955504,14.1736768 C17.1615925,14.492178 16.7400468,14.3703981 16.2529274,14.0893677 C16.1498829,14.0331616 15.5409836,13.6865574 14.7822014,13.2462763 C13.498829,12.5155972 11.7845433,11.522623 11.2880562,11.2415925 C11.147541,11.1666511 11.0351288,11.0729742 10.9508197,10.9792974 C11.0351288,10.8668852 11.147541,10.7732084 11.2974239,10.6888993 Z M16.2676698,7.86425761 C16.2476698,7.86425761 16.2176698,7.85425761 16.1976698,7.85425761 C16.2176698,7.84425761 16.2276698,7.83425761 16.2476698,7.82425761 C16.2476698,7.84425761 16.2576698,7.85425761 16.2676698,7.86425761 Z M22.501171,10.8200468 C22.501171,10.9605621 22.4824356,11.0823419 22.4543326,11.2041218 C22.3138173,11.1853864 22.1545667,11.138548 22.0046838,11.0448712 C21.9484778,11.0167681 21.8548009,10.9605621 21.7423888,10.8949883 C20.6838407,10.2767213 17.1803279,8.25330211 16.9461358,8.12215457 C16.9180328,8.1034192 16.8805621,8.08468384 16.8430913,8.06594848 C16.2997658,7.66311007 16.2997658,7.194726 16.2997658,6.90432787 L16.2997658,2.52962061 C16.2997658,2.3328993 16.3278689,2.19238407 16.3653396,2.08933958 C16.5152225,2.1268103 16.6651054,2.18301639 16.7868852,2.25795785 C17.0679157,2.42657611 21.2084309,4.81533489 21.8735363,5.19004215 C22.3887588,5.48044028 22.501171,5.89261827 22.501171,6.42657611 L22.501171,10.8200468 L22.501171,10.8200468 Z M10.088993,5.85514754 L10.088993,10.2205152 C10.088993,10.5109133 10.088993,10.9699297 9.57377049,11.3633724 C9.49882904,11.4008431 9.44262295,11.4383138 9.38641686,11.4664169 C9.17096019,11.5881967 6.23887588,13.2837471 4.92740047,14.051897 C4.55269321,13.8364403 4.20608899,13.6303513 3.8969555,13.4523653 L3.8969555,9.76149883 C3.8969555,9.22754098 4,8.815363 4.52459016,8.52496487 C5.19906323,8.15025761 9.33021077,5.76147073 9.61124122,5.59285246 C9.73302108,5.51791101 9.88290398,5.46170492 10.0327869,5.42423419 C10.0608899,5.51791101 10.088993,5.65842623 10.088993,5.85514754 Z M9.54566745,11.7287119 C9.61124122,11.6912412 9.66744731,11.6537705 9.7236534,11.6069321 C10.0046838,11.4757845 10.4074941,11.3633724 10.969555,11.6818735 C11.8782201,12.1877283 15.3911007,14.2392506 16.028103,14.6326932 C16.1779859,14.72637 16.2997658,14.8294145 16.3840749,14.9418267 C16.2997658,15.0355035 16.1873536,15.1198126 16.0562061,15.1947541 C15.559719,15.4851522 13.8266979,16.4687588 12.5526932,17.2088056 C11.793911,17.639719 11.1943794,17.9863232 11.0913349,18.0425293 C10.763466,18.2298829 10.3981265,18.3891335 9.9765808,18.2673536 L9.9765808,18.0331616 C9.9765808,17.4992037 9.88290398,16.9090398 9.19906323,16.5249649 C8.82435597,16.3095082 6.8852459,15.1947541 5.20843091,14.2298829 C6.50117096,13.4898361 8.83372365,12.1502576 9.54566745,11.7287119 Z M10.2857143,18.4453396 C10.6135831,18.4453396 10.8946136,18.314192 11.1662763,18.1549415 C11.2693208,18.0987354 11.8688525,17.7521311 12.6276347,17.3212178 C13.911007,16.5905386 15.6346604,15.5975644 16.1311475,15.3071663 C16.2622951,15.2322248 16.3747073,15.1479157 16.4683841,15.0542389 C16.5339578,15.1760187 16.5620609,15.3071663 16.5620609,15.4476815 C16.5620609,15.6631382 16.5620609,15.8130211 16.5620609,15.9254333 C16.5620609,16.0565808 16.5620609,16.1315222 16.5526932,16.2251991 C16.5245902,16.5062295 16.4309133,16.7966276 15.9812646,17.0589227 C15.4847775,17.3399532 13.7892272,18.3235597 12.5152225,19.0636066 C11.7470726,19.5132553 11.1288056,19.8692272 11.0257611,19.9254333 C10.6697892,20.1315222 10.3419204,20.2533021 9.9765808,20.1408899 L9.9765808,18.4078689 C10.088993,18.4359719 10.1920375,18.4453396 10.2857143,18.4453396 Z M10.2576112,20.4593911 C10.6042155,20.4593911 10.9133489,20.3188759 11.175644,20.1596253 C11.2786885,20.1034192 11.8969555,19.7474473 12.6651054,19.2977986 C13.9391101,18.5577518 15.6346604,17.5741452 16.1311475,17.2931148 C16.5620609,17.049555 16.7213115,16.7497892 16.7962529,16.4781265 C16.8149883,16.4781265 16.824356,16.4874941 16.8430913,16.4874941 L16.8430913,17.8645433 L9.98594848,21.7896019 L9.98594848,20.4219204 C10.0796253,20.4500234 10.1639344,20.4593911 10.2576112,20.4593911 Z M24.3278689,19.8504918 C24.3278689,19.7380796 24.3278689,19.5975644 24.3278689,19.37274 C24.3278689,19.2322248 24.3559719,19.1010773 24.4215457,18.9792974 C24.5152225,19.0729742 24.6276347,19.1572834 24.7587822,19.2322248 C25.2552693,19.522623 26.9882904,20.5062295 28.2622951,21.2462763 C29.0210773,21.6771897 29.6206089,22.0237939 29.7236534,22.08 C29.9953162,22.2392506 30.2857143,22.3703981 30.6042155,22.3703981 C30.7540984,22.3703981 30.9227166,22.3422951 31.0913349,22.2673536 L31.0913349,24.0003747 C31.0163934,24.0284778 30.9508197,24.0565808 30.9320843,24.0659485 C30.5386417,24.1221546 30.2014052,24.0565808 29.8548009,23.8504918 C29.7517564,23.7942857 29.1522248,23.4476815 28.4028103,23.0074005 C27.1288056,22.2673536 25.4051522,21.2743794 24.8992974,20.9839813 C24.4496487,20.7216862 24.3653396,20.4312881 24.3278689,20.1502576 C24.3278689,20.0565808 24.3278689,19.9816393 24.3278689,19.8504918 Z M31.0913349,21.8364403 L31.0913349,22.108103 C30.6229508,22.3235597 30.2295082,22.2111475 29.7892272,21.9582201 C29.6861827,21.9020141 29.0866511,21.5554098 28.3278689,21.1244965 C27.0444965,20.3938173 25.3208431,19.4008431 24.824356,19.110445 C24.6932084,19.0355035 24.5901639,18.9511944 24.4964871,18.8575176 C24.5807963,18.7451054 24.7025761,18.6420609 24.852459,18.5483841 C25.4613583,18.1830445 28.0093677,16.7029508 28.9086651,16.197096 C29.6206089,15.8036534 30.0796253,16.0659485 30.3512881,16.2251991 C30.3606557,16.2345667 30.3793911,16.2439344 30.4074941,16.2626698 C30.9508197,16.5905386 32.2248244,17.3212178 33.3676815,17.9769555 C33.8454333,18.2486183 34.295082,18.5109133 34.6604215,18.72637 C33.4519906,19.4195785 32.206089,20.1315222 31.8594848,20.3282436 C31.1850117,20.7123185 31.0913349,21.3118501 31.0913349,21.8364403 Z M34.9508197,18.5671194 L34.9508197,18.5577518 C34.557377,18.3329274 34.0515222,18.0425293 33.5081967,17.7333958 C32.2716628,17.021452 30.8852459,16.2158314 30.557377,16.0284778 C30.5386417,16.0191101 30.5199063,16.0003747 30.4918033,15.991007 C29.7985948,15.578829 29.7985948,15.0448712 29.7985948,14.72637 L29.7985948,10.3610304 C29.7985948,10.1643091 29.8266979,10.0237939 29.8641686,9.92074941 C30.0140515,9.95822014 30.1639344,10.0144262 30.2857143,10.0893677 C30.5667447,10.2673536 34.70726,12.6467447 35.3723653,13.021452 C35.8875878,13.3118501 36,13.7240281 36,14.2579859 L36,17.9488525 C35.6908665,18.1362061 35.3255269,18.3516628 34.9508197,18.5671194 Z M25.1709602,5.44296956 C25.4800937,5.63969087 29.5362998,7.9535363 30.1920375,8.31887588 C30.4730679,8.47812646 30.6416862,8.67484778 30.735363,8.95587822 C30.4074941,9.11512881 30.1639344,9.25564403 29.9765808,9.38679157 C29.8079625,9.50857143 29.5362998,9.70529274 29.5362998,10.3610304 L29.5362998,14.72637 C29.5362998,14.8294145 29.5362998,14.9605621 29.5644028,15.110445 C29.4894614,15.138548 29.4145199,15.1479157 29.3395785,15.1572834 C29.3676815,15.0355035 29.3864169,14.9137237 29.3864169,14.7732084 L29.3864169,10.3891335 C29.3864169,9.88327869 29.3021077,9.36805621 28.6932084,9.03081967 C28.0187354,8.65611241 23.8875878,6.26732553 23.6065574,6.09870726 C23.4847775,6.02376581 23.3348946,5.95819204 23.1850117,5.92072131 C23.2412178,5.83641218 23.3161593,5.78957377 23.3723653,5.74273536 C23.5503513,5.61158782 23.8032787,5.4710726 24.1498829,5.30245433 C24.4309133,5.15257143 24.8899297,5.26498361 25.1709602,5.44296956 Z M23.4566745,4.36568618 C23.7470726,4.53430445 23.9250585,4.74976112 24.0093677,5.04015925 C23.6440281,5.2181452 23.381733,5.35866042 23.1850117,5.49917564 C23.0163934,5.6209555 22.735363,5.81767681 22.735363,6.47341452 L22.735363,10.8387822 C22.735363,10.9230913 22.735363,11.0448712 22.7540984,11.1666511 C22.6978923,11.1853864 22.6416862,11.1853864 22.5854801,11.1947541 C22.6135831,11.0729742 22.6323185,10.9511944 22.6323185,10.8106792 L22.6323185,6.43594379 C22.6323185,5.93008899 22.5480094,5.41486651 21.9391101,5.07762998 C21.2740047,4.70292272 17.1334895,2.31416393 16.852459,2.14554567 C16.7306792,2.07060422 16.5807963,2.00503044 16.4309133,1.96755972 C16.4871194,1.88325059 16.5620609,1.83641218 16.618267,1.78957377 C16.7962529,1.65842623 17.0491803,1.51791101 17.3957845,1.34929274 C17.6861827,1.20877752 18.1451991,1.3211897 18.4355972,1.49917564 C18.7540984,1.68652927 22.8103044,4.0003466 23.4566745,4.36568618 Z M9.65807963,3.75678689 C10.3044496,3.39144731 15.0444965,0.684187354 15.3629977,0.487466042 C15.6440281,0.309480094 16.1124122,0.197067916 16.4028103,0.337583138 C16.7494145,0.506201405 17.0023419,0.646716628 17.1803279,0.777864169 C17.2459016,0.824702576 17.3114754,0.871540984 17.3676815,0.955850117 C17.2177986,0.993320843 17.0679157,1.05889461 16.9461358,1.13383607 C16.6744731,1.30245433 11.8782201,4.06592037 11.175644,4.459363 C10.5667447,4.80596721 10.4824356,5.3211897 10.4824356,5.81767681 L10.4824356,10.2111475 C10.4824356,10.3516628 10.501171,10.4828103 10.529274,10.5952225 C10.4730679,10.5952225 10.4168618,10.5858548 10.3606557,10.5671194 C10.3793911,10.4359719 10.3793911,10.314192 10.3793911,10.2205152 L10.3793911,5.85514754 C10.3793911,5.19940984 10.0983607,5.00268852 9.92974239,4.88090867 C9.73302108,4.74039344 9.470726,4.59051054 9.1147541,4.42189227 C9.18969555,4.13149415 9.3676815,3.91603747 9.65807963,3.75678689 Z M2.31381733,8.91840749 C2.31381733,8.38444965 2.41686183,7.98163934 2.93208431,7.69121311 C3.57845433,7.32587354 7.63466042,5.01205621 7.95316159,4.81533489 C8.23419204,4.63734895 8.70257611,4.52493677 8.99297424,4.66545199 C9.33957845,4.83407026 9.59250585,4.97458548 9.7704918,5.10573302 C9.83606557,5.15257143 9.90163934,5.19940984 9.95784543,5.28371897 C9.80796253,5.3211897 9.65807963,5.38676347 9.53629977,5.46170492 C9.25526932,5.63032319 5.12412178,8.01911007 4.44964871,8.39381733 C3.84074941,8.74042155 3.75644028,9.25564403 3.75644028,9.75213115 L3.75644028,13.3680562 C3.14754098,13.021452 2.72599532,12.7685246 2.64168618,12.7216862 C2.54800937,12.6654801 2.43559719,12.609274 2.32318501,12.5718033 L2.32318501,8.91840749 L2.31381733,8.91840749 Z M1.96721311,20.6186417 C1.96721311,20.6842155 1.80796253,20.7966276 1.56440281,20.7966276 C1.32084309,20.7966276 1.16159251,20.6935831 1.16159251,20.6186417 L1.16159251,19.8692272 C1.3676815,19.991007 1.63934426,20.1502576 1.95784543,20.3376112 L1.95784543,20.6186417 L1.96721311,20.6186417 Z M0.992974239,19.4383138 C0.281030445,19.0074005 0.281030445,18.4640749 0.281030445,18.1362061 L0.281030445,14.0331616 C0.281030445,13.9113817 0.290398126,13.8177049 0.309133489,13.7333958 C0.496487119,13.7708665 0.683840749,13.8364403 0.843091335,13.9301171 C1.16159251,14.1268384 6.75409836,17.3586885 7.42857143,17.7333958 C7.98126464,18.0425293 8.09367681,18.4828103 8.09367681,19.0542389 L8.09367681,22.9886651 C8.09367681,23.138548 8.07494145,23.2790632 8.03747073,23.4008431 C7.88758782,23.3821077 7.73770492,23.3352693 7.56908665,23.2415925 C6.92271663,22.8856206 1.89227166,19.9722717 0.992974239,19.4383138 Z M8.74941452,24.5530679 C8.74941452,24.6186417 8.59016393,24.7310539 8.34660422,24.7310539 C8.1030445,24.7310539 7.94379391,24.6280094 7.94379391,24.5530679 L7.94379391,23.6818735 C8.00936768,23.6912412 8.07494145,23.7006089 8.13114754,23.7006089 C8.32786885,23.7006089 8.52459016,23.6444028 8.70257611,23.5413583 C8.71194379,23.5319906 8.73067916,23.522623 8.74004684,23.522623 L8.74004684,24.5530679 L8.74941452,24.5530679 Z M9.70491803,21.9582201 C9.70491803,22.492178 9.48946136,22.7170023 9.25526932,22.8949883 C9.18032787,22.9511944 9.1147541,22.9886651 8.99297424,23.0542389 C8.89929742,23.110445 8.76814988,23.1853864 8.57142857,23.2977986 C8.44964871,23.37274 8.31850117,23.4102108 8.17798595,23.4195785 C8.21545667,23.2884309 8.22482436,23.1572834 8.22482436,22.9980328 L8.22482436,19.0636066 C8.22482436,18.5296487 8.13114754,17.9863232 7.48477752,17.6209836 C6.81967213,17.2462763 1.21779859,14.0144262 0.908665105,13.8177049 C0.740046838,13.7146604 0.543325527,13.639719 0.337236534,13.6022482 C0.402810304,13.4148946 0.515222482,13.3399532 0.618266979,13.2650117 C0.805620609,13.1338642 1.05854801,12.9933489 1.41451991,12.815363 C1.50819672,12.7685246 1.6206089,12.7497892 1.74238876,12.7497892 C1.99531616,12.7497892 2.28571429,12.843466 2.4824356,12.9652459 C2.80093677,13.1619672 8.39344262,16.3938173 9.06791569,16.7685246 C9.59250585,17.0589227 9.69555035,17.4804684 9.69555035,18.0237939 L9.69555035,21.9582201 L9.70491803,21.9582201 Z M17.4332553,19.4945199 C17.4332553,19.5600937 17.2740047,19.6725059 17.030445,19.6725059 C16.7868852,19.6725059 16.6276347,19.5694614 16.6276347,19.4945199 L16.6276347,18.314192 L17.0491803,18.0706323 L17.4238876,18.286089 L17.4238876,19.4945199 L17.4332553,19.4945199 Z M17.1147541,17.7896019 L17.1147541,16.5155972 C17.1896956,16.5155972 17.264637,16.5062295 17.3302108,16.4874941 C17.4051522,16.7497892 17.5644028,17.049555 17.9953162,17.2931148 C18.4918033,17.5835129 20.2154567,18.5764871 21.498829,19.316534 C22.2482436,19.756815 22.8477752,20.1034192 22.9508197,20.1596253 C23.2693208,20.3376112 23.5784543,20.4312881 23.9156909,20.4312881 C23.971897,20.4312881 24.0374707,20.4312881 24.0936768,20.4219204 C24.1686183,20.6842155 24.3278689,20.9839813 24.7587822,21.227541 C25.2552693,21.5179391 26.9789227,22.5109133 28.2622951,23.2509602 C29.0117096,23.6912412 29.6112412,24.0284778 29.7142857,24.0940515 C30.0327869,24.2720375 30.3419204,24.3657143 30.6791569,24.3657143 C30.7728337,24.3657143 30.8758782,24.3563466 30.969555,24.3469789 C31.0070258,24.3469789 31.0444965,24.3282436 31.0913349,24.3095082 L31.0913349,25.7802342 C31.0913349,25.7989696 31.0913349,25.8083372 31.0913349,25.8270726 L17.1147541,17.7896019 Z M31.8220141,26.7076347 C31.587822,26.5390164 31.3723653,26.3048244 31.3723653,25.7708665 L31.3723653,21.8364403 C31.3723653,21.2931148 31.4754098,20.8715691 32,20.581171 C32.7119438,20.1783607 37.1147541,17.6490867 37.4051522,17.461733 C37.6018735,17.3399532 37.8922717,17.2462763 38.1451991,17.2462763 C38.2669789,17.2462763 38.3793911,17.2650117 38.4730679,17.3118501 C38.8290398,17.4804684 39.0819672,17.6303513 39.2786885,17.7614988 C39.3723653,17.8270726 39.4847775,17.9113817 39.5503513,18.0987354 C39.35363,18.1362061 39.147541,18.2111475 38.9789227,18.314192 C38.6791569,18.492178 34.295082,21.0308197 33.5831382,21.4242623 C32.9367681,21.7896019 32.8430913,22.3329274 32.8430913,22.8668852 L32.8430913,26.8013115 C32.8430913,26.9511944 32.8618267,27.0917096 32.8899297,27.2228571 C32.7494145,27.2134895 32.618267,27.1760187 32.4964871,27.1010773 C32.2997658,26.9886651 32.1686183,26.9137237 32.0749415,26.8575176 C31.9625293,26.7919438 31.8969555,26.7544731 31.8220141,26.7076347 Z M33.1241218,28.3657143 C33.1241218,28.4312881 32.9648712,28.5437002 32.7213115,28.5437002 C32.4777518,28.5437002 32.3185012,28.4406557 32.3185012,28.3657143 L32.3185012,27.3259016 C32.3278689,27.3352693 32.3466042,27.344637 32.3559719,27.344637 C32.5339578,27.4476815 32.7213115,27.5038876 32.9274005,27.5038876 C32.9929742,27.5038876 33.0491803,27.4945199 33.1147541,27.4851522 L33.1147541,28.3657143 L33.1241218,28.3657143 Z M38.7259953,25.1151288 C38.7259953,25.1807026 38.5667447,25.2931148 38.323185,25.2931148 C38.0796253,25.2931148 37.9203747,25.1900703 37.9203747,25.1151288 L37.9203747,24.8340984 C38.2295082,24.6561124 38.501171,24.4968618 38.7166276,24.3657143 L38.7166276,25.1151288 L38.7259953,25.1151288 Z M39.6159251,22.6326932 C39.6159251,22.9605621 39.6159251,23.5038876 38.9039813,23.9348009 C37.9859485,24.4874941 34.117096,26.7170023 33.5081967,27.0542389 C33.3489461,27.1479157 33.1896956,27.1947541 33.0398126,27.2134895 C33.0023419,27.0917096 32.9836066,26.9511944 32.9836066,26.8013115 L32.9836066,22.8668852 C32.9836066,22.2954567 33.0960187,21.8551756 33.6487119,21.5460422 C34.3606557,21.1432319 38.7540984,18.6139578 39.0538642,18.4266042 C39.2037471,18.3329274 39.4004684,18.2579859 39.587822,18.2298829 C39.6065574,18.314192 39.6159251,18.4078689 39.6159251,18.5296487 L39.6159251,22.6326932 L39.6159251,22.6326932 Z" id="Shape"></path>
            <path d="M24.2810304,9.73339578 C24.3840749,9.73339578 24.4683841,9.60224824 24.4683841,9.43362998 C24.4683841,9.26501171 24.3840749,9.13386417 24.2810304,9.13386417 C24.1779859,9.13386417 24.0936768,9.26501171 24.0936768,9.43362998 C24.0936768,9.60224824 24.1779859,9.73339578 24.2810304,9.73339578 Z" id="Path"></path>
            <path d="M26.0234192,10.7544731 C26.1264637,10.7544731 26.2107728,10.6233255 26.2107728,10.4547073 C26.2107728,10.286089 26.1264637,10.1549415 26.0234192,10.1549415 C25.9203747,10.1549415 25.8360656,10.286089 25.8360656,10.4547073 C25.8360656,10.6233255 25.9203747,10.7544731 26.0234192,10.7544731 Z" id="Path"></path>
            <path d="M27.8313817,11.8130211 C27.9344262,11.8130211 28.0187354,11.6818735 28.0187354,11.5132553 C28.0187354,11.344637 27.9344262,11.2134895 27.8313817,11.2134895 C27.7283372,11.2134895 27.6440281,11.344637 27.6440281,11.5132553 C27.6440281,11.6818735 27.7283372,11.8130211 27.8313817,11.8130211 Z" id="Path"></path>
            <path d="M31.0632319,13.0027166 C30.9601874,13.0027166 30.8758782,13.1338642 30.8758782,13.3024824 C30.8758782,13.4711007 30.9601874,13.6022482 31.0632319,13.6022482 C31.1662763,13.6022482 31.2505855,13.4711007 31.2505855,13.3024824 C31.2505855,13.1338642 31.1662763,13.0027166 31.0632319,13.0027166 Z" id="Path"></path>
            <path d="M32.8056206,14.0237939 C32.7025761,14.0237939 32.618267,14.1549415 32.618267,14.3235597 C32.618267,14.492178 32.7025761,14.6233255 32.8056206,14.6233255 C32.9086651,14.6233255 32.9929742,14.492178 32.9929742,14.3235597 C32.9929742,14.1549415 32.9086651,14.0237939 32.8056206,14.0237939 Z" id="Path"></path>
            <path d="M34.6135831,15.0823419 C34.5105386,15.0823419 34.4262295,15.2134895 34.4262295,15.3821077 C34.4262295,15.550726 34.5105386,15.6818735 34.6135831,15.6818735 C34.7166276,15.6818735 34.8009368,15.550726 34.8009368,15.3821077 C34.8009368,15.2134895 34.7166276,15.0823419 34.6135831,15.0823419 Z" id="Path"></path>
            <path d="M17.5456674,5.18067447 C17.442623,5.18067447 17.3583138,5.31182201 17.3583138,5.48044028 C17.3583138,5.64905855 17.442623,5.78020609 17.5456674,5.78020609 C17.6487119,5.78020609 17.7330211,5.64905855 17.7330211,5.48044028 C17.7330211,5.31182201 17.6487119,5.18067447 17.5456674,5.18067447 Z" id="Path"></path>
            <path d="M19.2880562,6.20174239 C19.1850117,6.20174239 19.1007026,6.33288993 19.1007026,6.5015082 C19.1007026,6.67012646 19.1850117,6.801274 19.2880562,6.801274 C19.3911007,6.801274 19.4754098,6.67012646 19.4754098,6.5015082 C19.4754098,6.33288993 19.3911007,6.20174239 19.2880562,6.20174239 Z" id="Path"></path>
            <path d="M21.1053864,7.2603185 C21.0023419,7.2603185 20.9180328,7.39146604 20.9180328,7.56008431 C20.9180328,7.72870258 21.0023419,7.85985012 21.1053864,7.85985012 C21.2084309,7.85985012 21.29274,7.72870258 21.29274,7.56008431 C21.29274,7.39146604 21.2084309,7.2603185 21.1053864,7.2603185 Z" id="Path"></path>
            <path d="M10.3044496,20.1408899 C10.3325527,20.1408899 10.3512881,20.1221546 10.3512881,20.0940515 L10.3606557,18.5671194 C10.3606557,18.5390164 10.3419204,18.520281 10.3138173,18.520281 C10.2857143,18.520281 10.2669789,18.5390164 10.2669789,18.5671194 L10.2576112,20.0940515 C10.2576112,20.1221546 10.2763466,20.1408899 10.3044496,20.1408899 Z" id="Path"></path>
            <path d="M8.1498829,18.1924122 C8.15925059,18.2111475 8.17799532,18.2111475 8.187363,18.2111475 C8.19673068,18.2111475 8.20608899,18.2111475 8.21545667,18.2017799 L9.49882904,17.43363 C9.5175644,17.4242623 9.52693208,17.3961593 9.5175644,17.3680562 C9.50819672,17.3493208 9.470726,17.3399532 9.45199063,17.3493208 L8.16861827,18.1174707 C8.14051522,18.1362061 8.13114754,18.1643091 8.1498829,18.1924122 Z" id="Path"></path>
            <path d="M3.70960187,8.94651054 C3.72833724,8.94651054 3.7470726,8.93714286 3.7470726,8.91840749 C3.75644028,8.89967213 3.7470726,8.87156909 3.72833724,8.85283372 L2.55737705,8.22519906 C2.53864169,8.21583138 2.51053864,8.22519906 2.49180328,8.24393443 C2.4824356,8.26266979 2.49180328,8.29077283 2.51053864,8.3095082 L3.68149883,8.93714286 C3.69086651,8.94651054 3.70023419,8.94651054 3.70960187,8.94651054 Z" id="Path"></path>
            <path d="M8.84308197,8.49686183 C8.74003747,8.49686183 8.65572834,8.62800937 8.65572834,8.79662763 C8.65572834,8.9652459 8.74003747,9.09639344 8.84308197,9.09639344 C8.94612646,9.09639344 9.03044496,8.9652459 9.03044496,8.79662763 C9.02107728,8.63737705 8.94612646,8.49686183 8.84308197,8.49686183 Z" id="Path"></path>
            <path d="M7.10070258,9.52730679 C6.99765808,9.52730679 6.91334895,9.65845433 6.91334895,9.8270726 C6.91334895,9.99569087 6.99765808,10.1268384 7.10070258,10.1268384 C7.20374707,10.1268384 7.28805621,9.99569087 7.28805621,9.8270726 C7.27868852,9.65845433 7.20374707,9.52730679 7.10070258,9.52730679 Z" id="Path"></path>
            <path d="M5.283363,10.5858548 C5.1803185,10.5858548 5.09600937,10.7170023 5.09600937,10.8856206 C5.09600937,11.0542389 5.1803185,11.1853864 5.283363,11.1853864 C5.38640749,11.1853864 5.47071663,11.0542389 5.47071663,10.8856206 C5.47071663,10.7170023 5.38640749,10.5858548 5.283363,10.5858548 Z" id="Path"></path>
        </g>
    </g>
</svg>