<?xml version="1.0" encoding="UTF-8"?>
<svg width="40px" height="40px" viewBox="0 0 40 40" version="1.1" xmlns="http://www.w3.org/2000/svg" xmlns:xlink="http://www.w3.org/1999/xlink">
    <title>Category Icon/category-kitchen</title>
    <g id="Category-Icon/category-kitchen" stroke="none" stroke-width="1" fill="none" fill-rule="evenodd">
        <g id="category-kitchen" transform="translate(4.000000, 3.000000)" fill="#000000" fill-rule="nonzero">
            <path d="M32,13.8732632 C32,13.7195789 31.8739649,13.2444912 31.6078597,13.0769123 L31.5938246,13.0628772 C31.5378246,13.0349474 25.557053,9.61207018 24.3104566,8.87157895 L24.2544566,8.84364912 L24.1844215,8.84364912 C24.1564917,8.84364912 24.1143864,8.85768421 24.0864566,8.85768421 C24.0303163,8.77375439 23.9743163,8.704 23.9042812,8.64814035 L23.8903864,8.63410526 C23.8342461,8.60617544 17.8536149,5.18325614 16.6070184,4.44279298 L16.5510184,4.41484912 L16.4809834,4.41484912 C16.4669483,4.41484912 16.4388781,4.41484912 16.4249834,4.41484912 C16.368843,4.33103158 16.312843,4.26116491 16.2428079,4.21925614 L16.2287729,4.20529123 C16.1727729,4.17734737 10.1921416,0.754442105 8.94554521,0.0139649123 L8.9035803,0 L8.83354522,0 C7.43284354,0.0698526316 6.85852779,1.34122105 6.85852779,1.85814737 C6.85852779,2.27727719 6.84463305,9.86357895 6.84463305,10.9253333 C6.04617696,11.3584561 1.39607197,13.9710877 0.891931646,14.3482105 C0.0655457295,15.0189474 -0.186664782,15.8990877 0.135580813,16.9748772 L0.149475549,17.0307368 L0.19158081,17.0725614 C0.23354572,17.1145263 0.429615884,17.2262456 0.779791302,17.4359298 L0.779791302,21.6830877 L21.6492638,33.6842105 L31.7058246,27.8164211 L31.7058246,24.7706667 L31.6778948,24.7706667 C31.888,24.2816842 32,23.7089123 32,23.0662456 L32,13.8732632 Z M20.2346674,28.1376842 C18.6378955,27.229614 16.2708781,25.8884211 15.8647027,25.6369123 C15.6265273,24.7567719 15.8366325,24.0581053 16.4950185,23.5272982 C16.5089132,23.5132632 16.5229483,23.5132632 16.5369834,23.4993684 L16.5510184,23.5132632 L23.2320005,27.397193 C23.2460356,27.397193 23.2600707,27.4112281 23.2741058,27.4112281 C23.3020356,27.4112281 23.3160707,27.397193 23.3301058,27.3832982 C23.3441409,27.3553684 23.3440005,27.3134035 23.3020356,27.2854737 L16.6630184,23.4154386 C17.5034394,22.8846316 20.7668779,21.0404211 22.5037199,20.0624561 L22.6157198,20.0065965 L22.6157198,19.8808421 C22.6157198,19.8808421 22.6157198,19.8808421 22.6157198,19.866807 L29.5489124,23.8625965 L29.5489124,23.8764912 C28.9466668,24.2117895 24.0724215,26.9222456 23.5541058,27.3134035 C22.8398602,27.8861754 22.5737549,28.6407018 22.7698251,29.5487719 C22.6857549,29.506807 22.58779,29.4788772 22.5037199,29.4230175 C22.2235795,29.2693333 21.2990883,28.7524211 20.2346674,28.1376842 Z M22.9939654,29.6325614 C22.7698251,28.7524211 22.9939654,28.0398596 23.6802812,27.4950175 C24.2124917,27.1038596 29.6468773,24.0860351 29.7030177,24.0581053 L29.7590177,24.0301754 L29.7590177,23.9743158 C29.7590177,23.9743158 29.7730528,15.3122807 29.7730528,14.8512281 C29.7730528,14.5578947 30.1230878,13.5379649 31.215579,13.3563509 C31.2996492,13.3981754 31.3417544,13.4262456 31.3696842,13.4401404 C31.4677895,13.5239298 31.5657544,13.8174035 31.5657544,13.8871579 L31.5657544,23.0941754 C31.5657544,24.0162807 31.2996492,25.2736842 30.0251229,25.9861053 C29.1706668,26.461193 27.405895,27.4950175 25.9912986,28.3192982 C24.9548074,28.9201404 24.0583864,29.4509474 23.9463864,29.506807 C23.6381759,29.6604912 23.3160707,29.7024561 22.9939654,29.6325614 Z M30.9635088,13.1886316 C29.9131229,13.496 29.5768422,14.5299649 29.5768422,14.837193 C29.5768422,15.242386 29.5629475,22.3117193 29.5629475,23.7089123 L22.6717198,19.7271579 C22.6578251,19.7131228 22.64379,19.7131228 22.6297549,19.7131228 C22.6297549,18.5396491 22.64379,11.1069474 22.64379,10.6878596 C22.64379,10.5201404 22.9239304,9.3605614 24.1703864,9.26287719 C25.3049828,9.94736842 29.5768422,12.4063158 30.9635088,13.1886316 Z M22.2095444,10.7018947 C22.2095444,11.1209825 22.1955093,18.7072281 22.1955093,19.7689825 C21.3971936,20.2161404 16.7470886,22.8287719 16.2428079,23.2058947 C15.5845624,23.7507368 15.2903869,24.4213333 15.360422,25.2317193 C15.3463869,25.2317193 15.3184571,25.2176842 15.304422,25.2176842 C15.0802817,24.3375439 15.304422,23.6249825 15.9907378,23.0801404 C16.5229483,22.6889825 21.9574743,19.6712982 22.0134743,19.6433684 L22.0694743,19.6152982 L22.0694743,19.5594386 C22.0694743,19.5594386 22.0835094,10.8974035 22.0835094,10.4363509 C22.0835094,10.1430175 22.4336848,9.12308772 23.5261759,8.94147368 C23.5541058,8.95550877 23.5821759,8.96940351 23.6102461,8.9834386 C22.6297549,9.29080702 22.2095444,10.2687719 22.2095444,10.7018947 Z M8.83354522,19.0844912 C8.84743995,19.0844912 8.84743995,19.0844912 8.83354522,19.0844912 L15.5285624,22.9823158 C15.5425975,22.9823158 15.5564922,22.9963509 15.5705273,22.9963509 C15.5985975,22.9963509 15.6124922,22.9823158 15.6265273,22.9684211 C15.6405624,22.9404912 15.6405624,22.8985263 15.5985975,22.8705965 L8.9595803,19.0007018 C9.79986095,18.4697544 13.0634397,16.6255439 14.8001414,15.6475789 L14.9122817,15.5917193 L14.9122817,15.4659649 C14.9122817,15.4659649 14.9122817,15.4659649 14.9122817,15.4519298 L21.8453339,19.4477193 L21.8453339,19.461614 C21.2430883,19.7970526 16.368843,22.5073684 15.8506676,22.8985263 C15.1362817,23.4853333 14.8701764,24.2258246 15.0662466,25.1338947 C14.9823168,25.1059649 14.8842115,25.0501053 14.8001414,25.0081404 C14.520001,24.8405614 13.5956502,24.3236491 12.5312292,23.722807 C10.9344574,22.8147368 8.55340488,21.4735439 8.1611242,21.2220351 C7.92308913,20.3418947 8.13319438,19.6433684 8.79143996,19.1124211 C8.80547504,19.098386 8.81951013,19.098386 8.83354522,19.0844912 Z M23.2600707,8.75985965 C22.2095444,9.06722807 21.8734041,10.1010526 21.8734041,10.4084211 C21.8734041,10.813614 21.859369,17.8829474 21.859369,19.28 L14.9682817,15.2982456 C14.9542466,15.2843509 14.9402115,15.2843509 14.9263168,15.2843509 C14.9263168,14.1107368 14.9402115,6.6781614 14.9402115,6.25903158 C14.9402115,6.09138246 15.2203519,4.93177544 16.4669483,4.83397895 C17.6014044,5.53253333 21.8874392,7.97740351 23.2600707,8.75985965 Z M14.520001,6.27299649 C14.520001,6.69214035 14.5061063,14.2784561 14.5061063,15.3402105 C13.7076502,15.7872281 9.0575452,18.3998596 8.55340488,18.7771228 C7.89501896,19.3079298 7.60098388,19.9925614 7.67101897,20.7889123 L7.65698388,20.7889123 C7.43284354,19.9087719 7.65698388,19.1962105 8.34329963,18.6513684 C8.87551013,18.2602105 14.3100361,15.242386 14.3660361,15.2144561 L14.4220361,15.1865263 L14.4220361,15.1306667 C14.4220361,15.1306667 14.4360712,6.46860351 14.4360712,6.00755088 C14.4360712,5.7141614 14.7862466,4.69427368 15.8787378,4.51264561 C15.9066676,4.52662456 15.9207027,4.54058947 15.9487729,4.55456842 C14.9402115,4.84795789 14.520001,5.83990175 14.520001,6.27299649 Z M8.80547504,0.419129825 C9.9539662,1.1037193 14.225966,3.54864561 15.5985975,4.33103158 C14.5480712,4.63838596 14.2119309,5.67225263 14.2119309,5.97960702 C14.2119309,6.38477193 14.1978958,13.4541754 14.1978958,14.8512281 L7.30680846,10.8974035 C7.29277338,10.8835088 7.27873829,10.8835088 7.26484355,10.8835088 C7.26484355,9.70989474 7.27873829,2.27727719 7.27873829,1.85814737 C7.27873829,1.67653333 7.57291371,0.530905263 8.80547504,0.419129825 Z M1.14400181,14.6835088 C1.15803689,14.669614 1.17207198,14.669614 1.18596672,14.6555789 L1.2000018,14.669614 L7.88098387,18.5535439 C7.89501896,18.5535439 7.90905404,18.5675789 7.92308913,18.5675789 C7.95101895,18.5675789 7.96505404,18.5535439 7.97908913,18.5396491 C7.99312421,18.5115789 7.99312421,18.4697544 7.95101895,18.4418246 L1.31214215,14.5717895 C2.1524228,14.0408421 5.41600156,12.1967719 7.15270321,11.218807 L7.26484355,11.162807 L7.26484355,11.037193 C7.26484355,11.037193 7.26484355,11.037193 7.26484355,11.0231579 L14.1978958,15.0189474 L14.1978958,15.0328421 C13.5956502,15.3681404 8.72140487,18.0785965 8.20322946,18.4697544 C7.48884354,19.0565614 7.22273829,19.7969123 7.41880846,20.7051228 C7.33473829,20.677193 7.23677338,20.6213333 7.15270321,20.5793684 C6.87256287,20.4116491 5.94821205,19.8947368 4.88365071,19.2940351 C3.27298414,18.3859649 0.905826382,17.0446316 0.513686054,16.7932632 C0.27565098,15.9129825 0.485756231,15.2284912 1.14400181,14.6835088 Z M1.2000018,17.6872982 C1.92828246,18.1065263 3.07691397,18.7630877 4.67354546,19.6572632 C5.7381068,20.2579649 6.66245762,20.7889123 6.92856287,20.9425965 C7.19480847,21.0962807 7.46091372,21.1941053 7.74105405,21.2220351 C7.75494879,21.2778947 7.76898387,21.3477895 7.78301896,21.4036491 L7.79705405,21.4595088 L7.83901896,21.5014737 C7.96505404,21.613193 9.3797908,22.4095439 12.3070889,24.0721404 C13.3715099,24.6728421 14.296001,25.2037895 14.5621063,25.3574737 C14.8422466,25.5250526 15.122387,25.6228772 15.416422,25.6369123 C15.4304571,25.6927719 15.4444922,25.7486316 15.4585273,25.8185263 L15.4725624,25.874386 L15.5145273,25.9163509 C15.6405624,26.0280702 17.0551588,26.8244211 19.9825972,28.4870175 C20.5567726,28.8082807 21.0889831,29.1156491 21.4952989,29.3531228 L21.4952989,33.1253333 L1.2000018,21.445614 L1.2000018,17.6872982 Z M31.2856141,27.5928421 L21.747369,33.1532632 L21.747369,29.4929123 C21.9994392,29.6325614 22.1814743,29.7444211 22.2795795,29.8002807 C22.6157198,29.9957895 22.9378251,30.093614 23.2741058,30.093614 C23.5681408,30.093614 23.8482812,30.0238596 24.1424566,29.8840702 C24.2684917,29.8282105 24.9688425,29.4091228 26.2154389,28.6825263 C27.6300353,27.8582456 29.3948072,26.8244211 30.2492633,26.3494737 C30.6693334,26.1118596 31.0056141,25.8185263 31.2856141,25.469193 L31.2856141,27.5928421 L31.2856141,27.5928421 Z" id="Shape"></path>
            <path d="M22.4079941,10.5619344 C22.3946387,10.5916357 22.3946387,10.6362624 22.4345712,10.6659638 L28.6987517,14.7219168 C28.712107,14.7219168 28.7254624,14.7368421 28.7386841,14.7368421 C28.7653948,14.7368421 28.7787501,14.7219168 28.7921054,14.7071407 C28.8053272,14.6774394 28.8053272,14.6328127 28.7653948,14.6031113 L22.5012142,10.547009 C22.4746371,10.5173077 22.4345712,10.5173077 22.4079941,10.5619344 Z" id="Path"></path>
            <path d="M14.9413274,6.34687477 C14.927972,6.37662386 14.927972,6.42124003 14.9679047,6.45098912 L21.2321186,10.5115234 C21.245474,10.5115234 21.2586958,10.5263158 21.2720512,10.5263158 C21.298762,10.5263158 21.3121174,10.5115234 21.3253392,10.4965816 C21.3386946,10.4668475 21.3386946,10.422321 21.298762,10.3924374 L15.0345481,6.33200769 C14.9946155,6.3022586 14.9545493,6.31712568 14.9413274,6.34687477 Z" id="Path"></path>
            <path d="M7.49849938,2.23337155 L13.7653748,6.30088173 C13.7787359,6.30088173 13.792097,6.31578947 13.8053244,6.31578947 C13.8320466,6.31578947 13.8454076,6.30088173 13.8587687,6.28598895 C13.8719962,6.25618842 13.8719962,6.21149511 13.8320466,6.18169458 L7.56517111,2.11416944 C7.53858258,2.09927666 7.49849938,2.09927666 7.47191085,2.14396997 C7.45854978,2.1737705 7.47191085,2.21846381 7.49849938,2.23337155 Z" id="Path"></path>
            <path d="M24.5333333,12.6315789 C24.4913684,12.6315789 24.4632982,12.6592073 24.4632982,12.7007193 L24.4632982,18.8783669 C24.4632982,18.9197401 24.4913684,18.9473684 24.5333333,18.9473684 C24.5754386,18.9473684 24.6033684,18.9197401 24.6033684,18.8783669 L24.6033684,12.7007193 C24.6033684,12.6592073 24.5614035,12.6315789 24.5333333,12.6315789 Z" id="Path"></path>
            <path d="M25.6,13.6842105 C25.5578947,13.6842105 25.5299649,13.7118389 25.5299649,13.7533509 L25.5299649,19.9309985 C25.5299649,19.9723716 25.5578947,20 25.6,20 C25.6419649,20 25.6700351,19.9723716 25.6700351,19.9309985 L25.6700351,13.7533509 C25.6700351,13.7118389 25.6419649,13.6842105 25.6,13.6842105 Z" id="Path"></path>
            <path d="M27.7333333,14.7368421 C27.6912281,14.7368421 27.6632982,14.7644699 27.6632982,14.8059809 L27.6632982,20.9834928 C27.6632982,21.0250038 27.6912281,21.0526316 27.7333333,21.0526316 C27.7752982,21.0526316 27.8033684,21.0250038 27.8033684,20.9834928 L27.8033684,14.8059809 C27.8033684,14.7644699 27.7752982,14.7368421 27.7333333,14.7368421 Z" id="Path"></path>
            <path d="M16,8.42105263 C15.9580351,8.42105263 15.9299649,8.448681 15.9299649,8.49005413 L15.9299649,14.6678406 C15.9299649,14.7092137 15.9580351,14.7368421 16,14.7368421 C16.0419649,14.7368421 16.0700351,14.7092137 16.0700351,14.6678406 L16.0700351,8.49005413 C16.0700351,8.448681 16.0419649,8.42105263 16,8.42105263 Z" id="Path"></path>
            <path d="M18.1333333,9.47368421 C18.0912281,9.47368421 18.0632982,9.50131258 18.0632982,9.54282455 L18.0632982,15.7204722 C18.0632982,15.7618453 18.0912281,15.7894737 18.1333333,15.7894737 C18.1752982,15.7894737 18.2033684,15.7618453 18.2033684,15.7204722 L18.2033684,9.54282455 C18.2033684,9.50131258 18.1752982,9.47368421 18.1333333,9.47368421 Z" id="Path"></path>
            <path d="M20.2666667,10.5263158 C20.2247018,10.5263158 20.1966316,10.5539436 20.1966316,10.5954546 L20.1966316,16.7729664 C20.1966316,16.8144775 20.2247018,16.8421053 20.2666667,16.8421053 C20.3086316,16.8421053 20.3367018,16.8144775 20.3367018,16.7729664 L20.3367018,10.5954546 C20.3367018,10.5539436 20.2947368,10.5263158 20.2666667,10.5263158 Z" id="Path"></path>
            <path d="M8.53340351,3.15789474 C8.49129825,3.15789474 8.46336842,3.18552311 8.46336842,3.22699342 L8.46336842,9.40468271 C8.46336842,9.44605584 8.49129825,9.47368421 8.53340351,9.47368421 C8.57536842,9.47368421 8.60329825,9.44605584 8.60329825,9.40468271 L8.60329825,3.22699342 C8.60329825,3.19935117 8.57536842,3.15789474 8.53340351,3.15789474 Z" id="Path"></path>
            <path d="M10.6666667,4.21052632 C10.6245614,4.21052632 10.5966316,4.23816857 10.5966316,4.279625 L10.5966316,10.4573143 C10.5966316,10.4986874 10.6245614,10.5263158 10.6666667,10.5263158 C10.7086316,10.5263158 10.7367018,10.4986874 10.7367018,10.4573143 L10.7367018,4.279625 C10.7367018,4.25198275 10.6945965,4.21052632 10.6666667,4.21052632 Z" id="Path"></path>
            <path d="M12.8,5.26315789 C12.7580351,5.26315789 12.7299649,5.29079984 12.7299649,5.33225582 L12.7299649,11.5098078 C12.7299649,11.5513193 12.7580351,11.5789474 12.8,11.5789474 C12.8419649,11.5789474 12.8700351,11.5513193 12.8700351,11.5098078 L12.8700351,5.33225582 C12.8700351,5.30461388 12.8419649,5.26315789 12.8,5.26315789 Z" id="Path"></path>
        </g>
    </g>
</svg>