<?xml version="1.0" encoding="UTF-8"?>
<svg width="40px" height="40px" viewBox="0 0 40 40" version="1.1" xmlns="http://www.w3.org/2000/svg" xmlns:xlink="http://www.w3.org/1999/xlink">
    <title>Category Icon/category-armchair</title>
    <g id="Category-Icon/category-armchair" stroke="none" stroke-width="1" fill="none" fill-rule="evenodd">
        <g id="category-armchair" transform="translate(6.633663, 4.000000)" fill="#000000" fill-rule="nonzero">
            <path d="M13.8662119,7 C13.5911931,7 13.3663366,7.21877934 13.3663366,7.5 C13.3663366,7.78122066 13.5911931,8 13.8662119,8 C14.1412306,8 14.3663366,7.78122066 14.3663366,7.5 C14.3663366,7.21877934 14.1412306,7 13.8662119,7 Z" id="Path"></path>
            <path d="M16.8662119,9 C16.5911931,9 16.3663366,9.21874511 16.3663366,9.50007824 C16.3663366,9.78125489 16.5911931,10 16.8662119,10 C17.1412306,10 17.3663366,9.78125489 17.3663366,9.50007824 C17.3663366,9.21874511 17.1412306,9 16.8662119,9 Z" id="Path"></path>
            <path d="M19.8662119,11 C19.5911931,11 19.3663366,11.2187451 19.3663366,11.5000782 C19.3663366,11.7812549 19.5911931,12 19.8662119,12 C20.1412306,12 20.3663366,11.7812549 20.3663366,11.5000782 C20.3663366,11.2187451 20.1412306,11 19.8662119,11 Z" id="Path"></path>
            <path d="M25.7462057,13.06614 L25.7462057,7.75128851 C25.7462057,6.88126871 25.5911343,5.90067465 24.4903128,5.26796178 C23.2345747,4.54029445 16.6763843,0.712397423 16.2113247,0.427676631 C15.6376223,0.0638588095 14.7229795,-0.173400596 14.040789,0.15876574 C13.4361343,0.459312275 13.0020271,0.696571681 12.6764081,0.949656829 C12.3973723,1.15529643 11.947789,1.48746277 11.947789,2.59471029 L11.947789,5.48942713 C11.405039,5.52095188 10.8933962,5.72657564 10.5834081,5.91651624 C10.0872414,6.21703109 2.83138425,10.5036053 1.65318187,11.1680014 C0.521408062,11.8165558 0.366336634,12.8129915 0.366336634,13.7146945 L0.366336634,20.3580212 C0.366336634,21.4811895 0.8625033,21.9873281 1.29661044,22.3195261 C1.43605092,22.4302588 1.57564616,22.4934667 1.77714616,22.620041 C1.87015806,22.6675657 1.99427711,22.7466152 2.13371759,22.8256648 L2.13371759,24.7238034 C2.13371759,25.1350509 2.61440806,25.4514073 3.2654914,25.4514073 C3.91672949,25.4514073 4.39741997,25.1350509 4.39741997,24.7238034 L4.39741997,23.1737044 L11.8391462,27.5393281 C11.9942176,28.1878826 12.3662652,28.5517638 12.6918843,28.8047539 C12.8314795,28.9154865 12.9554438,28.9788529 13.1725747,29.1052687 C13.2190033,29.1369519 13.2810628,29.168635 13.3276462,29.2003182 L13.3276462,31.2248727 C13.3276462,31.6519618 13.8236581,32 14.45942,32 C15.0950271,32 15.5911938,31.6678034 15.5911938,31.2248727 L15.5911938,29.6115657 C15.7151581,29.564041 15.8547533,29.5008331 15.9941938,29.4216251 C16.7229676,29.0103776 20.1492414,27.0015063 22.62992,25.5304568 L22.62992,25.7360806 C22.62992,26.1631697 23.1260866,26.5112093 23.7616938,26.5112093 C24.3973009,26.5112093 24.8934676,26.1790113 24.8934676,25.7360806 L24.8934676,24.2018232 C24.9089438,24.1859816 24.9400509,24.17014 24.9555271,24.1542984 C26.3663366,23.3002786 26.3663366,22.1139024 26.3663366,21.5443974 L26.3663366,14.616239 C26.3353843,13.6988529 26.0252414,13.3032885 25.7462057,13.06614 Z M12.9554438,1.32928455 C13.2501104,1.10783505 13.6685866,0.870575641 14.242289,0.585854849 C14.7229795,0.348579602 15.4825509,0.538393463 15.9632414,0.838939998 C16.4748843,1.17110633 23.1879914,5.0781796 24.2733366,5.69505089 C25.1105985,6.16950633 25.2966223,6.86558554 25.2966223,7.7671301 L25.2966223,12.7497836 C25.0019557,12.5600014 24.6453843,12.3700608 24.1958009,12.1485954 C23.8081223,11.9588133 23.358539,11.9588133 22.9244319,12.0537044 L22.9244319,9.17497168 C22.9244319,8.32079346 22.7849914,7.45077366 21.7771819,6.88126871 C20.6608843,6.24855584 13.8236581,2.21508257 13.3585985,1.93036178 C13.1570985,1.80381921 12.9090152,1.69310237 12.6609319,1.62983109 C12.7384676,1.48746277 12.8469557,1.39255584 12.9554438,1.32928455 Z M3.59111044,22.7939816 C3.52905092,22.5883578 3.49809854,22.3512093 3.49809854,22.0980608 L3.49809854,20.4055459 C3.65316997,20.5638034 3.83919378,20.7060608 4.07180092,20.8484766 L4.07180092,22.6675657 C3.91672949,22.7307737 3.74618187,22.7624568 3.59111044,22.7939816 Z M3.51357473,16.340437 L3.51357473,15.4387341 C3.51357473,14.4738232 3.69959854,13.7303776 4.61439616,13.2083974 C5.45165806,12.733942 9.57559854,10.3138232 11.947789,8.90598158 L11.947789,9.96578356 C11.947789,10.3296648 11.947789,10.946536 12.3353128,11.5792489 C11.8857295,11.5475657 11.3586104,11.6266152 10.7539557,11.9746548 C9.25013425,12.8288331 5.03302711,15.3280014 4.02521759,15.9607143 C3.82371759,16.0714469 3.65316997,16.1980212 3.51357473,16.340437 Z M4.33536044,20.4530707 C3.59111044,20.01014 3.45166997,19.5196846 3.38961044,19.0452291 C3.37413425,18.9028133 3.37413425,18.7763974 3.37413425,18.5390905 C3.37413425,18.3493083 3.38961044,18.1120014 3.37413425,17.7322786 C3.37413425,17.4951301 3.42056282,17.2736648 3.52905092,17.068041 C3.68412235,17.22614 3.87014616,17.3685558 4.08727711,17.4951301 C4.89343187,17.9695855 7.62219378,19.5672093 9.71519378,20.7851103 L11.7616104,21.9714865 L11.7616104,24.8186945 L10.7073723,24.2018232 C8.56794378,22.952239 5.23452711,20.9750509 4.33536044,20.4530707 Z M11.7616104,20.2157638 L11.7616104,21.7184964 L9.83915806,20.5953281 C7.74615806,19.3615855 5.01755092,17.7798034 4.2112414,17.3051895 C3.99426521,17.1787737 3.82371759,17.0363578 3.66864616,16.8782588 C3.8082414,16.6883182 4.0097414,16.5143776 4.25782473,16.3561202 C5.26563425,15.7234073 9.48258663,13.224239 10.9709319,12.3859024 C11.7927176,11.9272885 12.3973723,12.006338 12.8624319,12.1802786 C12.9865509,12.2910113 13.1414676,12.401744 13.3120152,12.5124766 C13.9632533,12.9078826 15.5446104,13.8411103 17.5600747,15.0274865 C15.5911938,16.1821796 13.6066819,17.3527143 13.0329795,17.6849123 C11.9166819,18.3176251 11.7616104,19.3140608 11.7616104,20.2157638 Z M18.1337771,14.6952885 C16.0407771,13.4615459 13.8391343,12.164437 13.6066819,12.0221796 C13.4825628,11.9429717 13.3276462,11.8480806 13.1259914,11.7690311 C12.4128485,11.1363182 12.4128485,10.4087143 12.4128485,9.94994198 L12.4128485,2.57890039 C12.4128485,2.24671822 12.4594319,2.00945881 12.5213366,1.83545485 C12.76942,1.89872614 13.0175033,1.99363307 13.2190033,2.12017564 C13.6842176,2.40489643 20.53692,6.43849643 21.6375866,7.0712093 C22.4903247,7.56150633 22.6763485,8.25742713 22.6763485,9.1591301 L22.6763485,12.0853875 C22.412789,12.164437 22.1803366,12.2751697 21.9786819,12.401744 C21.7462295,12.5600014 20.0252771,13.5881202 18.1337771,14.6952885 Z M1.57564616,21.9241202 C1.18796759,21.6392885 0.831396157,21.2438826 0.831396157,20.342338 L0.831396157,13.6988529 C0.831396157,12.7813083 1.00194378,12.0695459 1.87015806,11.5792489 C3.04851521,10.8990113 10.3353247,6.62827861 10.8160152,6.31192218 C11.0950509,6.13782317 11.5291581,5.97972416 11.9321581,5.94804099 L11.9321581,8.62130831 C9.57559854,10.0133083 5.34301521,12.5124766 4.47480092,12.9869321 C3.40508663,13.6039618 3.25001521,14.5213479 3.25001521,15.4228925 L3.25001521,16.5934271 C3.01756282,16.9256251 2.89344378,17.3051895 2.89344378,17.7165954 C2.89344378,18.0803182 2.89344378,18.3334667 2.89344378,18.5074073 C2.89344378,18.7447143 2.89344378,18.8869717 2.90891997,19.0610707 C2.94002711,19.3774271 3.01756282,19.7254667 3.2654914,20.0891895 L3.2654914,22.0663776 C3.2654914,22.3195261 3.29659854,22.5568331 3.34302711,22.7782984 C3.11057473,22.7624568 2.89344378,22.6990905 2.69194378,22.5883578 C2.36632473,22.3985756 2.14934854,22.2720014 1.99427711,22.1771103 C1.8082533,22.0822192 1.69961044,22.0190113 1.57564616,21.9241202 Z M3.2654914,24.9611103 C2.83138425,24.9611103 2.59893187,24.7713281 2.59893187,24.7079618 L2.59893187,23.0788133 C2.8624914,23.2052291 3.12605092,23.284437 3.40508663,23.284437 C3.57563425,23.284437 3.74618187,23.2527539 3.91672949,23.2210707 L3.91672949,24.7238034 C3.91672949,24.7870113 3.68412235,24.9611103 3.2654914,24.9611103 Z M4.53686044,22.6990905 L4.53686044,21.1173083 C5.80822949,21.8607539 8.59889616,23.5215855 10.47492,24.6130707 L11.7616104,25.3723578 L11.7616104,26.8434073 C11.7616104,26.8750905 11.7616104,26.9066152 11.7616104,26.9382984 L4.53686044,22.6990905 Z M12.97092,28.4251895 C12.5833962,28.1405162 12.2268247,27.7449519 12.2268247,26.8434073 L12.2268247,20.1999222 C12.2268247,19.282536 12.3973723,18.5706152 13.2655866,18.0803182 C14.45942,17.400239 21.7307533,13.1293479 22.2267652,12.8129915 C22.5523843,12.6073677 23.0330747,12.4492687 23.4515509,12.4492687 C23.6532057,12.4492687 23.8392295,12.4807935 23.9943009,12.5600014 C24.5833247,12.8446747 25.0019557,13.0976648 25.3275747,13.3191301 C25.4826462,13.4298628 25.66867,13.5722786 25.7771581,13.888635 C25.451539,13.951843 25.1105985,14.0784172 24.8314081,14.2523578 C24.3353962,14.5530311 17.079539,18.8396053 15.9011819,19.5040014 C14.8314676,20.1208727 14.6763962,21.0382588 14.6763962,21.9398034 L14.6763962,28.5832885 C14.6763962,28.836437 14.7073485,29.073744 14.7539319,29.2952093 C14.5213247,29.2793677 14.3043485,29.2160014 14.1028485,29.1052687 C13.7772295,28.9154865 13.5600985,28.7889123 13.4050271,28.6940212 C13.2035271,28.5832885 13.095039,28.5200806 12.97092,28.4251895 Z M15.1259795,31.2248727 C15.1259795,31.3356053 14.86242,31.5253875 14.45942,31.5253875 C14.0562652,31.5253875 13.7927057,31.3514469 13.7927057,31.2248727 L13.7927057,29.4691499 C13.8081819,29.4849915 13.8391343,29.5008331 13.8547652,29.5008331 C14.1492771,29.6747737 14.45942,29.7696648 14.8005152,29.7696648 C14.9090033,29.7696648 15.0020152,29.7538232 15.1105033,29.7379816 L15.1105033,31.2248727 L15.1259795,31.2248727 Z M24.3973009,25.7519222 C24.3973009,25.8626548 24.1337414,26.052437 23.7307414,26.052437 C23.3275866,26.052437 23.0640271,25.8784964 23.0640271,25.7519222 L23.0640271,25.2774667 C23.57567,24.9769519 24.0252533,24.7079618 24.3818247,24.4864964 L24.3818247,25.7519222 L24.3973009,25.7519222 Z M25.87017,21.560239 C25.87017,22.1139024 25.87017,23.0312885 24.6919676,23.7588925 C23.1725152,24.6921202 16.75392,28.4725558 15.7617414,29.0262192 C15.4825509,29.1844766 15.2346223,29.2635261 14.986539,29.2952093 C14.9244795,29.0895855 14.8935271,28.8522786 14.8935271,28.5991301 L14.8935271,21.9556449 C14.8935271,20.9907341 15.0795509,20.2474469 15.9941938,19.7254667 C17.1725509,19.0452291 24.4438843,14.774338 24.9400509,14.45814 C25.1879795,14.2998826 25.5135985,14.1733083 25.8237414,14.125942 C25.8546938,14.2681994 25.87017,14.4264568 25.87017,14.6320806 L25.87017,21.560239 Z" id="Shape"></path>
            <path d="M14.3038357,20 C14.331098,20 14.3446614,19.9890664 14.3582247,19.9781328 C14.3717881,19.9562656 14.3717881,19.9235741 14.331098,19.9017069 L12.4695277,19.0064631 C12.442401,18.9956388 12.4015753,18.9956388 12.3744486,19.0283303 C12.3608852,19.0501975 12.3608852,19.082889 12.4015753,19.1047562 L14.2631456,20 C14.276709,19.9890664 14.2902723,20 14.3038357,20 Z" id="Path"></path>
            <path d="M22.4463562,8 C22.4611683,8 22.4759804,8 22.4759804,7.98705879 L24.3309015,7.1212915 C24.3605258,7.1084797 24.3753379,7.06965606 24.3605258,7.03083241 C24.3457137,7.00507939 24.3011292,6.99213818 24.2566928,7.00507939 L22.4017717,7.87084667 C22.3721475,7.88378789 22.3573354,7.92248212 22.3721475,7.96130577 C22.3869596,8 22.4165838,8 22.4463562,8 Z" id="Path"></path>
            <path d="M2.30354526,14 C2.33085728,14 2.34451329,13.9890672 2.3581693,13.9781344 C2.37182531,13.9562689 2.37182531,13.9235799 2.33085728,13.9017143 L0.470362473,13.0065386 C0.442913893,12.9956059 0.401945863,12.9956059 0.374497282,13.0284042 C0.360841272,13.0502697 0.360841272,13.0829587 0.401945863,13.1048243 L2.27609668,14 C2.28975269,14 2.28975269,14 2.30354526,14 Z" id="Path"></path>
        </g>
    </g>
</svg>