<svg xmlns="http://www.w3.org/2000/svg" xmlns:xlink="http://www.w3.org/1999/xlink" width="24" height="24" viewBox="0 0 24 24">
    <path d="M23.873 17.644c-.03-.064-.056-.118-.082-.16-.416-.767-1.212-1.708-2.386-2.824l-.025-.025-.013-.013-.012-.013h-.013c-.533-.52-.87-.869-1.012-1.048-.258-.34-.316-.685-.175-1.035.1-.264.475-.821 1.125-1.673.341-.451.612-.813.812-1.086 1.441-1.959 2.066-3.21 1.874-3.756l-.074-.127c-.05-.077-.18-.147-.387-.211-.209-.064-.475-.075-.8-.032l-3.599.025c-.058-.02-.142-.019-.25.007l-.163.038-.062.032-.05.039c-.042.025-.087.07-.137.134-.05.063-.092.138-.125.223-.392 1.03-.837 1.989-1.337 2.875-.309.528-.592.986-.85 1.373-.258.388-.475.673-.65.856-.175.183-.333.33-.475.44-.141.112-.25.158-.324.141l-.213-.05c-.117-.078-.21-.182-.281-.314-.071-.132-.119-.298-.144-.498-.025-.2-.04-.373-.044-.518-.003-.144-.002-.349.007-.613.008-.264.012-.443.012-.536 0-.324.007-.675.019-1.054l.031-.901c.009-.222.013-.456.013-.703 0-.247-.015-.44-.044-.581-.029-.14-.073-.277-.131-.409-.058-.132-.144-.234-.256-.307-.113-.072-.252-.13-.419-.172-.441-.102-1.004-.158-1.687-.166-1.55-.017-2.545.085-2.986.307-.175.093-.334.221-.475.383-.15.187-.171.29-.063.306.5.077.854.26 1.062.55l.075.153c.059.11.117.307.175.588.059.28.096.592.113.932.041.622.041 1.154 0 1.597-.042.443-.081.788-.119 1.035-.037.247-.094.447-.169.6-.075.154-.125.247-.15.281-.025.034-.045.056-.062.064-.108.043-.22.064-.337.064-.117 0-.259-.06-.425-.179-.167-.119-.34-.283-.519-.492-.179-.208-.38-.5-.606-.875-.225-.374-.458-.817-.7-1.328l-.2-.37c-.124-.24-.295-.586-.512-1.042-.216-.456-.408-.897-.575-1.323-.066-.178-.166-.315-.3-.408l-.062-.039c-.042-.034-.108-.07-.2-.108-.092-.039-.187-.066-.287-.083L.8 5.64c-.35 0-.587.081-.712.243l-.05.077C.013 6.002 0 6.07 0 6.164c0 .094.025.209.075.345.5 1.201 1.043 2.36 1.63 3.475C2.294 11.1 2.804 12 3.237 12.68c.433.681.875 1.324 1.325 1.929.45.604.748.992.893 1.162.146.17.26.298.344.384l.312.306c.2.205.494.45.881.735.388.285.817.566 1.287.843.471.277 1.019.503 1.644.677.624.175 1.233.245 1.824.211h1.437c.292-.026.512-.12.662-.281l.05-.064c.034-.05.065-.13.094-.236.029-.107.044-.224.044-.351-.009-.367.018-.697.08-.99.063-.294.134-.516.213-.665.08-.149.17-.275.269-.376.1-.103.17-.165.213-.186.041-.021.074-.036.1-.045.2-.068.434-.002.705.199.271.2.525.447.763.74.237.295.522.625.856.99.333.367.625.64.874.818l.25.154c.167.102.384.196.65.28.266.086.5.107.7.065l3.199-.051c.316 0 .562-.054.737-.16.175-.107.279-.224.312-.351.034-.128.035-.273.007-.435-.03-.162-.06-.275-.088-.338z" />
</svg>
