<svg width="25" height="24" viewBox="0 0 25 24" fill="none" xmlns="http://www.w3.org/2000/svg">
<path d="M18.9226 4.13627C18.118 4.13627 17.4827 4.77859 17.4827 5.58326C17.4827 6.37381 18.1392 7.03025 18.9226 7.03025C19.7273 7.03025 20.3626 6.38793 20.3626 5.58326C20.3555 4.79271 19.7061 4.13627 18.9226 4.13627ZM23.8848 4.13627C23.5671 3.34572 23.1648 2.68928 22.4872 2.00461C21.8166 1.34111 21.1602 0.917603 20.3555 0.621147C19.5932 0.32469 18.7321 0.134111 17.4404 0.0635264C16.1557 0 15.7534 0 12.4994 0C9.24546 0 8.82195 0.0211755 7.55848 0.0635264C6.26678 0.127053 5.39859 0.317632 4.64333 0.621147C3.85984 0.917603 3.18222 1.34111 2.50461 2.00461C1.827 2.66811 1.42466 3.34572 1.10703 4.13627C0.817632 4.89859 0.605877 5.77384 0.563526 7.05143C0.5 8.33607 0.5 8.7384 0.5 11.9994C0.5 15.2604 0.521175 15.6628 0.563526 16.9474C0.627053 18.225 0.817632 19.1003 1.11409 19.8696C1.43172 20.6602 1.83405 21.3166 2.51167 22.0013C3.18928 22.6648 3.84572 23.0883 4.64333 23.3848C5.40565 23.6812 6.26678 23.8718 7.55848 23.9424C8.85019 24.013 9.24546 23.9988 12.4994 23.9988C15.7534 23.9988 16.1769 23.9777 17.4404 23.9353C18.7321 23.8718 19.5932 23.6812 20.3555 23.3777C21.139 23.0812 21.8166 22.6507 22.4872 21.9942C23.1648 21.3307 23.5671 20.6531 23.8848 19.8626C24.1812 19.0932 24.393 18.2179 24.4353 16.9404C24.4988 15.6628 24.4988 15.2604 24.4988 11.9994C24.4988 8.7384 24.4777 8.33607 24.4353 7.05143C24.3718 5.75266 24.1812 4.87741 23.8848 4.13627ZM22.2825 16.8557C22.219 18.0274 22.0284 18.6697 21.859 19.0932C21.6472 19.6438 21.3719 20.0532 20.9484 20.4767C20.5249 20.9002 20.1226 21.1613 19.572 21.3731C19.1485 21.5425 18.5133 21.7331 17.3345 21.7754C16.064 21.839 15.6899 21.839 12.4782 21.839C9.26664 21.839 8.88548 21.8178 7.62201 21.7754C6.45736 21.7119 5.80798 21.5213 5.38447 21.3731C4.81273 21.1613 4.43158 20.9072 4.00807 20.4767C3.58456 20.0532 3.33045 19.6649 3.09752 19.0932C2.92812 18.6697 2.73754 18.0274 2.67401 16.8557C2.61049 15.5993 2.61049 15.2181 2.61049 11.9994C2.61049 8.78075 2.63166 8.42077 2.67401 7.14319C2.73754 5.97148 2.92812 5.32916 3.09752 4.90565C3.30928 4.34803 3.58456 3.94569 4.00807 3.52218C4.43158 3.09867 4.83391 2.83751 5.38447 2.62576C5.80798 2.45635 6.44324 2.26577 7.62201 2.22342C8.89254 2.1599 9.26664 2.1599 12.4782 2.1599C15.6899 2.1599 16.071 2.18107 17.3345 2.22342C18.4991 2.28695 19.1485 2.47753 19.572 2.62576C20.1438 2.83751 20.5249 3.09162 20.9484 3.52218C21.3719 3.95275 21.626 4.35508 21.859 4.90565C22.0284 5.32916 22.219 5.97148 22.2825 7.14319C22.346 8.3996 22.346 8.78075 22.346 11.9994C22.346 15.1969 22.346 15.5781 22.2825 16.8557ZM12.4994 5.81619C9.09723 5.81619 6.33031 8.59018 6.33031 11.9782C6.33031 15.3875 9.09723 18.1403 12.4994 18.1403C15.9016 18.1403 18.6685 15.3663 18.6685 11.9782C18.6685 8.59018 15.9016 5.81619 12.4994 5.81619ZM12.4994 16.0086C10.2831 16.0086 8.48315 14.2158 8.48315 11.9994C8.48315 9.78306 10.276 7.9902 12.4994 7.9902C14.7228 7.9902 16.5157 9.78306 16.5157 11.9994C16.5157 14.2158 14.7158 16.0086 12.4994 16.0086Z" fill="#C5C2C8"/>
</svg>
