<svg xmlns="http://www.w3.org/2000/svg" xmlns:xlink="http://www.w3.org/1999/xlink" width="24" height="24" viewBox="0 0 24 24">
    <path id="xkuy4j7kaa" d="M11.922 2c-2.861 0-5.18 2.32-5.18 5.18 0 2.861 2.319 5.181 5.18 5.181 2.86 0 5.18-2.32 5.18-5.18 0-2.862-2.32-5.181-5.18-5.181zm0 7.322c-1.183 0-2.142-.959-2.142-2.142 0-1.182.96-2.141 2.142-2.141s2.141.959 2.141 2.141c0 1.183-.959 2.142-2.141 2.142zm1.814 7.17l3.13 3.103c.551.55.552 1.441.002 1.992-.55.55-1.441.551-1.992.001l-3.039-2.96-2.76 2.941c-.277.287-.645.431-1.014.431-.352 0-.705-.131-.978-.395-.56-.54-.576-1.431-.036-1.991l2.971-3.106c-2.132-.412-3.426-1.42-3.493-1.473-.606-.487-.704-1.374-.217-1.98.486-.607 1.373-.705 1.98-.218.013.01 1.366 1.027 3.547 1.028 2.181-.001 3.507-1.018 3.52-1.028.606-.487 1.493-.39 1.98.218.486.606.389 1.493-.218 1.98-.066.052-1.309 1.035-3.383 1.457z" />
</svg>
