<svg xmlns="http://www.w3.org/2000/svg" width="24" height="24" viewBox="0 0 24 24">
    <g fill="none" fill-rule="evenodd">
        <g fill="#000" fill-rule="nonzero">
            <path d="M23.127 12.263l-.685-3.388c-.01-.23-.105-.447-.267-.606-.162-.16-.378-.249-.603-.25h-8.156V5.97c0-.257-.1-.504-.277-.685-.177-.182-.418-.284-.669-.284H1.71c-.113.001-.224.025-.327.071-.103.046-.197.113-.275.196-.078.083-.138.182-.178.29-.04.107-.06.222-.056.338v6.368H.785c-.215.021-.415.124-.56.288-.145.165-.225.378-.225.6v2.26c0 .118.023.234.066.343.044.108.109.207.19.29.08.083.177.149.283.194.106.045.22.068.334.068h.038c-.024.08-.037.164-.038.248v2.558c.005.235.099.46.263.624.164.165.384.258.614.258h.766c.134-.001.265-.042.377-.117.112-.076.2-.184.254-.31l.536-1.25c.022-.05.058-.093.103-.122.045-.03.098-.046.152-.045h16.124c.054 0 .107.015.152.045s.081.072.103.123l.53 1.256c.053.126.141.233.253.309.112.076.243.116.378.117h.772c.232 0 .454-.094.619-.262.164-.167.257-.395.258-.633v-2.56c-.001-.085-.014-.168-.038-.249h.038c.23 0 .45-.093.614-.259.163-.165.257-.39.259-.626v-2.26c-.002-.236-.094-.462-.258-.629-.164-.166-.385-.26-.615-.26zm-21.623 0V5.907c-.004-.03-.002-.06.007-.09.008-.03.022-.057.042-.08.019-.024.043-.043.07-.056.027-.014.056-.021.086-.022H12.47c.084 0 .164.034.223.094.06.06.093.143.093.229V9.43c0 .085.033.167.092.228.06.06.14.095.223.095.084 0 .164-.035.223-.095s.092-.143.092-.228v-.766h8.153c.064 0 .126.026.172.073.045.047.07.11.07.176l.679 3.352H11.092c.073-.145.113-.305.117-.468v-3.19c0-.296-.114-.578-.318-.786-.203-.209-.479-.326-.767-.326H4.178c-.288 0-.564.117-.767.326-.204.208-.318.49-.318.785v3.19c.001.162.037.32.104.466H1.504zm2.207-.465v-3.19c0-.124.048-.242.133-.33.085-.087.2-.136.321-.136h5.947c.06-.002.12.01.177.032.057.022.109.056.152.1.044.043.078.095.102.152.023.057.035.119.035.181v3.19c0 .124-.047.242-.133.33-.085.087-.2.136-.32.136H4.177c-.12 0-.236-.05-.321-.137-.085-.087-.133-.205-.133-.328H3.71zm18.785 4.747v2.557c0 .067-.027.13-.073.176-.046.047-.108.073-.173.073h-.766c-.012 0-.024-.003-.034-.009-.01-.006-.018-.016-.023-.027l-.53-1.256c-.07-.166-.187-.307-.334-.406-.148-.1-.321-.152-.498-.152H3.935c-.177 0-.35.052-.498.152-.147.099-.264.24-.334.406l-.53 1.256c-.005.011-.013.02-.023.027-.01.006-.022.01-.034.009H1.75c-.065 0-.127-.026-.173-.073-.046-.046-.072-.11-.073-.176v-2.557c0-.067.027-.13.073-.176.046-.047.108-.073.173-.073h20.5c.065 0 .127.026.173.073.046.046.072.11.073.176zm.873-1.134c0 .066-.025.13-.07.176-.046.047-.108.073-.172.073h-9.71v-.837c0-.085-.034-.167-.093-.228-.06-.06-.14-.094-.223-.094-.084 0-.164.034-.223.094-.06.06-.092.143-.092.228v.827H.873c-.064 0-.126-.026-.171-.073-.046-.046-.071-.11-.071-.175V13.15c0-.066.025-.13.07-.176.046-.047.108-.073.172-.073h22.254c.064 0 .126.026.171.073.046.047.071.11.071.176v2.26z"/>
        </g>
    </g>
</svg>
