<svg xmlns="http://www.w3.org/2000/svg" width="24" height="24" viewBox="0 0 24 24">
    <path d="M16.446 1C20.06 1 23 3.94 23 7.554v8.892C23 20.06 20.06 23 16.446 23H7.554C3.94 23 1 20.06 1 16.446V7.554C1 3.94 3.94 1 7.554 1h8.892zm4.34 15.446V7.554c0-2.397-1.943-4.34-4.34-4.34H7.554c-2.397 0-4.34 1.943-4.34 4.34v8.892c0 2.397 1.943 4.34 4.34 4.34h8.892c2.397 0 4.34-1.943 4.34-4.34zM12 6.31c3.137 0 5.69 2.552 5.69 5.69 0 3.137-2.553 5.69-5.69 5.69-3.137 0-5.69-2.553-5.69-5.69 0-3.137 2.553-5.69 5.69-5.69zm0 9.167c1.92 0 3.477-1.557 3.477-3.477S13.92 8.523 12 8.523 8.523 10.08 8.523 12 10.08 15.477 12 15.477zm5.701-7.76c-.753 0-1.363-.611-1.363-1.364 0-.753.61-1.364 1.363-1.364s1.363.61 1.363 1.364c0 .753-.61 1.363-1.363 1.363z" />
</svg>
