<svg xmlns="http://www.w3.org/2000/svg" width="24" height="24" viewBox="0 0 24 24">
    <g fill="none" fill-rule="evenodd">
        <g fill="#000" fill-rule="nonzero">
            <path d="M11.957 2c2.677 0 5.241 1.08 7.111 2.995 3.91 4.02 3.91 10.42 0 14.44C17.05 21.5 12.976 22 9.511 22c-2.002-.005-4.002-.154-5.983-.446-.36-.059-.65-.327-.737-.682l-.07-.294C2.311 18.762.505 9.412 4.846 4.995 6.716 3.08 9.28 2 11.957 2zm-.004 1.816c-2.19 0-4.287.884-5.815 2.452-3.438 3.51-2.165 11.367-1.72 13.577v.009l.465.058c3.56.417 10.502.677 12.885-1.75 3.22-3.31 3.22-8.583 0-11.894-1.528-1.568-3.625-2.452-5.815-2.452zm.068 10.982c.502 0 .91.407.91.91 0 .245-.098.482-.273.654-.171.18-.408.281-.655.282-.502 0-.91-.407-.91-.91-.003-.249.095-.489.273-.663.173-.176.409-.274.655-.273zm.11-7.811c.493-.008.98.108 1.418.336.41.206.756.52 1 .91.24.423.363.904.355 1.39.026.411-.033.823-.173 1.21-.133.334-.324.642-.564.91-.282.294-.586.568-.91.818-.178.143-.311.336-.381.555-.058.155-.097.316-.116.48l-.012.165c.005.19-.067.373-.2.51-.122.114-.28.179-.446.185l-.1-.004c-.191.005-.377-.069-.513-.204-.136-.136-.21-.322-.205-.514.006-.378.093-.75.255-1.091.176-.38.434-.715.755-.982.236-.193.46-.4.673-.619.154-.169.28-.363.373-.573.106-.253.16-.525.154-.8-.002-.34-.136-.665-.373-.91-.257-.27-.618-.415-.99-.4-.439-.032-.87.12-1.192.42-.273.31-.416.713-.4 1.127.004.19-.068.373-.2.509-.206.206-.516.268-.785.157-.269-.112-.444-.375-.443-.666-.016-.54.113-1.074.373-1.546.253-.428.622-.775 1.064-1 .488-.255 1.032-.383 1.582-.373z"/>
        </g>
    </g>
</svg>
