<svg xmlns="http://www.w3.org/2000/svg" width="24" height="24" viewBox="0 0 24 24">
    <g fill="none" fill-rule="evenodd">
        <g fill="#000" fill-rule="nonzero">
            <path d="M11.602 24c-.24.002-.474-.087-.652-.25-.365-.345-8.948-8.304-8.948-13.69C1.884 4.636 6.177.137 11.602 0c5.426.136 9.718 4.635 9.6 10.06 0 5.386-8.582 13.354-8.947 13.69-.178.163-.411.252-.653.25zm0-22.08c-4.365.136-7.798 3.775-7.68 8.14 0 3.457 5.05 9.102 7.68 11.655 2.63-2.563 7.68-8.198 7.68-11.654.119-4.366-3.315-8.005-7.68-8.141zm0 12.96c-2.65 0-4.8-2.149-4.8-4.8s2.15-4.8 4.8-4.8c2.651 0 4.8 2.149 4.8 4.8s-2.149 4.8-4.8 4.8zm0-7.68c-1.59 0-2.88 1.29-2.88 2.88 0 1.59 1.29 2.88 2.88 2.88 1.591 0 2.88-1.29 2.88-2.88 0-1.59-1.289-2.88-2.88-2.88z"/>
        </g>
    </g>
</svg>
