<svg width="97" height="73" viewBox="0 0 97 73" fill="none" xmlns="http://www.w3.org/2000/svg">
<path d="M10.0886 5.40298C12.4246 4.75498 25.3457 3.93298 28.5377 3.80098C42.7727 3.22198 73.4646 2.99698 86.7896 5.29498C84.0896 11.499 83.7027 12.216 83.1337 19.659C82.6527 25.92 83.4256 30.103 84.0036 35.959C82.8236 35.43 81.6477 34.629 80.4617 34.156C66.3957 28.516 30.4887 28.511 16.6497 34.087C15.5787 34.517 14.1186 35.481 13.0416 35.766C13.4186 30.043 14.4726 25.08 13.8126 18.973C13.2626 13.873 12.4856 9.25298 10.0886 5.40298V5.40298ZM11.9687 40.743C12.6927 40.055 12.6776 39.273 14.8366 37.834C15.9636 37.084 17.3017 36.479 18.5807 35.991C26.1577 33.096 40.2366 32.453 48.4646 32.459C54.4816 32.462 82.1687 32.859 84.8687 40.927L84.0797 41.466C83.8017 41.612 83.3996 41.762 83.1496 41.849C82.4266 42.103 81.8277 42.277 81.1447 42.471C79.9347 42.808 78.2016 43.051 76.7966 43.252C73.8596 43.672 70.7246 43.77 67.6507 44.12C54.1196 45.658 42.6796 45.156 29.2846 44.043C26.3586 43.8 14.2967 43.495 11.9677 40.743H11.9687ZM5.25565 64.25C5.62665 62.731 6.43665 60.83 6.97165 59.181C8.43865 54.674 10.5117 48.075 11.4297 43.619C12.6127 43.871 14.0397 44.542 15.4557 44.925C21.3467 46.524 43.1157 47.601 48.7307 47.573C52.2137 47.556 55.5097 47.237 58.8257 47.167C61.6587 47.108 65.4156 46.934 68.3226 46.604C71.3596 46.254 74.6806 46.037 77.7066 45.64C82.0376 45.077 84.2336 43.81 85.5966 43.611C85.8926 46.56 88.8056 55.931 89.9446 59.233C90.3986 60.535 91.3847 63.004 91.5477 64.246C90.3077 63.419 89.1756 62.359 87.5846 61.32C76.4056 54.035 61.7216 52.241 48.1996 52.258C36.2056 52.271 23.7566 53.743 13.4096 58.998C8.52965 61.47 7.17765 63.198 5.25565 64.25V64.25ZM9.80565 39.453C8.18665 39.148 6.04764 34.756 5.49464 33.163C4.84164 31.282 3.88964 26.227 3.86964 24.207C3.81764 19.283 3.57165 8.34298 6.49965 5.73698C9.99965 6.09998 11.3646 17.937 11.4656 21.002C11.7686 30.29 10.7466 31.547 9.80565 39.452V39.453ZM87.3206 39.476C85.1016 32.446 84.8836 19.726 86.6946 12.153C87.1406 10.294 88.2976 6.45798 90.1646 5.72098C91.1506 6.25898 91.4716 6.99498 91.8656 8.39598C92.9466 12.256 92.9637 15.401 92.9637 19.416C92.9637 26.382 92.5016 35.63 87.3206 39.476V39.476ZM9.07765 42.257C8.61365 46.742 3.01965 63.4 1.00965 68.407C0.489652 69.7 -0.492351 70.932 0.681649 72.006C1.95765 72.684 2.26665 71.808 2.90065 70.8C4.26165 68.642 7.15065 65.989 9.15365 64.563C26.0456 52.526 59.8337 52.287 77.3387 59.119C83.3707 61.472 90.6717 65.405 94.1037 70.985C94.8587 72.212 95.1237 72.615 96.6597 71.837C97.1077 70.29 95.1746 66.579 94.5246 64.751C92.8406 60.008 88.2876 46.626 87.9256 42.257L88.2157 41.947C88.5227 41.647 88.3677 41.785 88.6557 41.537C89.0137 41.224 89.2056 41.101 89.5246 40.814C93.5706 37.141 94.9987 30.977 95.3017 25.521C95.6207 19.743 95.8536 8.31098 92.7856 4.56998C91.2326 2.67198 86.7386 2.75298 83.1926 2.33198C69.1986 0.678981 38.6176 0.522981 24.8186 1.54898C21.0486 1.82898 17.2866 2.01498 13.6586 2.40398C11.6736 2.61698 10.0826 2.81598 8.08465 2.96198C6.04765 3.11198 4.92364 3.40498 3.92464 4.87498C1.04564 9.09998 1.21265 19.762 1.59765 25.713C1.80465 28.904 2.53465 32.843 3.71565 35.495C5.52265 39.553 6.63965 39.938 9.07765 42.257" fill="#B41F25"/>
</svg>
