<svg xmlns="http://www.w3.org/2000/svg" width="142" height="16" viewBox="0 0 142 16">
  <path d="M129.576 1.494c0-.16-.057-.303-.17-.424-.113-.12-.255-.181-.428-.181h-.199V.444h2.968v.445h-.2c-.16 0-.297.06-.418.181-.12.121-.179.264-.179.424V5.13c.691-.027 1.411-.007 2.16.06.751.068 1.488.196 2.212.384.724.188 1.408.445 2.051.768.644.323 1.212.727 1.704 1.213.492.484.883 1.053 1.174 1.706.293.654.439 1.412.439 2.273 0 .714-.18 1.323-.537 1.829-.36.504-.81.925-1.355 1.262-.544.338-1.142.583-1.793.738-.65.155-1.268.231-1.852.231h-6.374v-.464h.219c.16 0 .295-.057.408-.17.113-.116.17-.254.17-.416V1.494zm1.374 4.081v9.556h3.764c.518 0 1.043-.077 1.574-.232.532-.155 1.013-.383 1.444-.687.432-.304.783-.676 1.056-1.121.273-.444.408-.962.408-1.556 0-1.118-.246-2.067-.737-2.849-.491-.781-1.133-1.41-1.922-1.888-.79-.478-1.676-.815-2.659-1.01-.983-.197-1.958-.267-2.928-.213zm-6.77 8.97V.97h-3.964c-.664.943-1.226 1.947-1.684 3.01-.458 1.064-.833 2.173-1.125 3.324-.291 1.152-.507 2.337-.647 3.555-.14 1.22-.216 2.448-.23 3.687 0 .149.05.284.15.405.1.12.223.181.369.181h.418v.464h-2.55v-.464h.4c.158 0 .287-.06.387-.181.1-.121.15-.256.15-.405.013-1.495.112-2.878.299-4.151.185-1.272.43-2.462.736-3.567.306-1.104.667-2.134 1.086-3.09.418-.956.88-1.866 1.384-2.727-.239.026-.5.054-.787.08-.285.028-.575.058-.866.092-.292.033-.578.073-.856.12-.28.048-.532.098-.757.153l.118-1.011h10.119v.445h-.22c-.158 0-.298.06-.417.181-.12.121-.18.264-.18.424v13.051c0 .162.06.3.18.416.12.113.259.17.418.17h.2v.464h-2.928v-.464h.198c.172 0 .316-.057.429-.17.113-.116.17-.254.17-.416zm-11.592-.645l-.738 1.695h-9.64v-.464h.24c.159 0 .292-.057.399-.17.105-.116.159-.254.159-.416V1.494c0-.16-.054-.303-.16-.424-.106-.12-.239-.181-.398-.181h-.24V.444h9.203l.738 1.697-.36.243c-.438-.472-.949-.84-1.533-1.101-.585-.263-1.195-.394-1.833-.394h-4.043v4h3.884c.318 0 .613-.008.887-.02.272-.015.538-.032.796-.05.259-.022.525-.052.797-.092.27-.04.56-.094.867-.161v1.09c-.24-.04-.503-.08-.788-.12-.285-.041-.578-.075-.876-.102-.298-.026-.593-.05-.886-.07-.293-.021-.558-.03-.797-.03h-3.884v9.797h4.46c.652 0 1.27-.127 1.855-.384.583-.256 1.095-.619 1.533-1.09l.358.243zM88.528 1.494c0-.16-.053-.303-.159-.424-.107-.12-.24-.181-.399-.181h-.238V.444h9.201l.737 1.697-.358.243c-.437-.472-.95-.84-1.533-1.101-.585-.263-1.196-.394-1.833-.394h-4.043V5.13c.69-.027 1.41-.007 2.16.06.751.068 1.488.196 2.211.384.725.188 1.408.445 2.052.768.645.323 1.212.727 1.703 1.213.491.484.883 1.053 1.175 1.706.293.654.438 1.412.438 2.273 0 .714-.179 1.323-.537 1.829-.359.504-.81.925-1.354 1.262-.546.338-1.142.583-1.792.738-.652.155-1.27.231-1.854.231h-6.373v-.464h.219c.16 0 .296-.057.408-.17.113-.116.17-.254.17-.416V1.494zm1.375 4.081v9.556h3.764c.517 0 1.042-.077 1.573-.232.532-.155 1.014-.383 1.445-.687.431-.304.783-.676 1.055-1.121.273-.444.41-.962.41-1.556 0-.929-.177-1.746-.53-2.454-.35-.708-.846-1.31-1.482-1.809-.453-.363-.927-.656-1.425-.879-.498-.222-1.012-.394-1.543-.514-.532-.121-1.07-.203-1.614-.243-.545-.04-1.095-.06-1.653-.06zm-4.74 8.325l-.736 1.695h-9.641v-.464h.24c.159 0 .292-.057.397-.17.107-.116.16-.254.16-.416V1.494c0-.16-.053-.303-.16-.424-.105-.12-.238-.181-.397-.181h-.24V.444h9.202l.737 1.697-.359.243c-.437-.472-.95-.84-1.533-1.101C82.249 1.02 81.638.889 81 .889h-4.044v4h3.885c.318 0 .613-.008.885-.02.272-.015.538-.032.797-.05.26-.022.524-.052.797-.092s.56-.094.866-.161v1.09c-.238-.04-.501-.08-.786-.12-.286-.041-.578-.075-.877-.102-.298-.026-.594-.05-.886-.07-.292-.021-.558-.03-.796-.03h-3.885v9.797h4.463c.65 0 1.267-.127 1.851-.384.584-.256 1.095-.619 1.534-1.09l.358.243zm-12.945 1.695H69.25v-.464h.2c.146 0 .264-.043.358-.131.092-.087.14-.206.14-.353v-.08l-1.714-12.73-3.844 13.597h-.598L60.048 2.081l-1.414 12.486v.08c0 .134.04.249.119.343.08.095.186.141.32.141h.417v.464h-2.47v-.464h.4c.171 0 .314-.064.428-.192.112-.127.182-.273.209-.434L59.53 1.474v-.08c0-.136-.036-.254-.11-.355-.072-.1-.182-.15-.328-.15h-.419V.444h2.332l3.485 12.404L67.856 1.01c-.12-.08-.246-.121-.379-.121h-.219V.444h2.988v.445h-.219c-.146 0-.263.046-.348.14-.087.094-.13.216-.13.364v.08l1.753 13.032c.026.175.109.324.248.445.14.12.296.181.47.181h.198v.464zm-17.765-8.08c0 .66-.094 1.259-.28 1.798-.185.538-.457 1.004-.816 1.394-.358.39-.797.693-1.314.909-.52.215-1.11.324-1.773.324-.505 0-.99-.092-1.454-.273-.465-.183-.89-.442-1.275-.777l.28-.345c.291.202.61.37.954.505.346.135.704.202 1.076.202.558 0 1.04-.108 1.445-.322.405-.216.737-.502.995-.86.259-.357.452-.77.578-1.242.126-.47.19-.963.19-1.474 0-.81-.144-1.6-.429-2.374-.286-.774-.687-1.466-1.206-2.072-.517-.605-1.131-1.093-1.842-1.464-.71-.37-1.49-.555-2.34-.555h-1.175v13.656c0 .162.06.3.179.416.12.113.26.17.419.17h.198v.464h-2.967v-.464h.199c.172 0 .316-.057.428-.17.113-.116.17-.254.17-.416V1.494c0-.16-.057-.303-.17-.424-.112-.12-.256-.181-.428-.181h-.2V.444h3.347c.929 0 1.83.186 2.699.555.87.37 1.64.88 2.31 1.526.67.647 1.205 1.397 1.604 2.253.398.854.598 1.767.598 2.737zm-13.444.505c0 1.023-.18 2.017-.538 2.98-.358.962-.857 1.815-1.494 2.555-.637.742-1.398 1.333-2.281 1.778-.883.445-1.855.667-2.918.667-1.061 0-2.035-.222-2.917-.667-.884-.445-1.644-1.036-2.281-1.778-.637-.74-1.135-1.593-1.494-2.555-.359-.963-.537-1.957-.537-2.98s.178-2.017.537-2.98c.36-.963.857-1.819 1.494-2.565.637-.747 1.397-1.347 2.28-1.799C31.744.226 32.718 0 33.779 0c1.063 0 2.035.225 2.918.676.883.452 1.644 1.052 2.28 1.799.638.746 1.137 1.602 1.495 2.565.359.963.538 1.957.538 2.98zm-1.454 0c0-1.05-.153-2.037-.458-2.96-.306-.922-.724-1.728-1.255-2.414-.532-.687-1.142-1.222-1.832-1.607-.69-.383-1.434-.575-2.232-.575-.796 0-1.54.192-2.23.575-.69.385-1.294.92-1.812 1.607-.531.686-.95 1.492-1.256 2.413-.305.924-.458 1.91-.458 2.96 0 1.052.153 2.035.458 2.95.306.917.725 1.718 1.256 2.404.518.687 1.122 1.227 1.812 1.617.69.391 1.434.586 2.23.586.798 0 1.541-.195 2.232-.586.69-.39 1.3-.93 1.832-1.617.53-.686.95-1.487 1.255-2.404.305-.915.458-1.898.458-2.95zm-14.48-5.88l-.358.244c-.438-.472-.95-.84-1.533-1.101-.585-.263-1.196-.394-1.833-.394h-1.753v13.656c0 .162.054.3.16.416.105.113.24.17.398.17h.378v.464h-3.127v-.464h.239c.16 0 .295-.057.408-.17.113-.116.17-.254.17-.416V.89H16.61c-.638 0-1.248.131-1.833.394-.584.262-1.095.63-1.533 1.1l-.359-.242.737-1.697H24.34l.736 1.697zm-14 9.294c0 .687-.154 1.307-.458 1.858-.306.554-.711 1.018-1.216 1.395-.504.377-1.082.666-1.732.868-.651.203-1.322.304-2.012.304-.598 0-1.185-.067-1.763-.202-.578-.135-1.118-.34-1.623-.616-.505-.277-.956-.623-1.354-1.041-.399-.418-.704-.91-.917-1.474l1.255-.648c.132.607.349 1.129.647 1.566.3.438.644.799 1.036 1.081.392.283.82.492 1.285.627.465.133.936.201 1.414.201.518 0 1.02-.084 1.504-.252.484-.168.916-.41 1.294-.728.38-.316.685-.707.916-1.172.234-.464.349-.993.349-1.585 0-.647-.119-1.202-.358-1.667-.239-.465-.55-.875-.936-1.232-.385-.357-.82-.67-1.306-.94-.483-.27-.972-.525-1.463-.767-.478-.242-.946-.492-1.404-.748-.458-.255-.863-.542-1.215-.858-.352-.317-.634-.67-.847-1.06-.212-.392-.318-.85-.318-1.374 0-.473.106-.886.318-1.242.213-.358.485-.658.817-.9.331-.242.707-.425 1.125-.546.419-.12.833-.181 1.245-.181.412 0 .82.043 1.225.132.405.087.787.221 1.146.402.358.183.68.408.966.677.285.27.52.58.706.93l-1.036.707c-.106-.376-.268-.71-.487-1-.22-.29-.475-.532-.767-.728-.292-.194-.611-.343-.956-.444-.345-.1-.684-.15-1.016-.15-.292 0-.574.04-.847.12-.271.081-.51.202-.716.364-.206.161-.369.37-.489.626s-.179.552-.179.889c0 .336.087.64.26.909.172.27.404.522.697.758.29.234.63.46 1.015.676.385.216.79.431 1.216.647.61.31 1.21.639 1.802.99.59.35 1.121.75 1.593 1.201.471.452.854.974 1.146 1.566.292.593.437 1.28.437 2.061z" transform="translate(-15 -23) translate(16 23)" />
</svg>
