<svg xmlns="http://www.w3.org/2000/svg" width="42" height="42" viewBox="0 0 42 42">
    <g fill="none" fill-rule="evenodd">
        <g>
            <g>
                <g transform="translate(-191.000000, -512.000000) translate(120.000000, 489.000000) translate(72.000000, 24.000000)">
                    <circle cx="20" cy="20" r="20" fill="#FFF" stroke="#CFCFCF"/>
                    <g fill="#B41F25">
                        <path d="M13.333 2.667c5.626 0 10.497 3.907 11.716 9.4 1.219 5.492-1.541 11.093-6.639 13.473-3.218 1.502-6.936 1.502-10.154 0-5.098-2.38-7.858-7.982-6.639-13.474 1.22-5.492 6.09-9.4 11.716-9.4zm4.445 21.2c-2.723 1.324-5.891 1.363-8.64.117l-.25-.117v.982c2.748 1.203 5.862 1.24 8.631.109l.259-.11v-.981zM3.128 15.11h-.89c.161 3.81 2.257 7.27 5.546 9.178L8 24.41v-1.036c-2.822-1.737-4.628-4.726-4.859-8.022l-.014-.242zm21.301 0h-.889c-.154 3.31-1.896 6.337-4.669 8.135l-.204.13v1.035c3.34-1.84 5.504-5.257 5.749-9.052l.013-.248zm-9.478 2.083c-1.368-.534-2.911-.358-4.124.47-1.164.794-1.88 2.092-1.935 3.494l-.003.175v1.536c2.696 1.467 5.937 1.507 8.663.119l.226-.12v-1.535c0-1.773-1.054-3.37-2.67-4.073l-.157-.066zm-1.618.584c1.473 0 2.667 1.194 2.667 2.666 0 1.473-1.194 2.667-2.667 2.667-1.472-.001-2.665-1.194-2.666-2.667 0-1.472 1.194-2.666 2.666-2.666zm7.111-9.142v2.03c-.001 1.185-.928 2.153-2.096 2.22l-.126.003H8.444c-1.184-.002-2.151-.928-2.218-2.096l-.004-.126v-2.03c-1.704 2-2.483 4.628-2.144 7.235.327 2.522 1.672 4.796 3.715 6.299l.207.148v-.986C8 18.388 10.388 16 13.333 16c2.89 0 5.243 2.299 5.331 5.167l.003.166v.986c2.159-1.5 3.583-3.841 3.922-6.447.328-2.523-.391-5.066-1.983-7.04l-.162-.196zm-7.11 10.03c-.982 0-1.778.797-1.778 1.778 0 .982.796 1.778 1.777 1.778.982 0 1.778-.796 1.778-1.778 0-.981-.796-1.777-1.778-1.777zm0-15.11c-5.888.007-10.737 4.597-11.09 10.449l-.01.217h.888c.255-5.454 4.751-9.745 10.211-9.745 5.389 0 9.838 4.179 10.2 9.53l.011.215h.89c-.245-5.955-5.14-10.66-11.1-10.666zm6.222 4.174c-3.475-3.143-8.736-3.195-12.27-.155l-.175.155v2.937c0 .703.544 1.278 1.234 1.33l.1.003h9.777c.703 0 1.279-.544 1.33-1.234l.004-.1V7.73zm-6.223-.174c.737 0 1.334.597 1.334 1.333s-.597 1.333-1.334 1.333c-.736 0-1.333-.597-1.333-1.333s.597-1.333 1.333-1.333zm0 .888c-.245 0-.444.2-.444.445s.199.444.444.444c.246 0 .445-.199.445-.444 0-.246-.2-.445-.445-.445zm-2.222 0v.89H8.444v-.89h2.667zm7.111 0v.89h-2.666v-.89h2.666zm3.556-4.888c.736 0 1.333.597 1.333 1.333 0 .245-.199.444-.444.444-.223 0-.408-.164-.44-.378l-.005-.066c0-.223-.164-.408-.379-.44l-.065-.005c-.246 0-.445-.199-.445-.444s.2-.444.445-.444zm0-3.556c2.699.003 4.885 2.19 4.889 4.889 0 .245-.2.444-.445.444s-.444-.199-.444-.444c-.003-2.208-1.792-3.998-4-4-.246 0-.445-.2-.445-.445s.2-.444.445-.444zM4.888 3.556c.246 0 .445.199.445.444 0 .223-.164.408-.378.44l-.066.004c-.223 0-.408.165-.44.38l-.005.065c0 .245-.199.444-.444.444s-.444-.199-.444-.444c0-.736.597-1.333 1.333-1.333zm0-3.556c.246 0 .445.199.445.444 0 .246-.199.445-.444.445-2.208.002-3.998 1.792-4 4 0 .245-.2.444-.445.444S0 5.134 0 4.89C.003 2.19 2.19.003 4.889 0zm16.89 1.778c1.717.002 3.109 1.393 3.11 3.11 0 .246-.198.445-.444.445-.245 0-.444-.199-.444-.444-.002-1.227-.995-2.22-2.222-2.222-.246 0-.445-.2-.445-.445s.2-.444.445-.444zm-16.89 0c.246 0 .445.199.445.444 0 .246-.199.445-.444.445-1.227.001-2.22.995-2.222 2.222 0 .245-.2.444-.445.444s-.444-.199-.444-.444c.002-1.718 1.393-3.11 3.11-3.111z" transform="translate(6.666667, 6.666667)"/>
                    </g>
                </g>
            </g>
        </g>
    </g>
</svg>
