<svg xmlns="http://www.w3.org/2000/svg" width="42" height="42" viewBox="0 0 42 42">
    <g fill="none" fill-rule="evenodd">
        <g>
            <g>
                <g transform="translate(-135.000000, -512.000000) translate(120.000000, 489.000000) translate(16.000000, 24.000000)">
                    <circle cx="20" cy="20" r="20" fill="#FFF" stroke="#CFCFCF"/>
                    <g fill="#B41F25">
                        <path d="M18.78 3.385h.553c.56 0 1.016-.455 1.016-1.015V1.016c0-.56-.456-1.016-1.016-1.016h-7.848c-.216 0-.39.175-.39.39 0 .216.174.391.39.391h7.848c.13 0 .235.105.235.235V2.37c0 .129-.105.234-.235.234H7.042c-.13 0-.235-.105-.235-.234V1.016c0-.13.105-.235.235-.235h2.793c.216 0 .39-.175.39-.39 0-.216-.174-.391-.39-.391H7.042c-.56 0-1.016.456-1.016 1.016V2.37c0 .56.456 1.015 1.016 1.015h.812c-.031.033-.061.066-.089.103-.19.248-.271.556-.23.866.062.464.395.835.824.966.03.012.061.023.097.034L12.14 6.45l-3.6.483c-.64.086-1.09.678-1.005 1.318.042.31.202.586.45.776.115.087.243.15.377.19.033.014.065.025.094.033l3.684 1.095-3.6.484c-.64.086-1.09.677-1.005 1.317.063.468.395.834.82.964.035.014.07.026.101.036l3.684 1.094-3.6.484c-.64.086-1.09.677-1.005 1.318.042.31.202.585.45.775.117.089.246.153.382.193.03.012.062.023.09.031l3.683 1.095-3.6.483c-.64.087-1.09.678-1.005 1.318.063.467.394.832.817.963.033.013.067.026.104.037l3.684 1.094-3.6.484c-.442.06-.8.366-.945.767h-.553c-.56 0-1.016.456-1.016 1.016v1.354c0 .56.456 1.016 1.016 1.016h9.482c.215 0 .39-.175.39-.39 0-.217-.175-.392-.39-.392H7.042c-.13 0-.235-.105-.235-.234v-1.354c0-.13.105-.234.235-.234h12.291c.13 0 .235.105.235.234v1.354c0 .13-.105.234-.235.234H18.22c-.215 0-.39.175-.39.391 0 .216.175.39.39.39h1.114c.56 0 1.016-.455 1.016-1.015v-1.354c0-.56-.456-1.016-1.016-1.016h-.812c.031-.032.061-.066.089-.102.19-.249.271-.557.23-.867-.064-.476-.413-.856-.86-.975-.054-.026-.11-.049-.169-.067l-3.552-1.055 3.575-.48c.31-.042.586-.202.776-.451.19-.25.271-.557.23-.867-.065-.484-.419-.86-.864-.977-.053-.025-.107-.048-.165-.065L14.26 16.32l3.575-.481c.31-.042.586-.202.776-.45.19-.25.271-.557.23-.868-.065-.484-.419-.86-.864-.977-.053-.025-.107-.047-.165-.064l-3.552-1.056 1.368-.184c.214-.028.364-.225.335-.439-.028-.214-.225-.364-.439-.335l-6.774.91c-.214.03-.41-.121-.44-.335-.028-.213.122-.41.336-.439l5.414-.728h.003l3.564-.479c.214-.029.41.122.44.335.013.104-.014.206-.077.29-.063.082-.155.136-.259.15l-.555.074c-.213.029-.363.225-.335.44.03.213.226.363.44.334l.554-.074c.31-.042.586-.202.776-.45.19-.25.272-.558.23-.868-.065-.484-.419-.86-.864-.977-.053-.025-.107-.047-.165-.064L14.26 8.529l3.575-.48c.31-.042.586-.202.776-.451.19-.249.272-.557.23-.867-.065-.484-.419-.86-.864-.977-.053-.025-.107-.047-.165-.065l-3.553-1.055 3.576-.481c.443-.06.802-.366.947-.768zM8.697 23.281l8.93-1.2c.017-.002.034-.003.053-.003.194 0 .36.145.386.338.014.103-.013.206-.076.29-.064.082-.155.135-.259.15l-3.17.425H8.695zm7.22-1.759l-1.888.254-3.547-1.053 1.89-.254 3.546 1.053zm2.073-2.712c-.063.083-.155.136-.259.15l-5.371.722h-.004l-3.606.485c-.214.029-.41-.122-.44-.335-.028-.214.122-.41.336-.44l8.981-1.206c.018-.003.035-.004.053-.004.192 0 .36.143.387.339.013.103-.014.206-.077.289zm-2.072-1.183l-1.888.254-3.547-1.054 1.888-.254 3.547 1.054zm2.072-2.713c-.063.083-.155.137-.259.15l-5.371.723h-.003l-3.607.485c-.05.006-.098.003-.144-.008l-.016-.004c-.046-.013-.09-.035-.13-.065-.082-.063-.136-.155-.15-.258-.028-.214.122-.41.336-.44l8.981-1.207c.018-.002.035-.003.053-.003.192 0 .36.142.387.338.013.104-.014.206-.077.29zm-2.072-1.182l-1.889.254-3.546-1.054 1.888-.254 3.547 1.054zm1.762-10.347l-8.93 1.2c-.017.003-.034.004-.053.004-.036 0-.07-.005-.104-.014H8.59c-.146-.043-.26-.168-.28-.324-.014-.104.013-.206.076-.29.063-.082.155-.136.259-.15l3.17-.426h5.864zm-1.762 6.451l-1.888.254-3.547-1.054 1.888-.253 3.547 1.053zm2.072-2.712c-.063.083-.155.136-.259.15L8.75 8.48c-.104.014-.206-.013-.29-.077-.082-.063-.136-.155-.15-.258-.028-.214.122-.41.336-.44l5.414-.727h.003l3.564-.48c.018-.002.035-.003.053-.003.025 0 .05.003.074.007h.002c.159.033.288.162.31.332.014.103-.013.206-.076.289zM15.917 5.94l-1.888.254-3.547-1.054 1.888-.254 3.547 1.054z" transform="translate(6.666667, 6.666667)"/>
                    </g>
                </g>
            </g>
        </g>
    </g>
</svg>
