<svg width="190" height="56" viewBox="0 0 190 56" fill="none" xmlns="http://www.w3.org/2000/svg">
<path fill-rule="evenodd" clip-rule="evenodd" d="M186 4H4V52H186V4ZM0 0V56H190V0H0Z" fill="white"/>
<path d="M23.6674 20.5257H16V16H36.8799V20.5257H29.2125V40H23.6674V20.5257Z" fill="white"/>
<path d="M53.5552 16H59.1004V40H53.5552V16Z" fill="white"/>
<path d="M83.4417 20.5257H75.7743V16H96.6542V20.5257H88.9869V40H83.4417V20.5257Z" fill="white"/>
<path d="M127.906 34.8571H116.781L114.659 40H108.977L119.657 16H125.133L135.847 40H130.028L127.906 34.8571ZM126.16 30.64L122.361 21.4514L118.561 30.64H126.16Z" fill="white"/>
<path d="M174 16V40H169.447L157.501 25.4286V40H152.025V16H156.611L168.523 30.5714V16H174Z" fill="white"/>
</svg>
