<svg width="163" height="48" viewBox="0 0 163 48" fill="none" xmlns="http://www.w3.org/2000/svg">
<path fill-rule="evenodd" clip-rule="evenodd" d="M159.429 3.42857H3.42857V44.5714H159.429V3.42857ZM0 0V48H162.857V0H0Z" fill="#E70C15"/>
<path d="M20.2863 17.5934H13.7142V13.7142H31.6113V17.5934H25.0393V34.2857H20.2863V17.5934Z" fill="#E70C15"/>
<path d="M45.9044 13.7142H50.6574V34.2857H45.9044V13.7142Z" fill="#E70C15"/>
<path d="M71.5214 17.5934H64.9494V13.7142H82.8464V17.5934H76.2744V34.2857H71.5214V17.5934Z" fill="#E70C15"/>
<path d="M109.634 29.8775H100.098L98.2792 34.2857H93.4089L102.563 13.7142H107.257L116.44 34.2857H111.453L109.634 29.8775ZM108.137 26.2628L104.881 18.3869L101.624 26.2628H108.137Z" fill="#E70C15"/>
<path d="M149.143 13.7142V34.2857H145.241L135.001 21.7959V34.2857H130.307V13.7142H134.238L144.449 26.204V13.7142H149.143Z" fill="#E70C15"/>
</svg>
