<svg xmlns="http://www.w3.org/2000/svg" width="24" height="24" viewBox="0 0 24 24">
    <g fill="none" fill-rule="evenodd">
        <g fill="#000" fill-rule="nonzero">
            <path d="M23.087 16.67v-1.113c0-1.504-1.226-2.728-2.733-2.728h-.077l-2.712-3.703c-.057-.078-.15-.124-.248-.124h-3.039c-.167 0-.303.131-.303.293-.005 1.767-.004 3.533-.002 5.3H12.76V9.591c0-.163-.135-.295-.303-.295h-2.43V4.294c0-.162-.136-.294-.304-.294H4.253c-.168 0-.304.132-.304.294v5.003H1.52c-.168 0-.304.132-.304.295v5.002H.304c-.168 0-.304.132-.304.295v2.06c0 .163.136.294.304.294h.292c.098 0 .173.032.239.103.065.07.09.145.081.239-.003.032-.005.066-.005.1 0 .568.477 1.03 1.064 1.03h2.064c.262.85 1.076 1.471 2.037 1.471.961 0 1.774-.621 2.037-1.471h9.293c.263.85 1.076 1.471 2.037 1.471.962 0 1.775-.621 2.037-1.471h1.457c.586 0 1.063-.462 1.063-1.03 0-.518-.398-.944-.913-1.015zm-8.505-7.08h2.578l2.372 3.239h-3.43v-2.042c0-.162-.137-.294-.305-.294-.168 0-.303.132-.303.294v2.336c0 .163.135.295.303.295h4.174c.023 0 .044-.008.065-.013.027.007.055.013.084.013h.234c1.172 0 2.125.959 2.125 2.139v1.098h-1.55c-.384-.364-.908-.589-1.486-.589-.577 0-1.102.225-1.486.589h-3.375v-1.766l-.001-.006v-.289c-.002-1.668-.003-3.335 0-5.003zm-2.43 5.004h-4.86V9.886h1.214v1.177c0 .094.047.183.126.239.053.036.115.055.178.055.032 0 .065-.005.096-.015l.816-.263.815.264c.093.029.194.014.274-.041.08-.055.126-.144.126-.239V9.886h1.215v4.708zm-1.823-3.94l-.511-.165c-.031-.01-.064-.015-.096-.015-.033 0-.065.005-.096.016l-.512.165v-.77h1.215v.77zM7.595 4.59v.768l-.512-.165c-.03-.01-.063-.015-.096-.015-.032 0-.065.005-.096.015l-.511.165V4.59h1.215zm-3.038 0h1.215v1.177c0 .094.047.183.126.239.08.055.181.07.274.04l.815-.263.816.263c.031.01.064.015.096.015.063 0 .125-.019.177-.055.08-.056.127-.145.127-.24V4.59h1.215v4.708H4.557V4.59zm.304 5.297v.769l-.512-.166c-.03-.01-.064-.015-.096-.015s-.065.005-.096.016l-.511.165v-.77H4.86zm-3.038 0h1.215v1.177c0 .094.047.183.126.239.053.036.115.055.178.055.032 0 .064-.005.096-.015l.815-.263.816.264c.092.029.194.014.274-.041.079-.055.126-.144.126-.239V9.886h1.215v4.708H1.823V9.886zm4.253 9.711c-.838 0-1.519-.66-1.519-1.471s.681-1.471 1.519-1.471c.838 0 1.519.66 1.519 1.471s-.681 1.471-1.519 1.471zm2.127-1.47c0-1.137-.955-2.061-2.127-2.061-1.172 0-2.127.924-2.127 2.06H1.975c-.252 0-.456-.198-.456-.441 0-.015 0-.029.002-.043.014-.14-.006-.274-.053-.399h.355c.168 0 .304-.131.304-.294 0-.163-.136-.294-.304-.294H.608v-1.472h13.367v1.472h-.608c-.168 0-.304.131-.304.294 0 .163.136.294.304.294h4.158c-.132.268-.209.567-.209.883H8.203zm11.24 1.47c-.838 0-1.519-.66-1.519-1.471s.681-1.471 1.52-1.471c.837 0 1.518.66 1.518 1.471s-.681 1.471-1.519 1.471zm3.494-1.47H21.57c0-.317-.076-.616-.208-.884h1.575c.251 0 .455.198.455.442 0 .243-.204.441-.455.441z"/>
        </g>
    </g>
</svg>
