<svg xmlns="http://www.w3.org/2000/svg" width="24" height="24" viewBox="0 0 24 24">
    <g fill="none" fill-rule="evenodd">
        <g fill="#000" fill-rule="nonzero">
            <path d="M8.572 4c.531 0 .968.417.998.94L9.572 5v.365l.412-.714c.178-.307.51-.498.867-.498.15 0 .298.034.433.098l.066.035 3.959 2.284c.23.133.396.348.465.606.063.235.04.478-.065.694l-.034.064-.183.316.714-.412c.151-.087.323-.134.498-.134.335 0 .648.168.833.443l.035.057 2.285 3.954c.266.46.124 1.043-.312 1.332l-.054.033-.316.182H20c.532 0 .968.417.998.94l.002.06v4.566c0 .531-.417.967-.941.998l-.059.001H4c-.532 0-.968-.416-.998-.94L3 19.27v-4.567l.001-.014v-9.69c0-.531.416-.967.94-.997L4.002 4h4.57zM20 14.56H4c-.058 0-.11.037-.131.088l-.01.034-.002.021v4.567c0 .068.05.126.114.14l.029.003h16c.068 0 .126-.05.14-.114l.003-.029v-4.567c0-.067-.05-.126-.115-.14L20 14.562zM5.714 15.989c.71 0 1.286.576 1.286 1.284 0 .708-.577 1.285-1.286 1.285-.709 0-1.286-.577-1.286-1.285s.577-1.284 1.286-1.284zm0 .856c-.236 0-.429.192-.429.428s.193.428.43.428c.236 0 .428-.192.428-.428s-.192-.428-.429-.428zm.851-6.28H3.857v3.15l.07-.007.073-.003h.75l1.815-3.14zM16.83 8.632c-.044-.076-.119-.084-.176-.062l-.02.01-4.082 2.354 1.601 2.771h3.308l1.602-.923c.06-.034.085-.107.064-.17l-.011-.026-2.286-3.954zM7.94 9.899l-2.2 3.805h.293l4.253-2.453L7.94 9.9zm3.87 1.462l-4.063 2.343h5.417l-1.354-2.343zm-.889-6.335c-.051-.03-.127-.031-.178.028l-.017.025-2.357 4.078 2.774 1.6 2.865-1.652.924-1.6c.025-.044.02-.087.014-.108-.005-.018-.016-.047-.043-.07l-.023-.017-3.959-2.284zm-2.35-.17H4c-.068 0-.126.05-.14.115l-.003.028v4.71H7.06l1.654-2.862V4.999c0-.068-.05-.126-.114-.14l-.029-.003z"/>
        </g>
    </g>
</svg>
