<svg xmlns="http://www.w3.org/2000/svg" width="24" height="24" viewBox="0 0 24 24">
    <g fill="none" fill-rule="evenodd">
        <g fill="#000" fill-rule="nonzero">
            <g>
                <path d="M10.72 0l1.368 1.19 1.83.317.715 1.664 1.511 1.08-.079 1.808.893 1.627-.857 1.596.097 1.852-.981.713 2.92 2.916-2.898 1.113-1.115 2.894-3.316-3.31-1.718-.471-1.777.503-3.3 3.294L2.9 15.892 0 14.78l2.847-2.842-.969-.692.08-1.81-.893-1.626.857-1.596-.097-1.852L3.29 3.295l.717-1.711 1.785-.326 1.39-1.23 1.75.478L10.72 0zM3.455 12.475l-2 1.996 2.071.795.797 2.066 2.371-2.367-.759-.66-1.83-.317-.65-1.513zm11.186-.058l-.627 1.494-1.785.326-.794.703 2.38 2.377.797-2.068 2.07-.794-2.041-2.038zM10.518.899l-1.582.448L7.392.924l-1.23 1.09-1.576.287-.635 1.514-1.294.942.087 1.64-.757 1.408.79 1.44-.07 1.596 1.338.956.631 1.468 1.62.281 1.208 1.05 1.583-.448 1.543.423 1.23-1.09 1.575-.287.636-1.514 1.293-.942-.086-1.64.757-1.408-.79-1.44.07-1.597-1.338-.955-.631-1.468-1.62-.282-1.208-1.05zm-1.54 2.656L10.452 5.8l2.626.648-1.685 2.093.193 2.693-2.514-.954-2.506 1.016.132-2.681L4.954 6.55l2.595-.704 1.43-2.292zm.017 1.504L8.07 6.545l-1.677.454 1.13 1.339-.085 1.732 1.624-.658 1.624.616-.125-1.746 1.088-1.351-1.701-.42-.952-1.452z" transform="translate(3 3)"/>
            </g>
        </g>
    </g>
</svg>
